Mono_opsz10.ufo
<glyph name="quotedbl" format="2">
  <advance width="525"/>
  <unicode hex="0022"/>
  <outline>
    <contour>
      <point x="218.0" y="567" type="line" smooth="yes"/>
      <point x="221.0" y="614"/>
      <point x="187.0" y="622"/>
      <point x="174.0" y="622" type="curve" smooth="yes"/>
      <point x="155.0" y="622"/>
      <point x="126.0" y="611"/>
      <point x="129.0" y="567" type="curve" smooth="yes"/>
      <point x="142.0" y="364" type="line" smooth="yes"/>
      <point x="143.0" y="349"/>
      <point x="146.0" y="328"/>
      <point x="174.0" y="328" type="curve" smooth="yes"/>
      <point x="199.0" y="328"/>
      <point x="204.0" y="346"/>
      <point x="205.0" y="363" type="curve" smooth="yes"/>
    </contour>
    <contour>
      <point x="395.0" y="567" type="line" smooth="yes"/>
      <point x="398.0" y="614"/>
      <point x="364.0" y="622"/>
      <point x="351.0" y="622" type="curve" smooth="yes"/>
      <point x="332.0" y="622"/>
      <point x="303.0" y="611"/>
      <point x="306.0" y="567" type="curve" smooth="yes"/>
      <point x="319.0" y="364" type="line" smooth="yes"/>
      <point x="320.0" y="349"/>
      <point x="323.0" y="328"/>
      <point x="351.0" y="328" type="curve" smooth="yes"/>
      <point x="376.0" y="328"/>
      <point x="381.0" y="346"/>
      <point x="382.0" y="363" type="curve" smooth="yes"/>
    </contour>
  </outline>
</glyph>
<glyph name="numbersign" format="2">
  <advance width="1050"/>
  <unicode hex="0023"/>
  <outline>
    <contour>
      <point x="788" y="758" type="line"/>
      <point x="884" y="758" type="line" smooth="yes"/>
      <point x="908" y="758"/>
      <point x="978" y="758"/>
      <point x="978" y="828" type="curve" smooth="yes"/>
      <point x="978" y="898"/>
      <point x="908" y="898"/>
      <point x="884" y="898" type="curve" smooth="yes"/>
      <point x="808" y="898" type="line"/>
      <point x="836" y="1128" type="line" smooth="yes"/>
      <point x="846" y="1202"/>
      <point x="798" y="1222"/>
      <point x="768" y="1222" type="curve" smooth="yes"/>
      <point x="706" y="1222"/>
      <point x="698" y="1164"/>
      <point x="696" y="1140" type="curve" smooth="yes"/>
      <point x="666" y="898" type="line"/>
      <point x="460" y="898" type="line"/>
      <point x="488" y="1128" type="line" smooth="yes"/>
      <point x="498" y="1202"/>
      <point x="450" y="1222"/>
      <point x="420" y="1222" type="curve" smooth="yes"/>
      <point x="358" y="1222"/>
      <point x="350" y="1164"/>
      <point x="348" y="1140" type="curve" smooth="yes"/>
      <point x="318" y="898" type="line"/>
      <point x="164" y="898" type="line" smooth="yes"/>
      <point x="140" y="898"/>
      <point x="70" y="898"/>
      <point x="70" y="828" type="curve" smooth="yes"/>
      <point x="70" y="758"/>
      <point x="140" y="758"/>
      <point x="164" y="758" type="curve" smooth="yes"/>
      <point x="298" y="758" type="line"/>
      <point x="262" y="466" type="line"/>
      <point x="164" y="466" type="line" smooth="yes"/>
      <point x="140" y="466"/>
      <point x="70" y="466"/>
      <point x="70" y="396" type="curve" smooth="yes"/>
      <point x="70" y="326"/>
      <point x="140" y="326"/>
      <point x="164" y="326" type="curve" smooth="yes"/>
      <point x="242" y="326" type="line"/>
      <point x="210" y="80"/>
      <point x="210" y="72"/>
      <point x="210" y="70" type="curve" smooth="yes"/>
      <point x="210" y="34"/>
      <point x="238" y="0"/>
      <point x="280" y="0" type="curve" smooth="yes"/>
      <point x="342" y="0"/>
      <point x="348" y="58"/>
      <point x="352" y="82" type="curve" smooth="yes"/>
      <point x="363" y="163"/>
      <point x="373" y="245"/>
      <point x="384" y="326" type="curve"/>
      <point x="590" y="326" type="line"/>
      <point x="558" y="80"/>
      <point x="558" y="72"/>
      <point x="558" y="70" type="curve" smooth="yes"/>
      <point x="558" y="34"/>
      <point x="586" y="0"/>
      <point x="628" y="0" type="curve" smooth="yes"/>
      <point x="690" y="0"/>
      <point x="696" y="58"/>
      <point x="700" y="82" type="curve" smooth="yes"/>
      <point x="711" y="163"/>
      <point x="721" y="245"/>
      <point x="732" y="326" type="curve"/>
      <point x="884" y="326" type="line" smooth="yes"/>
      <point x="908" y="326"/>
      <point x="978" y="326"/>
      <point x="978" y="396" type="curve" smooth="yes"/>
      <point x="978" y="466"/>
      <point x="908" y="466"/>
      <point x="884" y="466" type="curve" smooth="yes"/>
      <point x="752" y="466" type="line"/>
    </contour>
    <contour>
      <point x="440" y="758" type="line"/>
      <point x="646" y="758" type="line"/>
      <point x="610" y="466" type="line"/>
      <point x="404" y="466" type="line"/>
    </contour>
  </outline>
</glyph>
<glyph name="dollar" format="2">
  <advance width="525"/>
  <unicode hex="0024"/>
  <outline>
    <contour>
      <point x="293" y="276" type="line"/>
      <point x="359" y="263"/>
      <point x="402" y="218"/>
      <point x="402" y="167" type="curve" smooth="yes"/>
      <point x="402" y="116"/>
      <point x="357" y="69"/>
      <point x="293" y="58" type="curve"/>
    </contour>
    <contour>
      <point x="232" y="289" type="curve"/>
      <point x="232" y="57" type="line"/>
      <point x="187" y="63"/>
      <point x="146" y="85"/>
      <point x="131" y="136" type="curve"/>
      <point x="137" y="140"/>
      <point x="147" y="148"/>
      <point x="147" y="171" type="curve" smooth="yes"/>
      <point x="147" y="199"/>
      <point x="123" y="216"/>
      <point x="103" y="216" type="curve" smooth="yes"/>
      <point x="94" y="216"/>
      <point x="58" y="212"/>
      <point x="58" y="166" type="curve" smooth="yes"/>
      <point x="58" y="83"/>
      <point x="116" y="6"/>
      <point x="232" y="-5" type="curve"/>
      <point x="232" y="-42" type="line" smooth="yes"/>
      <point x="232" y="-58"/>
      <point x="232" y="-83"/>
      <point x="263" y="-83" type="curve" smooth="yes"/>
      <point x="293" y="-83"/>
      <point x="293" y="-58"/>
      <point x="293" y="-42" type="curve" smooth="yes"/>
      <point x="293" y="-4" type="line"/>
      <point x="415" y="15"/>
      <point x="466" y="101"/>
      <point x="466" y="171" type="curve" smooth="yes"/>
      <point x="466" y="220"/>
      <point x="438" y="319"/>
      <point x="293" y="346" type="curve"/>
      <point x="293" y="554" type="line"/>
      <point x="326" y="550"/>
      <point x="376" y="536"/>
      <point x="392" y="485" type="curve"/>
      <point x="382" y="477"/>
      <point x="377" y="465"/>
      <point x="377" y="452" type="curve" smooth="yes"/>
      <point x="377" y="429"/>
      <point x="394" y="408"/>
      <point x="421" y="408" type="curve" smooth="yes"/>
      <point x="442" y="408"/>
      <point x="466" y="420"/>
      <point x="466" y="457" type="curve" smooth="yes"/>
      <point x="466" y="534"/>
      <point x="411" y="606"/>
      <point x="293" y="616" type="curve"/>
      <point x="293" y="653" type="line" smooth="yes"/>
      <point x="293" y="669"/>
      <point x="293" y="694"/>
      <point x="263" y="694" type="curve" smooth="yes"/>
      <point x="232" y="694"/>
      <point x="232" y="669"/>
      <point x="232" y="653" type="curve" smooth="yes"/>
      <point x="232" y="615" type="line"/>
      <point x="122" y="602"/>
      <point x="58" y="526"/>
      <point x="58" y="452" type="curve" smooth="yes"/>
      <point x="58" y="428"/>
      <point x="64" y="320"/>
    </contour>
    <contour>
      <point x="232" y="359" type="line"/>
      <point x="175" y="369"/>
      <point x="122" y="405"/>
      <point x="122" y="456" type="curve" smooth="yes"/>
      <point x="122" y="504"/>
      <point x="170" y="544"/>
      <point x="232" y="554" type="curve"/>
    </contour>
  </outline>
</glyph>
<glyph name="percent" format="2">
  <advance width="525"/>
  <unicode hex="0025"/>
  <outline>
    <contour>
      <point x="431" y="637" type="line" smooth="yes"/>
      <point x="435" y="647"/>
      <point x="437" y="652"/>
      <point x="437" y="659" type="curve" smooth="yes"/>
      <point x="437" y="677"/>
      <point x="422" y="694"/>
      <point x="402" y="694" type="curve" smooth="yes"/>
      <point x="378" y="694"/>
      <point x="371" y="675"/>
      <point x="366" y="663" type="curve" smooth="yes"/>
      <point x="93" y="-26" type="line" smooth="yes"/>
      <point x="89" y="-36"/>
      <point x="87" y="-41"/>
      <point x="87" y="-48" type="curve" smooth="yes"/>
      <point x="87" y="-67"/>
      <point x="103" y="-83"/>
      <point x="122" y="-83" type="curve" smooth="yes"/>
      <point x="146" y="-83"/>
      <point x="153" y="-65"/>
      <point x="157" y="-54" type="curve" smooth="yes"/>
    </contour>
    <contour>
      <point x="489" y="50" type="curve" smooth="yes"/>
      <point x="489" y="124"/>
      <point x="452" y="183"/>
      <point x="402" y="183" type="curve" smooth="yes"/>
      <point x="352" y="183"/>
      <point x="315" y="124"/>
      <point x="315" y="50" type="curve" smooth="yes"/>
      <point x="315" y="-24"/>
      <point x="352" y="-83"/>
      <point x="402" y="-83" type="curve" smooth="yes"/>
      <point x="452" y="-83"/>
      <point x="489" y="-24"/>
    </contour>
    <contour>
      <point x="402" y="-21" type="curve" smooth="yes"/>
      <point x="390" y="-21"/>
      <point x="371" y="6"/>
      <point x="371" y="50" type="curve" smooth="yes"/>
      <point x="371" y="94"/>
      <point x="390" y="121"/>
      <point x="402" y="121" type="curve" smooth="yes"/>
      <point x="414" y="121"/>
      <point x="433" y="94"/>
      <point x="433" y="50" type="curve" smooth="yes"/>
      <point x="433" y="6"/>
      <point x="414" y="-21"/>
    </contour>
    <contour>
      <point x="209" y="560" type="curve" smooth="yes"/>
      <point x="209" y="638"/>
      <point x="170" y="694"/>
      <point x="122" y="694" type="curve" smooth="yes"/>
      <point x="73" y="694"/>
      <point x="35" y="636"/>
      <point x="35" y="561" type="curve" smooth="yes"/>
      <point x="35" y="483"/>
      <point x="74" y="427"/>
      <point x="122" y="427" type="curve" smooth="yes"/>
      <point x="171" y="427"/>
      <point x="209" y="485"/>
    </contour>
    <contour>
      <point x="122" y="489" type="curve" smooth="yes"/>
      <point x="110" y="489"/>
      <point x="91" y="517"/>
      <point x="91" y="561" type="curve" smooth="yes"/>
      <point x="91" y="602"/>
      <point x="109" y="632"/>
      <point x="122" y="632" type="curve" smooth="yes"/>
      <point x="135" y="632"/>
      <point x="153" y="602"/>
      <point x="153" y="561" type="curve" smooth="yes"/>
      <point x="153" y="517"/>
      <point x="134" y="489"/>
    </contour>
  </outline>
</glyph>
<glyph name="ampersand" format="2">
	<unicode hex="0026"/>
	<advance width="525"/>
	<outline>
		<contour>
			<point x="419" y="370" type="line"/>
			<point x="450" y="370" type="line" smooth="yes"/>
			<point x="465" y="370"/>
			<point x="490" y="370"/>
			<point x="490" y="400" type="curve" smooth="yes"/>
			<point x="490" y="431"/>
			<point x="466" y="431"/>
			<point x="450" y="431" type="curve" smooth="yes"/>
			<point x="358" y="431" type="line" smooth="yes"/>
			<point x="343" y="431"/>
			<point x="318" y="431"/>
			<point x="318" y="401" type="curve" smooth="yes"/>
			<point x="318" y="370"/>
			<point x="342" y="370"/>
			<point x="359" y="370" type="curve"/>
			<point x="332" y="299"/>
			<point x="299" y="213"/>
			<point x="272" y="160" type="curve"/>
			<point x="259" y="181"/>
			<point x="218" y="244"/>
			<point x="198" y="298" type="curve"/>
			<point x="299" y="403"/>
			<point x="299" y="462"/>
			<point x="299" y="485" type="curve" smooth="yes"/>
			<point x="299" y="546"/>
			<point x="278" y="622"/>
			<point x="207" y="622" type="curve" smooth="yes"/>
			<point x="157" y="622"/>
			<point x="103" y="577"/>
			<point x="103" y="477" type="curve" smooth="yes"/>
			<point x="103" y="434"/>
			<point x="110" y="378"/>
			<point x="131" y="315" type="curve"/>
			<point x="123" y="307"/>
			<point x="78" y="258"/>
			<point x="68" y="247" type="curve" smooth="yes"/>
			<point x="43" y="220"/>
			<point x="28" y="183"/>
			<point x="28" y="137" type="curve" smooth="yes"/>
			<point x="28" y="61"/>
			<point x="75" y="-11"/>
			<point x="151" y="-11" type="curve" smooth="yes"/>
			<point x="203" y="-11"/>
			<point x="244" y="21"/>
			<point x="275" y="59" type="curve"/>
			<point x="291" y="40"/>
			<point x="334" y="-11"/>
			<point x="392" y="-11" type="curve" smooth="yes"/>
			<point x="458" y="-11"/>
			<point x="487" y="57"/>
			<point x="487" y="105" type="curve" smooth="yes"/>
			<point x="487" y="138"/>
			<point x="461" y="138"/>
			<point x="459" y="138" type="curve" smooth="yes"/>
			<point x="433" y="138"/>
			<point x="431" y="112"/>
			<point x="431" y="107" type="curve"/>
			<point x="427" y="63"/>
			<point x="408" y="50"/>
			<point x="392" y="50" type="curve" smooth="yes"/>
			<point x="355" y="50"/>
			<point x="317" y="96"/>
			<point x="308" y="108" type="curve"/>
			<point x="329" y="143"/>
			<point x="349" y="189"/>
			<point x="359" y="214" type="curve" smooth="yes"/>
		</contour>
		<contour>
			<point x="175" y="364" type="curve"/>
			<point x="160" y="416"/>
			<point x="159" y="469"/>
			<point x="159" y="477" type="curve" smooth="yes"/>
			<point x="159" y="535"/>
			<point x="185" y="561"/>
			<point x="207" y="561" type="curve" smooth="yes"/>
			<point x="241" y="561"/>
			<point x="243" y="494"/>
			<point x="243" y="485" type="curve" smooth="yes"/>
			<point x="243" y="456"/>
			<point x="225" y="420"/>
		</contour>
		<contour>
			<point x="155" y="252" type="curve"/>
			<point x="176" y="210"/>
			<point x="211" y="151"/>
			<point x="239" y="108" type="curve"/>
			<point x="202" y="55"/>
			<point x="166" y="50"/>
			<point x="152" y="50" type="curve" smooth="yes"/>
			<point x="107" y="50"/>
			<point x="97" y="113"/>
			<point x="97" y="140" type="curve" smooth="yes"/>
			<point x="97" y="169.79312"/>
			<point x="101.2378168371" y="185.7170212604"/>
			<point x="115.6915653582" y="205.9451729157" type="curve" smooth="yes"/>
			<point x="124.5243987396" y="218.306803044"/>
			<point x="137.17243" y="232.27588"/>
		</contour>
	</outline>
</glyph>
<glyph name="quotesingle" format="2">
  <advance width="1050"/>
  <unicode hex="0027"/>
  <outline>
    <contour>
      <point x="612" y="1130" type="line" smooth="yes"/>
      <point x="618" y="1214"/>
      <point x="572" y="1244"/>
      <point x="524" y="1244" type="curve" smooth="yes"/>
      <point x="474" y="1244"/>
      <point x="432" y="1206"/>
      <point x="436" y="1148" type="curve" smooth="yes"/>
      <point x="462" y="730" type="line" smooth="yes"/>
      <point x="464" y="698"/>
      <point x="466" y="656"/>
      <point x="524" y="656" type="curve" smooth="yes"/>
      <point x="582" y="656"/>
      <point x="584" y="698"/>
      <point x="586" y="730" type="curve" smooth="yes"/>
    </contour>
  </outline>
</glyph>
<glyph name="parenleft" format="2">
  <advance width="525"/>
  <unicode hex="0028"/>
  <outline>
    <contour>
      <point x="437" y="-54" type="curve" smooth="yes"/>
      <point x="437" y="-39"/>
      <point x="430" y="-35"/>
      <point x="412" y="-23" type="curve" smooth="yes"/>
      <point x="288" y="61"/>
      <point x="242" y="194"/>
      <point x="242" y="306" type="curve" smooth="yes"/>
      <point x="242" y="406"/>
      <point x="280" y="545"/>
      <point x="414" y="636" type="curve" smooth="yes"/>
      <point x="430" y="647"/>
      <point x="437" y="651"/>
      <point x="437" y="666" type="curve" smooth="yes"/>
      <point x="437" y="674"/>
      <point x="432" y="694"/>
      <point x="406" y="694" type="curve" smooth="yes"/>
      <point x="377" y="694"/>
      <point x="173" y="562"/>
      <point x="173" y="306" type="curve" smooth="yes"/>
      <point x="173" y="187"/>
      <point x="219" y="97"/>
      <point x="254" y="47" type="curve" smooth="yes"/>
      <point x="307" y="-26"/>
      <point x="382" y="-82"/>
      <point x="406" y="-82" type="curve" smooth="yes"/>
      <point x="432" y="-82"/>
      <point x="437" y="-62"/>
    </contour>
  </outline>
</glyph>
<glyph name="parenright" format="2">
	<unicode hex="0029"/>
	<advance width="525"/>
	<outline>
		<contour>
			<point x="352" y="306" type="curve" smooth="yes"/>
			<point x="352" y="425"/>
			<point x="306" y="515"/>
			<point x="271" y="565" type="curve" smooth="yes"/>
			<point x="218" y="638"/>
			<point x="143" y="694"/>
			<point x="119" y="694" type="curve" smooth="yes"/>
			<point x="94" y="694"/>
			<point x="88" y="674"/>
			<point x="88" y="666" type="curve" smooth="yes"/>
			<point x="88" y="651"/>
			<point x="99" y="644"/>
			<point x="104" y="641" type="curve" smooth="yes"/>
			<point x="151" y="610"/>
			<point x="186" y="574"/>
			<point x="212" y="537" type="curve" smooth="yes"/>
			<point x="275" y="447"/>
			<point x="283" y="352"/>
			<point x="283" y="306" type="curve" smooth="yes"/>
			<point x="283" y="234"/>
			<point x="264" y="143"/>
			<point x="203" y="63" type="curve" smooth="yes"/>
			<point x="180" y="31"/>
			<point x="149" y="2"/>
			<point x="111" y="-24" type="curve" smooth="yes"/>
			<point x="96" y="-34"/>
			<point x="88" y="-39"/>
			<point x="88" y="-54" type="curve" smooth="yes"/>
			<point x="88" y="-62"/>
			<point x="94" y="-82"/>
			<point x="119" y="-82" type="curve" smooth="yes"/>
			<point x="134" y="-82"/>
			<point x="196" y="-47"/>
			<point x="252" y="23" type="curve" smooth="yes"/>
			<point x="305" y="88"/>
			<point x="352" y="182"/>
		</contour>
	</outline>
</glyph>
<glyph name="asterisk" format="2">
  <advance width="1050"/>
  <unicode hex="002A"/>
  <outline>
    <contour>
      <point x="584" y="716" type="line"/>
      <point x="586" y="788"/>
      <point x="590" y="900"/>
      <point x="590" y="958" type="curve" smooth="yes"/>
      <point x="590" y="976"/>
      <point x="590" y="1042"/>
      <point x="524" y="1042" type="curve" smooth="yes"/>
      <point x="458" y="1042"/>
      <point x="458" y="976"/>
      <point x="458" y="958" type="curve" smooth="yes"/>
      <point x="458" y="900"/>
      <point x="462" y="788"/>
      <point x="464" y="716" type="curve"/>
      <point x="248" y="842" type="line" smooth="yes"/>
      <point x="220" y="860"/>
      <point x="216" y="860"/>
      <point x="202" y="860" type="curve" smooth="yes"/>
      <point x="162" y="860"/>
      <point x="136" y="824"/>
      <point x="136" y="794" type="curve" smooth="yes"/>
      <point x="136" y="756"/>
      <point x="158" y="744"/>
      <point x="184" y="730" type="curve" smooth="yes"/>
      <point x="402" y="612" type="line"/>
      <point x="186" y="494" type="line" smooth="yes"/>
      <point x="162" y="480"/>
      <point x="136" y="468"/>
      <point x="136" y="428" type="curve" smooth="yes"/>
      <point x="136" y="412"/>
      <point x="148" y="362"/>
      <point x="200" y="362" type="curve" smooth="yes"/>
      <point x="216" y="362"/>
      <point x="222" y="364"/>
      <point x="256" y="384" type="curve" smooth="yes"/>
      <point x="464" y="506" type="line"/>
      <point x="462" y="454"/>
      <point x="458" y="322"/>
      <point x="458" y="264" type="curve" smooth="yes"/>
      <point x="458" y="246"/>
      <point x="458" y="180"/>
      <point x="524" y="180" type="curve" smooth="yes"/>
      <point x="590" y="180"/>
      <point x="590" y="246"/>
      <point x="590" y="264" type="curve" smooth="yes"/>
      <point x="590" y="322"/>
      <point x="586" y="454"/>
      <point x="584" y="506" type="curve"/>
      <point x="640" y="474"/>
      <point x="684" y="446"/>
      <point x="772" y="394" type="curve" smooth="yes"/>
      <point x="824" y="364"/>
      <point x="830" y="362"/>
      <point x="846" y="362" type="curve" smooth="yes"/>
      <point x="886" y="362"/>
      <point x="912" y="398"/>
      <point x="912" y="428" type="curve" smooth="yes"/>
      <point x="912" y="462"/>
      <point x="888" y="480"/>
      <point x="884" y="482" type="curve" smooth="yes"/>
      <point x="834" y="516"/>
      <point x="698" y="582"/>
      <point x="646" y="610" type="curve"/>
      <point x="862" y="728" type="line" smooth="yes"/>
      <point x="886" y="742"/>
      <point x="912" y="756"/>
      <point x="912" y="794" type="curve" smooth="yes"/>
      <point x="912" y="820"/>
      <point x="898" y="858"/>
      <point x="846" y="858" type="curve" smooth="yes"/>
      <point x="834" y="858"/>
      <point x="820" y="854"/>
      <point x="804" y="844" type="curve" smooth="yes"/>
    </contour>
  </outline>
</glyph>
<glyph name="plus" format="2">
  <advance width="525"/>
  <unicode hex="002B"/>
  <outline>
    <contour>
      <point x="297" y="271" type="line"/>
      <point x="439" y="271" type="line" smooth="yes"/>
      <point x="451" y="271"/>
      <point x="486" y="271"/>
      <point x="486" y="306" type="curve" smooth="yes"/>
      <point x="486" y="341"/>
      <point x="451" y="341"/>
      <point x="439" y="341" type="curve" smooth="yes"/>
      <point x="297" y="341" type="line"/>
      <point x="297" y="484" type="line" smooth="yes"/>
      <point x="297" y="496"/>
      <point x="297" y="531"/>
      <point x="262" y="531" type="curve" smooth="yes"/>
      <point x="227" y="531"/>
      <point x="227" y="496"/>
      <point x="227" y="484" type="curve" smooth="yes"/>
      <point x="227" y="341" type="line"/>
      <point x="85" y="341" type="line" smooth="yes"/>
      <point x="73" y="341"/>
      <point x="38" y="341"/>
      <point x="38" y="306" type="curve" smooth="yes"/>
      <point x="38" y="271"/>
      <point x="73" y="271"/>
      <point x="85" y="271" type="curve" smooth="yes"/>
      <point x="227" y="271" type="line"/>
      <point x="227" y="128" type="line" smooth="yes"/>
      <point x="227" y="116"/>
      <point x="227" y="81"/>
      <point x="262" y="81" type="curve" smooth="yes"/>
      <point x="297" y="81"/>
      <point x="297" y="116"/>
      <point x="297" y="128" type="curve" smooth="yes"/>
    </contour>
  </outline>
</glyph>
<glyph name="comma" format="2">
	<unicode hex="002C"/>
	<advance width="525"/>
	<outline>
		<contour>
			<point x="282" y="3" type="curve"/>
			<point x="267" y="-59"/>
			<point x="220" y="-75"/>
			<point x="208" y="-79" type="curve" smooth="yes"/>
			<point x="198" y="-82"/>
			<point x="180" y="-87"/>
			<point x="180" y="-107" type="curve" smooth="yes"/>
			<point x="180" y="-122"/>
			<point x="195" y="-139"/>
			<point x="212" y="-139" type="curve" smooth="yes"/>
			<point x="244" y="-139"/>
			<point x="346" y="-85"/>
			<point x="346" y="25" type="curve" smooth="yes"/>
			<point x="346" y="86"/>
			<point x="307" y="125"/>
			<point x="263" y="125" type="curve" smooth="yes"/>
			<point x="223" y="125"/>
			<point x="200" y="95"/>
			<point x="200" y="63" type="curve" smooth="yes"/>
			<point x="200" y="25"/>
			<point x="229" y="0"/>
			<point x="262" y="0" type="curve" smooth="yes"/>
			<point x="268" y="0"/>
			<point x="275" y="1"/>
		</contour>
	</outline>
</glyph>
<glyph name="hyphen" format="2">
	<unicode hex="002D"/>
	<advance width="525"/>
	<outline>
		<contour>
			<point x="421" y="271" type="line" smooth="yes"/>
			<point x="433" y="271"/>
			<point x="468" y="271"/>
			<point x="468" y="306" type="curve" smooth="yes"/>
			<point x="468" y="341"/>
			<point x="433" y="341"/>
			<point x="421" y="341" type="curve" smooth="yes"/>
			<point x="103" y="341" type="line" smooth="yes"/>
			<point x="91" y="341"/>
			<point x="56" y="341"/>
			<point x="56" y="306" type="curve" smooth="yes"/>
			<point x="56" y="271"/>
			<point x="91" y="271"/>
			<point x="103" y="271" type="curve" smooth="yes"/>
		</contour>
	</outline>
</glyph>
<glyph name="period" format="2">
	<unicode hex="002E"/>
	<advance width="525"/>
	<outline>
		<contour>
			<point x="325" y="62" type="curve" smooth="yes"/>
			<point x="325" y="99"/>
			<point x="295" y="125"/>
			<point x="263" y="125" type="curve" smooth="yes"/>
			<point x="225" y="125"/>
			<point x="200" y="94"/>
			<point x="200" y="63" type="curve" smooth="yes"/>
			<point x="200" y="26"/>
			<point x="230" y="0"/>
			<point x="262" y="0" type="curve" smooth="yes"/>
			<point x="300" y="0"/>
			<point x="325" y="31"/>
		</contour>
	</outline>
</glyph>
<glyph name="slash" format="2">
  <advance width="1050"/>
  <unicode hex="002F"/>
  <outline>
    <contour>
      <point x="916" y="1270" type="line" smooth="yes"/>
      <point x="930" y="1302"/>
      <point x="932" y="1302"/>
      <point x="932" y="1318" type="curve" smooth="yes"/>
      <point x="932" y="1354"/>
      <point x="902" y="1388"/>
      <point x="862" y="1388" type="curve" smooth="yes"/>
      <point x="818" y="1388"/>
      <point x="804" y="1358"/>
      <point x="792" y="1332" type="curve" smooth="yes"/>
      <point x="132" y="-48" type="line" smooth="yes"/>
      <point x="118" y="-80"/>
      <point x="116" y="-80"/>
      <point x="116" y="-96" type="curve" smooth="yes"/>
      <point x="116" y="-132"/>
      <point x="146" y="-166"/>
      <point x="186" y="-166" type="curve" smooth="yes"/>
      <point x="230" y="-166"/>
      <point x="244" y="-136"/>
      <point x="256" y="-110" type="curve" smooth="yes"/>
    </contour>
  </outline>
</glyph>
<glyph name="zero" format="2">
  <advance width="1050"/>
  <unicode hex="0030"/>
  <outline>
    <contour>
      <point x="948" y="610" type="curve" smooth="yes"/>
      <point x="948" y="982"/>
      <point x="744" y="1244"/>
      <point x="524" y="1244" type="curve" smooth="yes"/>
      <point x="300" y="1244"/>
      <point x="100" y="976"/>
      <point x="100" y="612" type="curve" smooth="yes"/>
      <point x="100" y="240"/>
      <point x="304" y="-22"/>
      <point x="524" y="-22" type="curve" smooth="yes"/>
      <point x="748" y="-22"/>
      <point x="948" y="246"/>
    </contour>
    <contour>
      <point x="524" y="100" type="curve" smooth="yes"/>
      <point x="368" y="100"/>
      <point x="238" y="336"/>
      <point x="238" y="632" type="curve" smooth="yes"/>
      <point x="238" y="924"/>
      <point x="376" y="1122"/>
      <point x="524" y="1122" type="curve" smooth="yes"/>
      <point x="670" y="1122"/>
      <point x="810" y="926"/>
      <point x="810" y="632" type="curve" smooth="yes"/>
      <point x="810" y="336"/>
      <point x="680" y="100"/>
    </contour>
  </outline>
</glyph>
<glyph name="one" format="2">
  <advance width="1050"/>
  <unicode hex="0031"/>
  <outline>
    <contour>
      <point x="622" y="1162" type="line" smooth="yes"/>
      <point x="622" y="1194"/>
      <point x="622" y="1244"/>
      <point x="562" y="1244" type="curve" smooth="yes"/>
      <point x="524" y="1244"/>
      <point x="512" y="1220"/>
      <point x="502" y="1196" type="curve" smooth="yes"/>
      <point x="426" y="1026"/>
      <point x="322" y="1004"/>
      <point x="284" y="1000" type="curve" smooth="yes"/>
      <point x="252" y="998"/>
      <point x="210" y="994"/>
      <point x="210" y="938" type="curve" smooth="yes"/>
      <point x="210" y="888"/>
      <point x="246" y="878"/>
      <point x="276" y="878" type="curve" smooth="yes"/>
      <point x="314" y="878"/>
      <point x="396" y="890"/>
      <point x="484" y="966" type="curve"/>
      <point x="484" y="122" type="line"/>
      <point x="302" y="122" type="line" smooth="yes"/>
      <point x="270" y="122"/>
      <point x="222" y="122"/>
      <point x="222" y="60" type="curve" smooth="yes"/>
      <point x="222" y="0"/>
      <point x="272" y="0"/>
      <point x="302" y="0" type="curve" smooth="yes"/>
      <point x="804" y="0" type="line" smooth="yes"/>
      <point x="834" y="0"/>
      <point x="884" y="0"/>
      <point x="884" y="60" type="curve" smooth="yes"/>
      <point x="884" y="122"/>
      <point x="836" y="122"/>
      <point x="804" y="122" type="curve" smooth="yes"/>
      <point x="622" y="122" type="line"/>
    </contour>
  </outline>
</glyph>
<glyph name="two" format="2">
  <advance width="1050"/>
  <unicode hex="0032"/>
  <outline>
    <contour>
      <point x="134" y="116" type="line" smooth="yes"/>
      <point x="116" y="100"/>
      <point x="104" y="90"/>
      <point x="104" y="62" type="curve" smooth="yes"/>
      <point x="104" y="0"/>
      <point x="154" y="0"/>
      <point x="186" y="0" type="curve" smooth="yes"/>
      <point x="864" y="0" type="line" smooth="yes"/>
      <point x="930" y="0"/>
      <point x="944" y="18"/>
      <point x="944" y="82" type="curve" smooth="yes"/>
      <point x="944" y="134" type="line" smooth="yes"/>
      <point x="944" y="172"/>
      <point x="944" y="216"/>
      <point x="876" y="216" type="curve" smooth="yes"/>
      <point x="806" y="216"/>
      <point x="806" y="178"/>
      <point x="806" y="122" type="curve"/>
      <point x="330" y="122" type="line"/>
      <point x="448" y="224"/>
      <point x="640" y="374"/>
      <point x="726" y="454" type="curve" smooth="yes"/>
      <point x="852" y="566"/>
      <point x="944" y="694"/>
      <point x="944" y="854" type="curve" smooth="yes"/>
      <point x="944" y="1094"/>
      <point x="742" y="1244"/>
      <point x="498" y="1244" type="curve" smooth="yes"/>
      <point x="262" y="1244"/>
      <point x="104" y="1080"/>
      <point x="104" y="910" type="curve" smooth="yes"/>
      <point x="104" y="836"/>
      <point x="160" y="814"/>
      <point x="194" y="814" type="curve" smooth="yes"/>
      <point x="236" y="814"/>
      <point x="282" y="848"/>
      <point x="282" y="904" type="curve" smooth="yes"/>
      <point x="282" y="928"/>
      <point x="272" y="954"/>
      <point x="254" y="968" type="curve"/>
      <point x="284" y="1060"/>
      <point x="378" y="1122"/>
      <point x="488" y="1122" type="curve" smooth="yes"/>
      <point x="652" y="1122"/>
      <point x="806" y="1030"/>
      <point x="806" y="854" type="curve" smooth="yes"/>
      <point x="806" y="714"/>
      <point x="708" y="598"/>
      <point x="576" y="488" type="curve" smooth="yes"/>
    </contour>
  </outline>
</glyph>
<glyph name="three" format="2">
  <advance width="1050"/>
  <unicode hex="0033"/>
  <outline>
    <contour>
      <point x="522" y="598" type="line" smooth="yes"/>
      <point x="720" y="598"/>
      <point x="822" y="464"/>
      <point x="822" y="348" type="curve" smooth="yes"/>
      <point x="822" y="226"/>
      <point x="710" y="100"/>
      <point x="528" y="100" type="curve" smooth="yes"/>
      <point x="448" y="100"/>
      <point x="294" y="122"/>
      <point x="242" y="216" type="curve"/>
      <point x="252" y="226"/>
      <point x="266" y="238"/>
      <point x="266" y="278" type="curve" smooth="yes"/>
      <point x="266" y="326"/>
      <point x="228" y="366"/>
      <point x="178" y="366" type="curve" smooth="yes"/>
      <point x="132" y="366"/>
      <point x="88" y="336"/>
      <point x="88" y="272" type="curve" smooth="yes"/>
      <point x="88" y="94"/>
      <point x="282" y="-22"/>
      <point x="528" y="-22" type="curve" smooth="yes"/>
      <point x="790" y="-22"/>
      <point x="960" y="162"/>
      <point x="960" y="348" type="curve" smooth="yes"/>
      <point x="960" y="490"/>
      <point x="866" y="608"/>
      <point x="734" y="668" type="curve"/>
      <point x="846" y="740"/>
      <point x="902" y="854"/>
      <point x="902" y="962" type="curve" smooth="yes"/>
      <point x="902" y="1110"/>
      <point x="756" y="1244"/>
      <point x="526" y="1244" type="curve" smooth="yes"/>
      <point x="286" y="1244"/>
      <point x="146" y="1148"/>
      <point x="146" y="1010" type="curve" smooth="yes"/>
      <point x="146" y="944"/>
      <point x="196" y="916"/>
      <point x="236" y="916" type="curve" smooth="yes"/>
      <point x="278" y="916"/>
      <point x="324" y="950"/>
      <point x="324" y="1006" type="curve" smooth="yes"/>
      <point x="324" y="1034"/>
      <point x="312" y="1054"/>
      <point x="306" y="1060" type="curve"/>
      <point x="368" y="1122"/>
      <point x="510" y="1122"/>
      <point x="528" y="1122" type="curve" smooth="yes"/>
      <point x="664" y="1122"/>
      <point x="764" y="1050"/>
      <point x="764" y="960" type="curve" smooth="yes"/>
      <point x="764" y="900"/>
      <point x="734" y="830"/>
      <point x="680" y="786" type="curve" smooth="yes"/>
      <point x="616" y="734"/>
      <point x="566" y="730"/>
      <point x="494" y="726" type="curve" smooth="yes"/>
      <point x="474" y="724"/>
      <point x="456" y="724"/>
      <point x="440" y="722" type="curve" smooth="yes"/>
      <point x="370" y="716"/>
      <point x="350" y="708"/>
      <point x="350" y="660" type="curve" smooth="yes"/>
      <point x="350" y="598"/>
      <point x="398" y="598"/>
      <point x="430" y="598" type="curve" smooth="yes"/>
    </contour>
  </outline>
</glyph>
<glyph name="four" format="2">
  <advance width="1050"/>
  <unicode hex="0034"/>
  <outline>
    <contour>
      <point x="76" y="488" type="line" smooth="yes"/>
      <point x="58" y="462"/>
      <point x="58" y="458"/>
      <point x="58" y="418" type="curve" smooth="yes"/>
      <point x="58" y="352"/>
      <point x="76" y="338"/>
      <point x="138" y="338" type="curve" smooth="yes"/>
      <point x="642" y="338" type="line"/>
      <point x="642" y="122" type="line"/>
      <point x="518" y="122" type="line" smooth="yes"/>
      <point x="486" y="122"/>
      <point x="438" y="122"/>
      <point x="438" y="60" type="curve" smooth="yes"/>
      <point x="438" y="0"/>
      <point x="488" y="0"/>
      <point x="518" y="0" type="curve" smooth="yes"/>
      <point x="878" y="0" type="line" smooth="yes"/>
      <point x="908" y="0"/>
      <point x="958" y="0"/>
      <point x="958" y="60" type="curve" smooth="yes"/>
      <point x="958" y="122"/>
      <point x="910" y="122"/>
      <point x="878" y="122" type="curve" smooth="yes"/>
      <point x="754" y="122" type="line"/>
      <point x="754" y="338" type="line"/>
      <point x="910" y="338" type="line" smooth="yes"/>
      <point x="940" y="338"/>
      <point x="990" y="338"/>
      <point x="990" y="398" type="curve" smooth="yes"/>
      <point x="990" y="460"/>
      <point x="942" y="460"/>
      <point x="910" y="460" type="curve" smooth="yes"/>
      <point x="754" y="460" type="line"/>
      <point x="754" y="1164" type="line" smooth="yes"/>
      <point x="754" y="1230"/>
      <point x="740" y="1246"/>
      <point x="672" y="1246" type="curve" smooth="yes"/>
      <point x="616" y="1246" type="line" smooth="yes"/>
      <point x="568" y="1246"/>
      <point x="558" y="1244"/>
      <point x="532" y="1204" type="curve" smooth="yes"/>
    </contour>
    <contour>
      <point x="198" y="460" type="line"/>
      <point x="642" y="1158" type="line"/>
      <point x="642" y="460" type="line"/>
    </contour>
  </outline>
</glyph>
<glyph name="five" format="2">
  <advance width="1050"/>
  <unicode hex="0035"/>
  <outline>
    <contour>
      <point x="794" y="1100" type="line" smooth="yes"/>
      <point x="824" y="1100"/>
      <point x="874" y="1100"/>
      <point x="874" y="1160" type="curve" smooth="yes"/>
      <point x="874" y="1222"/>
      <point x="826" y="1222"/>
      <point x="794" y="1222" type="curve" smooth="yes"/>
      <point x="256" y="1222" type="line" smooth="yes"/>
      <point x="190" y="1222"/>
      <point x="176" y="1204"/>
      <point x="176" y="1140" type="curve" smooth="yes"/>
      <point x="176" y="608" type="line" smooth="yes"/>
      <point x="176" y="572"/>
      <point x="176" y="526"/>
      <point x="240" y="526" type="curve" smooth="yes"/>
      <point x="276" y="526"/>
      <point x="284" y="536"/>
      <point x="300" y="556" type="curve" smooth="yes"/>
      <point x="354" y="620"/>
      <point x="436" y="656"/>
      <point x="552" y="656" type="curve" smooth="yes"/>
      <point x="716" y="656"/>
      <point x="806" y="510"/>
      <point x="806" y="380" type="curve" smooth="yes"/>
      <point x="806" y="220"/>
      <point x="664" y="100"/>
      <point x="496" y="100" type="curve" smooth="yes"/>
      <point x="440" y="100"/>
      <point x="312" y="116"/>
      <point x="256" y="226" type="curve"/>
      <point x="266" y="236"/>
      <point x="282" y="250"/>
      <point x="282" y="290" type="curve" smooth="yes"/>
      <point x="282" y="348"/>
      <point x="236" y="380"/>
      <point x="194" y="380" type="curve" smooth="yes"/>
      <point x="164" y="380"/>
      <point x="104" y="362"/>
      <point x="104" y="284" type="curve" smooth="yes"/>
      <point x="104" y="118"/>
      <point x="272" y="-22"/>
      <point x="496" y="-22" type="curve" smooth="yes"/>
      <point x="746" y="-22"/>
      <point x="944" y="158"/>
      <point x="944" y="380" type="curve" smooth="yes"/>
      <point x="944" y="582"/>
      <point x="790" y="778"/>
      <point x="554" y="778" type="curve" smooth="yes"/>
      <point x="484" y="778"/>
      <point x="396" y="764"/>
      <point x="314" y="720" type="curve"/>
      <point x="314" y="1100" type="line"/>
    </contour>
  </outline>
</glyph>
<glyph name="six" format="2">
  <advance width="1050"/>
  <unicode hex="0036"/>
  <outline>
    <contour>
      <point x="248" y="676" type="curve"/>
      <point x="276" y="958"/>
      <point x="464" y="1122"/>
      <point x="640" y="1122" type="curve" smooth="yes"/>
      <point x="708" y="1122"/>
      <point x="740" y="1100"/>
      <point x="750" y="1090" type="curve"/>
      <point x="740" y="1080"/>
      <point x="730" y="1068"/>
      <point x="730" y="1032" type="curve" smooth="yes"/>
      <point x="730" y="984"/>
      <point x="766" y="944"/>
      <point x="818" y="944" type="curve" smooth="yes"/>
      <point x="868" y="944"/>
      <point x="908" y="978"/>
      <point x="908" y="1038" type="curve" smooth="yes"/>
      <point x="908" y="1136"/>
      <point x="836" y="1244"/>
      <point x="642" y="1244" type="curve" smooth="yes"/>
      <point x="374" y="1244"/>
      <point x="106" y="1002"/>
      <point x="106" y="598" type="curve" smooth="yes"/>
      <point x="106" y="124"/>
      <point x="330" y="-22"/>
      <point x="528" y="-22" type="curve" smooth="yes"/>
      <point x="746" y="-22"/>
      <point x="942" y="146"/>
      <point x="942" y="386" type="curve" smooth="yes"/>
      <point x="942" y="614"/>
      <point x="766" y="792"/>
      <point x="546" y="792" type="curve" smooth="yes"/>
      <point x="442" y="792"/>
      <point x="338" y="758"/>
    </contour>
    <contour>
      <point x="528" y="100" type="curve" smooth="yes"/>
      <point x="398" y="100"/>
      <point x="320" y="198"/>
      <point x="280" y="320" type="curve" smooth="yes"/>
      <point x="274" y="336"/>
      <point x="264" y="391"/>
      <point x="264" y="444" type="curve" smooth="yes"/>
      <point x="264" y="568"/>
      <point x="384" y="668"/>
      <point x="536" y="668" type="curve" smooth="yes"/>
      <point x="698" y="668"/>
      <point x="804" y="534"/>
      <point x="804" y="386" type="curve" smooth="yes"/>
      <point x="804" y="214"/>
      <point x="672" y="100"/>
    </contour>
  </outline>
</glyph>
<glyph name="seven" format="2">
  <advance width="1050"/>
  <unicode hex="0037"/>
  <outline>
    <contour>
      <point x="754" y="1100" type="line"/>
      <point x="408" y="732"/>
      <point x="340" y="292"/>
      <point x="340" y="72" type="curve" smooth="yes"/>
      <point x="340" y="44"/>
      <point x="340" y="-22"/>
      <point x="410" y="-22" type="curve" smooth="yes"/>
      <point x="444" y="-22"/>
      <point x="478" y="0"/>
      <point x="478" y="58" type="curve" smooth="yes"/>
      <point x="488" y="626"/>
      <point x="794" y="974"/>
      <point x="916" y="1092" type="curve" smooth="yes"/>
      <point x="956" y="1128"/>
      <point x="960" y="1132"/>
      <point x="960" y="1160" type="curve" smooth="yes"/>
      <point x="960" y="1222"/>
      <point x="912" y="1222"/>
      <point x="880" y="1222" type="curve" smooth="yes"/>
      <point x="220" y="1222" type="line"/>
      <point x="208" y="1254"/>
      <point x="172" y="1254"/>
      <point x="156" y="1254" type="curve" smooth="yes"/>
      <point x="88" y="1254"/>
      <point x="88" y="1210"/>
      <point x="88" y="1172" type="curve" smooth="yes"/>
      <point x="88" y="1088" type="line" smooth="yes"/>
      <point x="88" y="1050"/>
      <point x="88" y="1006"/>
      <point x="156" y="1006" type="curve" smooth="yes"/>
      <point x="226" y="1006"/>
      <point x="226" y="1044"/>
      <point x="226" y="1100" type="curve"/>
    </contour>
  </outline>
</glyph>
<glyph name="eight" format="2">
  <advance width="1050"/>
  <unicode hex="0038"/>
  <outline>
    <contour>
      <point x="682" y="658" type="curve"/>
      <point x="842" y="712"/>
      <point x="932" y="810"/>
      <point x="932" y="924" type="curve" smooth="yes"/>
      <point x="932" y="1088"/>
      <point x="762" y="1244"/>
      <point x="524" y="1244" type="curve" smooth="yes"/>
      <point x="284" y="1244"/>
      <point x="116" y="1086"/>
      <point x="116" y="924" type="curve" smooth="yes"/>
      <point x="116" y="810"/>
      <point x="208" y="710"/>
      <point x="366" y="658" type="curve"/>
      <point x="216" y="616"/>
      <point x="88" y="498"/>
      <point x="88" y="348" type="curve" smooth="yes"/>
      <point x="88" y="154"/>
      <point x="274" y="-22"/>
      <point x="524" y="-22" type="curve" smooth="yes"/>
      <point x="776" y="-22"/>
      <point x="960" y="154"/>
      <point x="960" y="348" type="curve" smooth="yes"/>
      <point x="960" y="498"/>
      <point x="830" y="616"/>
    </contour>
    <contour>
      <point x="524" y="720" type="curve" smooth="yes"/>
      <point x="378" y="720"/>
      <point x="254" y="810"/>
      <point x="254" y="922" type="curve" smooth="yes"/>
      <point x="254" y="1026"/>
      <point x="366" y="1122"/>
      <point x="524" y="1122" type="curve" smooth="yes"/>
      <point x="680" y="1122"/>
      <point x="794" y="1026"/>
      <point x="794" y="922" type="curve" smooth="yes"/>
      <point x="794" y="808"/>
      <point x="670" y="720"/>
    </contour>
    <contour>
      <point x="524" y="100" type="curve" smooth="yes"/>
      <point x="358" y="100"/>
      <point x="226" y="212"/>
      <point x="226" y="350" type="curve" smooth="yes"/>
      <point x="226" y="472"/>
      <point x="342" y="598"/>
      <point x="524" y="598" type="curve" smooth="yes"/>
      <point x="708" y="598"/>
      <point x="822" y="472"/>
      <point x="822" y="350" type="curve" smooth="yes"/>
      <point x="822" y="212"/>
      <point x="690" y="100"/>
    </contour>
  </outline>
</glyph>
<glyph name="nine" format="2">
	<unicode hex="0039"/>
	<advance width="525"/>
	<outline>
		<contour>
			<point x="400" y="273" type="curve"/>
			<point x="390" y="149"/>
			<point x="312" y="50"/>
			<point x="216" y="50" type="curve" smooth="yes"/>
			<point x="207" y="50"/>
			<point x="171" y="51"/>
			<point x="150" y="67" type="curve"/>
			<point x="154" y="72"/>
			<point x="159" y="78"/>
			<point x="159" y="95" type="curve" smooth="yes"/>
			<point x="159" y="119"/>
			<point x="141" y="139"/>
			<point x="115" y="139" type="curve" smooth="yes"/>
			<point x="90" y="139"/>
			<point x="70" y="122"/>
			<point x="70" y="92" type="curve" smooth="yes"/>
			<point x="70" y="60"/>
			<point x="88" y="-11"/>
			<point x="216" y="-11" type="curve" smooth="yes"/>
			<point x="348" y="-11"/>
			<point x="471" y="114"/>
			<point x="471" y="312" type="curve" smooth="yes"/>
			<point x="471" y="553"/>
			<point x="360" y="622"/>
			<point x="265" y="622" type="curve" smooth="yes"/>
			<point x="154" y="622"/>
			<point x="53" y="539"/>
			<point x="53" y="418" type="curve" smooth="yes"/>
			<point x="53" y="304"/>
			<point x="141" y="215"/>
			<point x="251" y="215" type="curve" smooth="yes"/>
			<point x="303" y="215"/>
			<point x="355" y="232"/>
		</contour>
		<contour>
			<point x="256" y="277" type="curve" smooth="yes"/>
			<point x="175" y="277"/>
			<point x="122" y="344"/>
			<point x="122" y="418" type="curve" smooth="yes"/>
			<point x="122" y="505"/>
			<point x="193" y="561"/>
			<point x="265" y="561" type="curve" smooth="yes"/>
			<point x="347" y="561"/>
			<point x="384" y="479"/>
			<point x="391" y="418" type="curve" smooth="yes"/>
			<point x="392" y="408"/>
			<point x="393" y="398"/>
			<point x="393" y="389" type="curve" smooth="yes"/>
			<point x="393" y="334"/>
			<point x="339" y="277"/>
		</contour>
	</outline>
</glyph>
<glyph name="colon" format="2">
	<unicode hex="003A"/>
	<advance width="525"/>
	<outline>
		<contour>
			<point x="325" y="368" type="curve" smooth="yes"/>
			<point x="325" y="405"/>
			<point x="295" y="431"/>
			<point x="263" y="431" type="curve" smooth="yes"/>
			<point x="225" y="431"/>
			<point x="200" y="400"/>
			<point x="200" y="369" type="curve" smooth="yes"/>
			<point x="200" y="332"/>
			<point x="230" y="306"/>
			<point x="262" y="306" type="curve" smooth="yes"/>
			<point x="300" y="306"/>
			<point x="325" y="337"/>
		</contour>
		<contour>
			<point x="325" y="62" type="curve" smooth="yes"/>
			<point x="325" y="99"/>
			<point x="295" y="125"/>
			<point x="263" y="125" type="curve" smooth="yes"/>
			<point x="225" y="125"/>
			<point x="200" y="94"/>
			<point x="200" y="63" type="curve" smooth="yes"/>
			<point x="200" y="26"/>
			<point x="230" y="0"/>
			<point x="262" y="0" type="curve" smooth="yes"/>
			<point x="300" y="0"/>
			<point x="325" y="31"/>
		</contour>
	</outline>
</glyph>
<glyph name="semicolon" format="2">
  <advance width="1050"/>
  <unicode hex="003B"/>
  <outline>
    <contour>
      <point x="650" y="736" type="curve" smooth="yes"/>
      <point x="650" y="810"/>
      <point x="590" y="862"/>
      <point x="526" y="862" type="curve" smooth="yes"/>
      <point x="450" y="862"/>
      <point x="400" y="800"/>
      <point x="400" y="738" type="curve" smooth="yes"/>
      <point x="400" y="664"/>
      <point x="460" y="612"/>
      <point x="524" y="612" type="curve" smooth="yes"/>
      <point x="600" y="612"/>
      <point x="650" y="674"/>
    </contour>
    <contour>
      <point x="532" y="0" type="curve"/>
      <point x="506" y="-108"/>
      <point x="430" y="-146"/>
      <point x="400" y="-162" type="curve" smooth="yes"/>
      <point x="388" y="-168"/>
      <point x="360" y="-182"/>
      <point x="360" y="-214" type="curve" smooth="yes"/>
      <point x="360" y="-244"/>
      <point x="390" y="-278"/>
      <point x="424" y="-278" type="curve" smooth="yes"/>
      <point x="468" y="-278"/>
      <point x="660" y="-170"/>
      <point x="660" y="54" type="curve" smooth="yes"/>
      <point x="660" y="186"/>
      <point x="600" y="250"/>
      <point x="524" y="250" type="curve" smooth="yes"/>
      <point x="452" y="250"/>
      <point x="400" y="194"/>
      <point x="400" y="126" type="curve" smooth="yes"/>
      <point x="400" y="70"/>
      <point x="434" y="0"/>
    </contour>
  </outline>
</glyph>
<glyph name="less" format="2">
  <advance width="525"/>
  <unicode hex="003C"/>
  <outline>
    <contour>
      <point x="444" y="487" type="line" smooth="yes"/>
      <point x="455" y="494"/>
      <point x="468" y="502"/>
      <point x="468" y="521" type="curve" smooth="yes"/>
      <point x="468" y="544"/>
      <point x="449" y="556"/>
      <point x="433" y="556" type="curve" smooth="yes"/>
      <point x="424" y="556"/>
      <point x="421" y="555"/>
      <point x="407" y="546" type="curve" smooth="yes"/>
      <point x="78" y="339" type="line" smooth="yes"/>
      <point x="69" y="333"/>
      <point x="56" y="325"/>
      <point x="56" y="306" type="curve" smooth="yes"/>
      <point x="56" y="293"/>
      <point x="64" y="282"/>
      <point x="74" y="275" type="curve"/>
      <point x="407" y="66" type="line" smooth="yes"/>
      <point x="421" y="57"/>
      <point x="424" y="56"/>
      <point x="433" y="56" type="curve" smooth="yes"/>
      <point x="449" y="56"/>
      <point x="468" y="68"/>
      <point x="468" y="91" type="curve" smooth="yes"/>
      <point x="468" y="110"/>
      <point x="455" y="118"/>
      <point x="444" y="125" type="curve" smooth="yes"/>
      <point x="157" y="306" type="line"/>
    </contour>
  </outline>
</glyph>
<glyph name="equal" format="2">
  <advance width="1050"/>
  <unicode hex="003D"/>
  <outline>
    <contour>
      <point x="882" y="694" type="line" smooth="yes"/>
      <point x="906" y="694"/>
      <point x="972" y="694"/>
      <point x="972" y="764" type="curve" smooth="yes"/>
      <point x="972" y="834"/>
      <point x="898" y="834"/>
      <point x="870" y="834" type="curve" smooth="yes"/>
      <point x="178" y="834" type="line" smooth="yes"/>
      <point x="150" y="834"/>
      <point x="76" y="834"/>
      <point x="76" y="764" type="curve" smooth="yes"/>
      <point x="76" y="694"/>
      <point x="142" y="694"/>
      <point x="166" y="694" type="curve" smooth="yes"/>
    </contour>
    <contour>
      <point x="870" y="390" type="line" smooth="yes"/>
      <point x="898" y="390"/>
      <point x="972" y="390"/>
      <point x="972" y="460" type="curve" smooth="yes"/>
      <point x="972" y="530"/>
      <point x="906" y="530"/>
      <point x="882" y="530" type="curve" smooth="yes"/>
      <point x="166" y="530" type="line" smooth="yes"/>
      <point x="142" y="530"/>
      <point x="76" y="530"/>
      <point x="76" y="460" type="curve" smooth="yes"/>
      <point x="76" y="390"/>
      <point x="150" y="390"/>
      <point x="178" y="390" type="curve" smooth="yes"/>
    </contour>
  </outline>
</glyph>
<glyph name="greater" format="2">
  <advance width="1050"/>
  <unicode hex="003E"/>
  <outline>
    <contour>
      <point x="734" y="612" type="line"/>
      <point x="160" y="250" type="line" smooth="yes"/>
      <point x="138" y="236"/>
      <point x="112" y="220"/>
      <point x="112" y="182" type="curve" smooth="yes"/>
      <point x="112" y="136"/>
      <point x="150" y="112"/>
      <point x="182" y="112" type="curve" smooth="yes"/>
      <point x="200" y="112"/>
      <point x="206" y="114"/>
      <point x="234" y="132" type="curve" smooth="yes"/>
      <point x="892" y="546" type="line" smooth="yes"/>
      <point x="910" y="558"/>
      <point x="936" y="574"/>
      <point x="936" y="612" type="curve" smooth="yes"/>
      <point x="936" y="638"/>
      <point x="920" y="660"/>
      <point x="900" y="674" type="curve"/>
      <point x="234" y="1092" type="line" smooth="yes"/>
      <point x="206" y="1110"/>
      <point x="200" y="1112"/>
      <point x="182" y="1112" type="curve" smooth="yes"/>
      <point x="150" y="1112"/>
      <point x="112" y="1088"/>
      <point x="112" y="1042" type="curve" smooth="yes"/>
      <point x="112" y="1004"/>
      <point x="138" y="988"/>
      <point x="160" y="974" type="curve" smooth="yes"/>
    </contour>
  </outline>
</glyph>
<glyph name="question" format="2">
	<unicode hex="003F"/>
	<advance width="525"/>
	<outline>
		<contour>
			<point x="287" y="241" type="line" smooth="yes"/>
			<point x="287" y="288"/>
			<point x="303" y="345"/>
			<point x="396" y="396" type="curve" smooth="yes"/>
			<point x="425" y="412"/>
			<point x="462" y="441"/>
			<point x="462" y="493" type="curve" smooth="yes"/>
			<point x="462" y="530"/>
			<point x="437" y="617"/>
			<point x="252" y="617" type="curve" smooth="yes"/>
			<point x="111" y="617"/>
			<point x="62" y="551"/>
			<point x="62" y="495" type="curve" smooth="yes"/>
			<point x="62" y="463"/>
			<point x="86" y="448"/>
			<point x="107" y="448" type="curve" smooth="yes"/>
			<point x="128" y="448"/>
			<point x="151" y="465"/>
			<point x="151" y="493" type="curve" smooth="yes"/>
			<point x="151" y="505"/>
			<point x="146" y="515"/>
			<point x="141" y="521" type="curve"/>
			<point x="166" y="549"/>
			<point x="213" y="556"/>
			<point x="252" y="556" type="curve" smooth="yes"/>
			<point x="354" y="556"/>
			<point x="393" y="524"/>
			<point x="393" y="493" type="curve" smooth="yes"/>
			<point x="393" y="467"/>
			<point x="371" y="455"/>
			<point x="352" y="445" type="curve" smooth="yes"/>
			<point x="207" y="365"/>
			<point x="207" y="276"/>
			<point x="207" y="236" type="curve" smooth="yes"/>
			<point x="207" y="197"/>
			<point x="207" y="184"/>
			<point x="247" y="184" type="curve" smooth="yes"/>
			<point x="277" y="184"/>
			<point x="287" y="190"/>
			<point x="287" y="224" type="curve" smooth="yes"/>
		</contour>
		<contour>
			<point x="297" y="50" type="curve" smooth="yes"/>
			<point x="297" y="78"/>
			<point x="275" y="100"/>
			<point x="247" y="100" type="curve" smooth="yes"/>
			<point x="219" y="100"/>
			<point x="197" y="78"/>
			<point x="197" y="50" type="curve" smooth="yes"/>
			<point x="197" y="22"/>
			<point x="219" y="0"/>
			<point x="247" y="0" type="curve" smooth="yes"/>
			<point x="275" y="0"/>
			<point x="297" y="22"/>
		</contour>
	</outline>
</glyph>
<glyph name="at" format="2">
	<unicode hex="0040"/>
	<advance width="525"/>
	<outline>
		<contour>
			<point x="400" y="485" type="curve"/>
			<point x="397" y="487"/>
			<point x="369" y="505"/>
			<point x="336" y="505" type="curve" smooth="yes"/>
			<point x="256" y="505"/>
			<point x="191" y="419"/>
			<point x="191" y="306" type="curve" smooth="yes"/>
			<point x="191" y="187"/>
			<point x="261" y="106"/>
			<point x="335" y="106" type="curve" smooth="yes"/>
			<point x="384" y="106"/>
			<point x="480" y="148"/>
			<point x="480" y="321" type="curve" smooth="yes"/>
			<point x="480" y="386"/>
			<point x="480" y="617"/>
			<point x="304" y="617" type="curve" smooth="yes"/>
			<point x="168" y="617"/>
			<point x="44" y="486"/>
			<point x="44" y="306" type="curve" smooth="yes"/>
			<point x="44" y="127"/>
			<point x="166" y="-6"/>
			<point x="306" y="-6" type="curve" smooth="yes"/>
			<point x="396" y="-6"/>
			<point x="480" y="51"/>
			<point x="480" y="80" type="curve" smooth="yes"/>
			<point x="480" y="108"/>
			<point x="452" y="108"/>
			<point x="442" y="108" type="curve" smooth="yes"/>
			<point x="425" y="108"/>
			<point x="422" y="108"/>
			<point x="412" y="98" type="curve" smooth="yes"/>
			<point x="377" y="66"/>
			<point x="339" y="55"/>
			<point x="305" y="55" type="curve" smooth="yes"/>
			<point x="197" y="55"/>
			<point x="100" y="163"/>
			<point x="100" y="305" type="curve" smooth="yes"/>
			<point x="100" y="454"/>
			<point x="201" y="556"/>
			<point x="304" y="556" type="curve" smooth="yes"/>
			<point x="332" y="556"/>
			<point x="377" y="546"/>
		</contour>
		<contour>
			<point x="336" y="167" type="curve" smooth="yes"/>
			<point x="289" y="167"/>
			<point x="247" y="227"/>
			<point x="247" y="305" type="curve" smooth="yes"/>
			<point x="247" y="389"/>
			<point x="293" y="444"/>
			<point x="335" y="444" type="curve" smooth="yes"/>
			<point x="380" y="444"/>
			<point x="424" y="386"/>
			<point x="424" y="305" type="curve" smooth="yes"/>
			<point x="424" y="224"/>
			<point x="379" y="167"/>
		</contour>
	</outline>
</glyph>
<glyph name="A" format="2">
  <advance width="1050"/>
  <unicode hex="0041"/>
  <outline>
    <contour>
      <point x="632" y="1168" type="line" smooth="yes"/>
      <point x="614" y="1244"/>
      <point x="586" y="1246"/>
      <point x="524" y="1246" type="curve"/>
      <point x="524" y="1246" type="line"/>
      <point x="466" y="1246"/>
      <point x="434" y="1246"/>
      <point x="416" y="1170" type="curve" smooth="yes"/>
      <point x="174" y="122" type="line"/>
      <point x="146" y="122"/>
      <point x="100" y="122"/>
      <point x="88" y="118" type="curve"/>
      <point x="66" y="106"/>
      <point x="54" y="86"/>
      <point x="54" y="60" type="curve" smooth="yes"/>
      <point x="54" y="0"/>
      <point x="106" y="0"/>
      <point x="140" y="0" type="curve" smooth="yes"/>
      <point x="344" y="0" type="line" smooth="yes"/>
      <point x="380" y="0"/>
      <point x="428" y="0"/>
      <point x="428" y="60" type="curve" smooth="yes"/>
      <point x="428" y="122"/>
      <point x="388" y="122"/>
      <point x="316" y="122" type="curve"/>
      <point x="362" y="330" type="line"/>
      <point x="686" y="330" type="line"/>
      <point x="732" y="122" type="line"/>
      <point x="660" y="122"/>
      <point x="620" y="122"/>
      <point x="620" y="60" type="curve" smooth="yes"/>
      <point x="620" y="0"/>
      <point x="668" y="0"/>
      <point x="704" y="0" type="curve" smooth="yes"/>
      <point x="908" y="0" type="line" smooth="yes"/>
      <point x="942" y="0"/>
      <point x="994" y="0"/>
      <point x="994" y="60" type="curve" smooth="yes"/>
      <point x="994" y="86"/>
      <point x="984" y="106"/>
      <point x="960" y="116" type="curve"/>
      <point x="948" y="122"/>
      <point x="904" y="122"/>
      <point x="874" y="122" type="curve"/>
    </contour>
    <contour>
      <point x="656" y="452" type="line"/>
      <point x="392" y="452" type="line"/>
      <point x="436" y="662"/>
      <point x="480" y="873"/>
      <point x="524" y="1084" type="curve"/>
      <point x="526" y="1084" type="line"/>
      <point x="534" y="1050"/>
      <point x="542" y="1012"/>
      <point x="548" y="978" type="curve" smooth="yes"/>
    </contour>
  </outline>
</glyph>
<glyph name="B" format="2">
	<unicode hex="0042"/>
	<advance width="525"/>
	<outline>
		<contour>
			<point x="63" y="611" type="line" smooth="yes"/>
			<point x="49" y="611"/>
			<point x="23" y="611"/>
			<point x="23" y="581" type="curve" smooth="yes"/>
			<point x="23" y="550"/>
			<point x="48" y="550"/>
			<point x="64" y="550" type="curve" smooth="yes"/>
			<point x="91" y="550" type="line"/>
			<point x="91" y="61" type="line"/>
			<point x="64" y="61" type="line" smooth="yes"/>
			<point x="48" y="61"/>
			<point x="23" y="61"/>
			<point x="23" y="30" type="curve" smooth="yes"/>
			<point x="23" y="0"/>
			<point x="49" y="0"/>
			<point x="63" y="0" type="curve" smooth="yes"/>
			<point x="309" y="0" type="line" smooth="yes"/>
			<point x="422" y="0"/>
			<point x="482" y="89"/>
			<point x="482" y="167" type="curve" smooth="yes"/>
			<point x="482" y="236"/>
			<point x="434" y="301"/>
			<point x="353" y="320" type="curve"/>
			<point x="417" y="342"/>
			<point x="461" y="394"/>
			<point x="461" y="456" type="curve" smooth="yes"/>
			<point x="461" y="529"/>
			<point x="400" y="611"/>
			<point x="289" y="611" type="curve" smooth="yes"/>
		</contour>
		<contour>
			<point x="160" y="348" type="line"/>
			<point x="160" y="550" type="line"/>
			<point x="285" y="550" type="line" smooth="yes"/>
			<point x="370" y="550"/>
			<point x="392" y="488"/>
			<point x="392" y="455" type="curve" smooth="yes"/>
			<point x="392" y="414"/>
			<point x="360" y="348"/>
			<point x="263" y="348" type="curve" smooth="yes"/>
		</contour>
		<contour>
			<point x="160" y="61" type="line"/>
			<point x="160" y="287" type="line"/>
			<point x="298" y="287" type="line" smooth="yes"/>
			<point x="383" y="287"/>
			<point x="413" y="214"/>
			<point x="413" y="169" type="curve" smooth="yes"/>
			<point x="413" y="120"/>
			<point x="374" y="61"/>
			<point x="287" y="61" type="curve" smooth="yes"/>
		</contour>
	</outline>
</glyph>
<glyph name="C" format="2">
  <advance width="1050"/>
  <unicode hex="0043"/>
  <outline>
    <contour>
      <point x="80" y="612" type="curve" smooth="yes"/>
      <point x="80" y="246"/>
      <point x="304" y="-22"/>
      <point x="564" y="-22" type="curve" smooth="yes"/>
      <point x="796" y="-22"/>
      <point x="968" y="156"/>
      <point x="968" y="336" type="curve" smooth="yes"/>
      <point x="968" y="402"/>
      <point x="920" y="402"/>
      <point x="898" y="402" type="curve" smooth="yes"/>
      <point x="880" y="402"/>
      <point x="834" y="402"/>
      <point x="830" y="344" type="curve" smooth="yes"/>
      <point x="816" y="148"/>
      <point x="654" y="100"/>
      <point x="572" y="100" type="curve" smooth="yes"/>
      <point x="390" y="100"/>
      <point x="218" y="312"/>
      <point x="218" y="612" type="curve" smooth="yes"/>
      <point x="218" y="910"/>
      <point x="392" y="1122"/>
      <point x="570" y="1122" type="curve" smooth="yes"/>
      <point x="690" y="1122"/>
      <point x="800" y="1030"/>
      <point x="828" y="868" type="curve" smooth="yes"/>
      <point x="834" y="834"/>
      <point x="838" y="802"/>
      <point x="898" y="802" type="curve" smooth="yes"/>
      <point x="968" y="802"/>
      <point x="968" y="844"/>
      <point x="968" y="884" type="curve" smooth="yes"/>
      <point x="968" y="1162" type="line" smooth="yes"/>
      <point x="968" y="1194"/>
      <point x="968" y="1244"/>
      <point x="908" y="1244" type="curve" smooth="yes"/>
      <point x="872" y="1244"/>
      <point x="858" y="1224"/>
      <point x="850" y="1206" type="curve" smooth="yes"/>
      <point x="846" y="1198"/>
      <point x="838" y="1180"/>
      <point x="822" y="1148" type="curve"/>
      <point x="756" y="1204"/>
      <point x="664" y="1244"/>
      <point x="562" y="1244" type="curve" smooth="yes"/>
      <point x="304" y="1244"/>
      <point x="80" y="976"/>
    </contour>
  </outline>
</glyph>
<glyph name="D" format="2">
  <advance width="1050"/>
  <unicode hex="0044"/>
  <outline>
    <contour>
      <point x="120" y="1222" type="line" smooth="yes"/>
      <point x="88" y="1222"/>
      <point x="38" y="1222"/>
      <point x="38" y="1160" type="curve" smooth="yes"/>
      <point x="38" y="1100"/>
      <point x="90" y="1100"/>
      <point x="120" y="1100" type="curve" smooth="yes"/>
      <point x="164" y="1100" type="line"/>
      <point x="164" y="122" type="line"/>
      <point x="120" y="122" type="line" smooth="yes"/>
      <point x="88" y="122"/>
      <point x="38" y="122"/>
      <point x="38" y="60" type="curve" smooth="yes"/>
      <point x="38" y="0"/>
      <point x="90" y="0"/>
      <point x="120" y="0" type="curve" smooth="yes"/>
      <point x="532" y="0" type="line" smooth="yes"/>
      <point x="794" y="0"/>
      <point x="970" y="280"/>
      <point x="970" y="602" type="curve" smooth="yes"/>
      <point x="970" y="922"/>
      <point x="798" y="1222"/>
      <point x="532" y="1222" type="curve" smooth="yes"/>
    </contour>
    <contour>
      <point x="302" y="122" type="line"/>
      <point x="302" y="1100" type="line"/>
      <point x="494" y="1100" type="line" smooth="yes"/>
      <point x="720" y="1100"/>
      <point x="832" y="834"/>
      <point x="832" y="602" type="curve" smooth="yes"/>
      <point x="832" y="368"/>
      <point x="716" y="122"/>
      <point x="494" y="122" type="curve" smooth="yes"/>
    </contour>
  </outline>
</glyph>
<glyph name="E" format="2">
  <advance width="1050"/>
  <unicode hex="0045"/>
  <outline>
    <contour>
      <point x="332" y="572" type="line"/>
      <point x="594" y="572" type="line"/>
      <point x="594" y="490"/>
      <point x="594" y="458"/>
      <point x="664" y="458" type="curve" smooth="yes"/>
      <point x="732" y="458"/>
      <point x="732" y="502"/>
      <point x="732" y="540" type="curve" smooth="yes"/>
      <point x="732" y="726" type="line" smooth="yes"/>
      <point x="732" y="764"/>
      <point x="732" y="808"/>
      <point x="664" y="808" type="curve" smooth="yes"/>
      <point x="594" y="808"/>
      <point x="594" y="776"/>
      <point x="594" y="694" type="curve"/>
      <point x="332" y="694" type="line"/>
      <point x="332" y="1100" type="line"/>
      <point x="822" y="1100" type="line"/>
      <point x="822" y="994" type="line" smooth="yes"/>
      <point x="822" y="956"/>
      <point x="822" y="912"/>
      <point x="890" y="912" type="curve" smooth="yes"/>
      <point x="960" y="912"/>
      <point x="960" y="954"/>
      <point x="960" y="994" type="curve" smooth="yes"/>
      <point x="960" y="1140" type="line" smooth="yes"/>
      <point x="960" y="1202"/>
      <point x="948" y="1222"/>
      <point x="880" y="1222" type="curve" smooth="yes"/>
      <point x="134" y="1222" type="line" smooth="yes"/>
      <point x="104" y="1222"/>
      <point x="52" y="1222"/>
      <point x="52" y="1162" type="curve" smooth="yes"/>
      <point x="52" y="1100"/>
      <point x="104" y="1100"/>
      <point x="134" y="1100" type="curve" smooth="yes"/>
      <point x="194" y="1100" type="line"/>
      <point x="194" y="122" type="line"/>
      <point x="134" y="122" type="line" smooth="yes"/>
      <point x="102" y="122"/>
      <point x="52" y="122"/>
      <point x="52" y="60" type="curve" smooth="yes"/>
      <point x="52" y="0"/>
      <point x="104" y="0"/>
      <point x="134" y="0" type="curve" smooth="yes"/>
      <point x="924" y="0" type="line" smooth="yes"/>
      <point x="990" y="0"/>
      <point x="1004" y="18"/>
      <point x="1004" y="82" type="curve" smooth="yes"/>
      <point x="1004" y="260" type="line" smooth="yes"/>
      <point x="1004" y="298"/>
      <point x="1004" y="342"/>
      <point x="936" y="342" type="curve" smooth="yes"/>
      <point x="866" y="342"/>
      <point x="866" y="300"/>
      <point x="866" y="260" type="curve" smooth="yes"/>
      <point x="866" y="122" type="line"/>
      <point x="332" y="122" type="line"/>
    </contour>
  </outline>
</glyph>
<glyph name="F" format="2">
  <advance width="1050"/>
  <unicode hex="0046"/>
  <outline>
    <contour>
      <point x="342" y="550" type="line"/>
      <point x="614" y="550" type="line"/>
      <point x="614" y="468"/>
      <point x="614" y="436"/>
      <point x="684" y="436" type="curve" smooth="yes"/>
      <point x="752" y="436"/>
      <point x="752" y="480"/>
      <point x="752" y="518" type="curve" smooth="yes"/>
      <point x="752" y="704" type="line" smooth="yes"/>
      <point x="752" y="742"/>
      <point x="752" y="786"/>
      <point x="684" y="786" type="curve" smooth="yes"/>
      <point x="614" y="786"/>
      <point x="614" y="754"/>
      <point x="614" y="672" type="curve"/>
      <point x="342" y="672" type="line"/>
      <point x="342" y="1100" type="line"/>
      <point x="842" y="1100" type="line"/>
      <point x="842" y="994" type="line" smooth="yes"/>
      <point x="842" y="956"/>
      <point x="842" y="912"/>
      <point x="910" y="912" type="curve" smooth="yes"/>
      <point x="980" y="912"/>
      <point x="980" y="954"/>
      <point x="980" y="994" type="curve" smooth="yes"/>
      <point x="980" y="1140" type="line" smooth="yes"/>
      <point x="980" y="1202"/>
      <point x="968" y="1222"/>
      <point x="900" y="1222" type="curve" smooth="yes"/>
      <point x="138" y="1222" type="line" smooth="yes"/>
      <point x="106" y="1222"/>
      <point x="56" y="1222"/>
      <point x="56" y="1160" type="curve" smooth="yes"/>
      <point x="56" y="1100"/>
      <point x="108" y="1100"/>
      <point x="138" y="1100" type="curve" smooth="yes"/>
      <point x="204" y="1100" type="line"/>
      <point x="204" y="122" type="line"/>
      <point x="138" y="122" type="line" smooth="yes"/>
      <point x="106" y="122"/>
      <point x="56" y="122"/>
      <point x="56" y="60" type="curve" smooth="yes"/>
      <point x="56" y="0"/>
      <point x="108" y="0"/>
      <point x="138" y="0" type="curve" smooth="yes"/>
      <point x="446" y="0" type="line" smooth="yes"/>
      <point x="476" y="0"/>
      <point x="526" y="0"/>
      <point x="526" y="60" type="curve" smooth="yes"/>
      <point x="526" y="122"/>
      <point x="478" y="122"/>
      <point x="446" y="122" type="curve" smooth="yes"/>
      <point x="342" y="122" type="line"/>
    </contour>
  </outline>
</glyph>
<glyph name="G" format="2">
  <advance width="1050"/>
  <unicode hex="0047"/>
  <outline>
    <contour>
      <point x="898" y="418" type="line"/>
      <point x="946" y="418"/>
      <point x="992" y="418"/>
      <point x="992" y="480" type="curve" smooth="yes"/>
      <point x="992" y="540"/>
      <point x="940" y="540"/>
      <point x="910" y="540" type="curve" smooth="yes"/>
      <point x="672" y="540" type="line" smooth="yes"/>
      <point x="642" y="540"/>
      <point x="592" y="540"/>
      <point x="592" y="480" type="curve" smooth="yes"/>
      <point x="592" y="418"/>
      <point x="640" y="418"/>
      <point x="672" y="418" type="curve" smooth="yes"/>
      <point x="756" y="418" type="line"/>
      <point x="732" y="194"/>
      <point x="634" y="100"/>
      <point x="528" y="100" type="curve" smooth="yes"/>
      <point x="366" y="100"/>
      <point x="214" y="316"/>
      <point x="214" y="610" type="curve" smooth="yes"/>
      <point x="214" y="916"/>
      <point x="374" y="1122"/>
      <point x="530" y="1122" type="curve" smooth="yes"/>
      <point x="600" y="1122"/>
      <point x="726" y="1076"/>
      <point x="760" y="860" type="curve" smooth="yes"/>
      <point x="764" y="826"/>
      <point x="776" y="802"/>
      <point x="828" y="802" type="curve" smooth="yes"/>
      <point x="898" y="802"/>
      <point x="898" y="844"/>
      <point x="898" y="884" type="curve" smooth="yes"/>
      <point x="898" y="1162" type="line" smooth="yes"/>
      <point x="898" y="1194"/>
      <point x="898" y="1244"/>
      <point x="838" y="1244" type="curve" smooth="yes"/>
      <point x="804" y="1244"/>
      <point x="790" y="1228"/>
      <point x="776" y="1198" type="curve" smooth="yes"/>
      <point x="756" y="1154" type="line"/>
      <point x="686" y="1214"/>
      <point x="606" y="1244"/>
      <point x="522" y="1244" type="curve" smooth="yes"/>
      <point x="282" y="1244"/>
      <point x="76" y="974"/>
      <point x="76" y="612" type="curve" smooth="yes"/>
      <point x="76" y="244"/>
      <point x="284" y="-22"/>
      <point x="522" y="-22" type="curve" smooth="yes"/>
      <point x="636" y="-22"/>
      <point x="720" y="38"/>
      <point x="760" y="84" type="curve"/>
      <point x="760" y="40"/>
      <point x="760" y="0"/>
      <point x="830" y="0" type="curve" smooth="yes"/>
      <point x="898" y="0"/>
      <point x="898" y="44"/>
      <point x="898" y="82" type="curve" smooth="yes"/>
    </contour>
  </outline>
</glyph>
<glyph name="H" format="2">
  <advance width="1050"/>
  <unicode hex="0048"/>
  <outline>
    <contour>
      <point x="874" y="1100" type="line"/>
      <point x="924" y="1100" type="line" smooth="yes"/>
      <point x="954" y="1100"/>
      <point x="1004" y="1100"/>
      <point x="1004" y="1160" type="curve" smooth="yes"/>
      <point x="1004" y="1222"/>
      <point x="956" y="1222"/>
      <point x="924" y="1222" type="curve" smooth="yes"/>
      <point x="686" y="1222" type="line" smooth="yes"/>
      <point x="656" y="1222"/>
      <point x="606" y="1222"/>
      <point x="606" y="1162" type="curve" smooth="yes"/>
      <point x="606" y="1100"/>
      <point x="654" y="1100"/>
      <point x="686" y="1100" type="curve" smooth="yes"/>
      <point x="736" y="1100" type="line"/>
      <point x="736" y="696" type="line"/>
      <point x="312" y="696" type="line"/>
      <point x="312" y="1100" type="line"/>
      <point x="362" y="1100" type="line" smooth="yes"/>
      <point x="392" y="1100"/>
      <point x="442" y="1100"/>
      <point x="442" y="1160" type="curve" smooth="yes"/>
      <point x="442" y="1222"/>
      <point x="394" y="1222"/>
      <point x="362" y="1222" type="curve" smooth="yes"/>
      <point x="124" y="1222" type="line" smooth="yes"/>
      <point x="92" y="1222"/>
      <point x="44" y="1222"/>
      <point x="44" y="1160" type="curve" smooth="yes"/>
      <point x="44" y="1100"/>
      <point x="94" y="1100"/>
      <point x="124" y="1100" type="curve" smooth="yes"/>
      <point x="174" y="1100" type="line"/>
      <point x="174" y="122" type="line"/>
      <point x="124" y="122" type="line" smooth="yes"/>
      <point x="92" y="122"/>
      <point x="44" y="122"/>
      <point x="44" y="60" type="curve" smooth="yes"/>
      <point x="44" y="0"/>
      <point x="94" y="0"/>
      <point x="124" y="0" type="curve" smooth="yes"/>
      <point x="362" y="0" type="line" smooth="yes"/>
      <point x="392" y="0"/>
      <point x="442" y="0"/>
      <point x="442" y="60" type="curve" smooth="yes"/>
      <point x="442" y="122"/>
      <point x="394" y="122"/>
      <point x="362" y="122" type="curve" smooth="yes"/>
      <point x="312" y="122" type="line"/>
      <point x="312" y="574" type="line"/>
      <point x="736" y="574" type="line"/>
      <point x="736" y="122" type="line"/>
      <point x="686" y="122" type="line" smooth="yes"/>
      <point x="656" y="122"/>
      <point x="606" y="122"/>
      <point x="606" y="62" type="curve" smooth="yes"/>
      <point x="606" y="0"/>
      <point x="654" y="0"/>
      <point x="686" y="0" type="curve" smooth="yes"/>
      <point x="924" y="0" type="line" smooth="yes"/>
      <point x="954" y="0"/>
      <point x="1004" y="0"/>
      <point x="1004" y="60" type="curve" smooth="yes"/>
      <point x="1004" y="122"/>
      <point x="956" y="122"/>
      <point x="924" y="122" type="curve" smooth="yes"/>
      <point x="874" y="122" type="line"/>
    </contour>
  </outline>
</glyph>
<glyph name="I" format="2">
  <advance width="1050"/>
  <unicode hex="0049"/>
  <outline>
    <contour>
      <point x="594" y="1100" type="line"/>
      <point x="810" y="1100" type="line" smooth="yes"/>
      <point x="840" y="1100"/>
      <point x="892" y="1100"/>
      <point x="892" y="1160" type="curve" smooth="yes"/>
      <point x="892" y="1222"/>
      <point x="840" y="1222"/>
      <point x="810" y="1222" type="curve" smooth="yes"/>
      <point x="240" y="1222" type="line" smooth="yes"/>
      <point x="210" y="1222"/>
      <point x="158" y="1222"/>
      <point x="158" y="1162" type="curve" smooth="yes"/>
      <point x="158" y="1100"/>
      <point x="210" y="1100"/>
      <point x="240" y="1100" type="curve" smooth="yes"/>
      <point x="456" y="1100" type="line"/>
      <point x="456" y="122" type="line"/>
      <point x="240" y="122" type="line" smooth="yes"/>
      <point x="210" y="122"/>
      <point x="158" y="122"/>
      <point x="158" y="62" type="curve" smooth="yes"/>
      <point x="158" y="0"/>
      <point x="210" y="0"/>
      <point x="240" y="0" type="curve" smooth="yes"/>
      <point x="810" y="0" type="line" smooth="yes"/>
      <point x="840" y="0"/>
      <point x="892" y="0"/>
      <point x="892" y="60" type="curve" smooth="yes"/>
      <point x="892" y="122"/>
      <point x="840" y="122"/>
      <point x="810" y="122" type="curve" smooth="yes"/>
      <point x="594" y="122" type="line"/>
    </contour>
  </outline>
</glyph>
<glyph name="J" format="2">
  <advance width="1050"/>
  <unicode hex="004A"/>
  <outline>
    <contour>
      <point x="814" y="1100" type="line"/>
      <point x="874" y="1100" type="line" smooth="yes"/>
      <point x="906" y="1100"/>
      <point x="956" y="1100"/>
      <point x="956" y="1162" type="curve" smooth="yes"/>
      <point x="956" y="1222"/>
      <point x="904" y="1222"/>
      <point x="874" y="1222" type="curve" smooth="yes"/>
      <point x="512" y="1222" type="line" smooth="yes"/>
      <point x="482" y="1222"/>
      <point x="430" y="1222"/>
      <point x="430" y="1162" type="curve" smooth="yes"/>
      <point x="430" y="1100"/>
      <point x="482" y="1100"/>
      <point x="512" y="1100" type="curve" smooth="yes"/>
      <point x="676" y="1100" type="line"/>
      <point x="676" y="280" type="line" smooth="yes"/>
      <point x="676" y="110"/>
      <point x="512" y="100"/>
      <point x="474" y="100" type="curve" smooth="yes"/>
      <point x="458" y="100"/>
      <point x="362" y="100"/>
      <point x="304" y="152" type="curve"/>
      <point x="312" y="162"/>
      <point x="320" y="172"/>
      <point x="320" y="204" type="curve" smooth="yes"/>
      <point x="320" y="252"/>
      <point x="282" y="292"/>
      <point x="232" y="292" type="curve" smooth="yes"/>
      <point x="186" y="292"/>
      <point x="142" y="262"/>
      <point x="142" y="198" type="curve" smooth="yes"/>
      <point x="142" y="72"/>
      <point x="274" y="-22"/>
      <point x="474" y="-22" type="curve" smooth="yes"/>
      <point x="652" y="-22"/>
      <point x="814" y="86"/>
      <point x="814" y="268" type="curve" smooth="yes"/>
    </contour>
  </outline>
</glyph>
<glyph name="K" format="2">
	<unicode hex="004B"/>
	<advance width="525"/>
	<outline>
		<contour>
			<point x="276" y="358" type="line"/>
			<point x="428" y="550" type="line"/>
			<point x="464" y="550"/>
			<point x="485" y="550"/>
			<point x="485" y="581" type="curve" smooth="yes"/>
			<point x="485" y="611"/>
			<point x="458" y="611"/>
			<point x="444" y="611" type="curve" smooth="yes"/>
			<point x="356" y="611" type="line" smooth="yes"/>
			<point x="341" y="611"/>
			<point x="315" y="611"/>
			<point x="315" y="580" type="curve" smooth="yes"/>
			<point x="315" y="550"/>
			<point x="342" y="550"/>
			<point x="356" y="550" type="curve"/>
			<point x="145" y="284" type="line"/>
			<point x="145" y="550" type="line"/>
			<point x="167" y="550" type="line" smooth="yes"/>
			<point x="182" y="550"/>
			<point x="208" y="550"/>
			<point x="208" y="580" type="curve" smooth="yes"/>
			<point x="208" y="611"/>
			<point x="183" y="611"/>
			<point x="167" y="611" type="curve" smooth="yes"/>
			<point x="67" y="611" type="line" smooth="yes"/>
			<point x="52" y="611"/>
			<point x="26" y="611"/>
			<point x="26" y="581" type="curve" smooth="yes"/>
			<point x="26" y="550"/>
			<point x="51" y="550"/>
			<point x="67" y="550" type="curve" smooth="yes"/>
			<point x="89" y="550" type="line"/>
			<point x="89" y="61" type="line"/>
			<point x="67" y="61" type="line" smooth="yes"/>
			<point x="52" y="61"/>
			<point x="26" y="61"/>
			<point x="26" y="31" type="curve" smooth="yes"/>
			<point x="26" y="0"/>
			<point x="51" y="0"/>
			<point x="67" y="0" type="curve" smooth="yes"/>
			<point x="167" y="0" type="line" smooth="yes"/>
			<point x="182" y="0"/>
			<point x="208" y="0"/>
			<point x="208" y="30" type="curve" smooth="yes"/>
			<point x="208" y="61"/>
			<point x="183" y="61"/>
			<point x="167" y="61" type="curve" smooth="yes"/>
			<point x="145" y="61" type="line"/>
			<point x="145" y="194" type="line"/>
			<point x="238" y="311" type="line"/>
			<point x="378" y="61" type="line"/>
			<point x="364" y="61"/>
			<point x="338" y="61"/>
			<point x="338" y="31" type="curve" smooth="yes"/>
			<point x="338" y="0"/>
			<point x="363" y="0"/>
			<point x="379" y="0" type="curve" smooth="yes"/>
			<point x="454" y="0" type="line" smooth="yes"/>
			<point x="469" y="0"/>
			<point x="495" y="0"/>
			<point x="495" y="30" type="curve" smooth="yes"/>
			<point x="495" y="61"/>
			<point x="472" y="61"/>
			<point x="443" y="61" type="curve"/>
		</contour>
	</outline>
</glyph>
<glyph name="L" format="2">
  <advance width="1050"/>
  <unicode hex="004C"/>
  <outline>
    <contour>
      <point x="356" y="1100" type="line"/>
      <point x="468" y="1100" type="line" smooth="yes"/>
      <point x="496" y="1100"/>
      <point x="550" y="1100"/>
      <point x="550" y="1160" type="curve" smooth="yes"/>
      <point x="550" y="1222"/>
      <point x="498" y="1222"/>
      <point x="468" y="1222" type="curve" smooth="yes"/>
      <point x="144" y="1222" type="line" smooth="yes"/>
      <point x="112" y="1222"/>
      <point x="64" y="1222"/>
      <point x="64" y="1160" type="curve" smooth="yes"/>
      <point x="64" y="1100"/>
      <point x="114" y="1100"/>
      <point x="144" y="1100" type="curve" smooth="yes"/>
      <point x="218" y="1100" type="line"/>
      <point x="218" y="122" type="line"/>
      <point x="144" y="122" type="line" smooth="yes"/>
      <point x="112" y="122"/>
      <point x="64" y="122"/>
      <point x="64" y="60" type="curve" smooth="yes"/>
      <point x="64" y="0"/>
      <point x="114" y="0"/>
      <point x="144" y="0" type="curve" smooth="yes"/>
      <point x="896" y="0" type="line" smooth="yes"/>
      <point x="962" y="0"/>
      <point x="976" y="18"/>
      <point x="976" y="82" type="curve" smooth="yes"/>
      <point x="976" y="260" type="line" smooth="yes"/>
      <point x="976" y="300"/>
      <point x="976" y="342"/>
      <point x="908" y="342" type="curve" smooth="yes"/>
      <point x="838" y="342"/>
      <point x="838" y="302"/>
      <point x="838" y="260" type="curve" smooth="yes"/>
      <point x="838" y="122" type="line"/>
      <point x="356" y="122" type="line"/>
    </contour>
  </outline>
</glyph>
<glyph name="M" format="2">
  <advance width="1050"/>
  <unicode hex="004D"/>
  <outline>
    <contour>
      <point x="252" y="122" type="curve"/>
      <point x="252" y="1076" type="line"/>
      <point x="254" y="1076" type="line"/>
      <point x="262" y="1040"/>
      <point x="286" y="962"/>
      <point x="314" y="876" type="curve" smooth="yes"/>
      <point x="428" y="528"/>
      <point x="454" y="452"/>
      <point x="464" y="438" type="curve" smooth="yes"/>
      <point x="476" y="420"/>
      <point x="500" y="408"/>
      <point x="524" y="408" type="curve" smooth="yes"/>
      <point x="550" y="408"/>
      <point x="584" y="422"/>
      <point x="594" y="452" type="curve" smooth="yes"/>
      <point x="732" y="866" type="line" smooth="yes"/>
      <point x="762" y="958"/>
      <point x="786" y="1040"/>
      <point x="794" y="1076" type="curve"/>
      <point x="796" y="1076" type="line"/>
      <point x="796" y="122" type="line"/>
      <point x="732" y="122"/>
      <point x="690" y="122"/>
      <point x="690" y="60" type="curve" smooth="yes"/>
      <point x="690" y="0"/>
      <point x="740" y="0"/>
      <point x="770" y="0" type="curve" smooth="yes"/>
      <point x="934" y="0" type="line" smooth="yes"/>
      <point x="964" y="0"/>
      <point x="1014" y="0"/>
      <point x="1014" y="60" type="curve" smooth="yes"/>
      <point x="1014" y="122"/>
      <point x="972" y="122"/>
      <point x="908" y="122" type="curve"/>
      <point x="908" y="1100" type="line"/>
      <point x="972" y="1100"/>
      <point x="1014" y="1100"/>
      <point x="1014" y="1162" type="curve" smooth="yes"/>
      <point x="1014" y="1222"/>
      <point x="964" y="1222"/>
      <point x="934" y="1222" type="curve" smooth="yes"/>
      <point x="822" y="1222" type="line" smooth="yes"/>
      <point x="740" y="1222"/>
      <point x="732" y="1194"/>
      <point x="714" y="1142" type="curve" smooth="yes"/>
      <point x="580" y="738" type="line" smooth="yes"/>
      <point x="556" y="666"/>
      <point x="538" y="608"/>
      <point x="526" y="550" type="curve"/>
      <point x="524" y="550" type="line"/>
      <point x="518" y="578"/>
      <point x="498" y="646"/>
      <point x="472" y="726" type="curve" smooth="yes"/>
      <point x="324" y="1174" type="line" smooth="yes"/>
      <point x="308" y="1224"/>
      <point x="254" y="1222"/>
      <point x="226" y="1222" type="curve" smooth="yes"/>
      <point x="114" y="1222" type="line" smooth="yes"/>
      <point x="84" y="1222"/>
      <point x="34" y="1222"/>
      <point x="34" y="1162" type="curve" smooth="yes"/>
      <point x="34" y="1100"/>
      <point x="76" y="1100"/>
      <point x="140" y="1100" type="curve"/>
      <point x="140" y="122" type="line"/>
      <point x="76" y="122"/>
      <point x="34" y="122"/>
      <point x="34" y="60" type="curve" smooth="yes"/>
      <point x="34" y="0"/>
      <point x="84" y="0"/>
      <point x="114" y="0" type="curve" smooth="yes"/>
      <point x="278" y="0" type="line" smooth="yes"/>
      <point x="308" y="0"/>
      <point x="358" y="0"/>
      <point x="358" y="60" type="curve" smooth="yes"/>
      <point x="358" y="122"/>
      <point x="316" y="122"/>
    </contour>
  </outline>
</glyph>
<glyph name="N" format="2">
  <advance width="1050"/>
  <unicode hex="004E"/>
  <outline>
    <contour>
      <point x="620" y="1160" type="curve" smooth="yes"/>
      <point x="620" y="1100"/>
      <point x="670" y="1100"/>
      <point x="700" y="1100" type="curve" smooth="yes"/>
      <point x="750" y="1100" type="line"/>
      <point x="750" y="150" type="line"/>
      <point x="748" y="150" type="line"/>
      <point x="727" y="208"/>
      <point x="705" y="266"/>
      <point x="684" y="324" type="curve"/>
      <point x="380" y="1150" type="line" smooth="yes"/>
      <point x="356" y="1216"/>
      <point x="326" y="1222"/>
      <point x="272" y="1222" type="curve" smooth="yes"/>
      <point x="136" y="1222" type="line" smooth="yes"/>
      <point x="106" y="1222"/>
      <point x="56" y="1222"/>
      <point x="56" y="1162" type="curve" smooth="yes"/>
      <point x="56" y="1100"/>
      <point x="104" y="1100"/>
      <point x="136" y="1100" type="curve" smooth="yes"/>
      <point x="186" y="1100" type="line"/>
      <point x="186" y="122" type="line"/>
      <point x="136" y="122" type="line" smooth="yes"/>
      <point x="106" y="122"/>
      <point x="56" y="122"/>
      <point x="56" y="62" type="curve" smooth="yes"/>
      <point x="56" y="0"/>
      <point x="104" y="0"/>
      <point x="136" y="0" type="curve" smooth="yes"/>
      <point x="348" y="0" type="line" smooth="yes"/>
      <point x="378" y="0"/>
      <point x="428" y="0"/>
      <point x="428" y="60" type="curve" smooth="yes"/>
      <point x="428" y="122"/>
      <point x="380" y="122"/>
      <point x="348" y="122" type="curve" smooth="yes"/>
      <point x="298" y="122" type="line"/>
      <point x="298" y="1072" type="line"/>
      <point x="300" y="1072" type="line"/>
      <point x="329" y="992"/>
      <point x="359" y="912"/>
      <point x="388" y="832" type="curve"/>
      <point x="668" y="72" type="line" smooth="yes"/>
      <point x="694" y="2"/>
      <point x="726" y="0"/>
      <point x="778" y="0" type="curve" smooth="yes"/>
      <point x="838" y="0"/>
      <point x="862" y="6"/>
      <point x="862" y="82" type="curve" smooth="yes"/>
      <point x="862" y="1100" type="line"/>
      <point x="912" y="1100" type="line" smooth="yes"/>
      <point x="942" y="1100"/>
      <point x="992" y="1100"/>
      <point x="992" y="1160" type="curve" smooth="yes"/>
      <point x="992" y="1222"/>
      <point x="944" y="1222"/>
      <point x="912" y="1222" type="curve" smooth="yes"/>
      <point x="700" y="1222" type="line" smooth="yes"/>
      <point x="668" y="1222"/>
      <point x="620" y="1222"/>
    </contour>
  </outline>
</glyph>
<glyph name="O" format="2">
	<unicode hex="004F"/>
	<advance width="525"/>
	<outline>
		<contour>
			<point x="468" y="305" type="curve" smooth="yes"/>
			<point x="468" y="594"/>
			<point x="447" y="622"/>
			<point x="262" y="622" type="curve" smooth="yes"/>
			<point x="77" y="622"/>
			<point x="56" y="595"/>
			<point x="56" y="305" type="curve" smooth="yes"/>
			<point x="56" y="16"/>
			<point x="77" y="-11"/>
			<point x="262" y="-11" type="curve" smooth="yes"/>
			<point x="446" y="-11"/>
			<point x="468" y="16"/>
		</contour>
		<contour>
			<point x="262" y="50" type="curve" smooth="yes"/>
			<point x="174" y="50"/>
			<point x="149" y="71"/>
			<point x="137" y="121" type="curve" smooth="yes"/>
			<point x="125" y="172"/>
			<point x="125" y="259"/>
			<point x="125" y="314" type="curve" smooth="yes"/>
			<point x="125" y="376"/>
			<point x="125" y="444"/>
			<point x="136" y="490" type="curve" smooth="yes"/>
			<point x="149" y="549"/>
			<point x="180" y="561"/>
			<point x="262" y="561" type="curve" smooth="yes"/>
			<point x="337" y="561"/>
			<point x="372" y="552"/>
			<point x="387" y="497" type="curve" smooth="yes"/>
			<point x="399" y="450"/>
			<point x="399" y="375"/>
			<point x="399" y="314" type="curve" smooth="yes"/>
			<point x="399" y="252"/>
			<point x="399" y="181"/>
			<point x="388" y="127" type="curve" smooth="yes"/>
			<point x="377" y="71"/>
			<point x="351" y="50"/>
		</contour>
	</outline>
</glyph>
<glyph name="P" format="2">
  <advance width="525"/>
  <unicode hex="0050"/>
  <outline>
    <contour>
      <point x="166" y="245" type="line"/>
      <point x="291" y="245" type="line" smooth="yes"/>
      <point x="407" y="245"/>
      <point x="480" y="335"/>
      <point x="480" y="428" type="curve" smooth="yes"/>
      <point x="480" y="521"/>
      <point x="406" y="611"/>
      <point x="291" y="611" type="curve" smooth="yes"/>
      <point x="67" y="611" type="line" smooth="yes"/>
      <point x="52" y="611"/>
      <point x="26" y="611"/>
      <point x="26" y="581" type="curve" smooth="yes"/>
      <point x="26" y="550"/>
      <point x="52" y="550"/>
      <point x="67" y="550" type="curve" smooth="yes"/>
      <point x="97" y="550" type="line"/>
      <point x="97" y="61" type="line"/>
      <point x="67" y="61" type="line" smooth="yes"/>
      <point x="51" y="61"/>
      <point x="26" y="61"/>
      <point x="26" y="30" type="curve" smooth="yes"/>
      <point x="26" y="0"/>
      <point x="52" y="0"/>
      <point x="67" y="0" type="curve" smooth="yes"/>
      <point x="196" y="0" type="line" smooth="yes"/>
      <point x="211" y="0"/>
      <point x="237" y="0"/>
      <point x="237" y="30" type="curve" smooth="yes"/>
      <point x="237" y="61"/>
      <point x="211" y="61"/>
      <point x="196" y="61" type="curve" smooth="yes"/>
      <point x="166" y="61" type="line"/>
    </contour>
    <contour>
      <point x="166" y="550" type="line"/>
      <point x="272" y="550" type="line" smooth="yes"/>
      <point x="368" y="550"/>
      <point x="411" y="481"/>
      <point x="411" y="428" type="curve" smooth="yes"/>
      <point x="411" y="375"/>
      <point x="368" y="306"/>
      <point x="272" y="306" type="curve" smooth="yes"/>
      <point x="166" y="306" type="line"/>
    </contour>
  </outline>
</glyph>
<glyph name="Q" format="2">
  <advance width="525"/>
  <unicode hex="0051"/>
  <outline>
    <contour>
      <point x="423" y="-139" type="line" smooth="yes"/>
      <point x="438" y="-139"/>
      <point x="455" y="-139"/>
      <point x="455" y="-120" type="curve" smooth="yes"/>
      <point x="455" y="-114"/>
      <point x="435" y="-78"/>
      <point x="424" y="-56" type="curve"/>
      <point x="416" y="-43"/>
      <point x="398" y="-9"/>
      <point x="391" y="4" type="curve"/>
      <point x="435" y="22"/>
      <point x="453" y="57"/>
      <point x="462" y="138" type="curve" smooth="yes"/>
      <point x="468" y="192"/>
      <point x="468" y="259"/>
      <point x="468" y="305" type="curve" smooth="yes"/>
      <point x="468" y="594"/>
      <point x="447" y="622"/>
      <point x="262" y="622" type="curve" smooth="yes"/>
      <point x="77" y="622"/>
      <point x="56" y="595"/>
      <point x="56" y="305" type="curve" smooth="yes"/>
      <point x="56" y="16"/>
      <point x="77" y="-11"/>
      <point x="262" y="-11" type="curve" smooth="yes"/>
      <point x="275" y="-11"/>
      <point x="307" y="-11"/>
      <point x="318" y="-10" type="curve"/>
      <point x="324" y="-23"/>
      <point x="377" y="-123"/>
      <point x="379" y="-127" type="curve"/>
      <point x="387" y="-139"/>
      <point x="398" y="-139"/>
      <point x="414" y="-139" type="curve" smooth="yes"/>
    </contour>
    <contour>
      <point x="286" y="50" type="line"/>
      <point x="254" y="50" type="line" smooth="yes"/>
      <point x="164" y="50"/>
      <point x="144" y="78"/>
      <point x="134" y="132" type="curve" smooth="yes"/>
      <point x="125" y="183"/>
      <point x="125" y="251"/>
      <point x="125" y="305" type="curve" smooth="yes"/>
      <point x="125" y="361"/>
      <point x="125" y="438"/>
      <point x="135" y="486" type="curve" smooth="yes"/>
      <point x="148" y="541"/>
      <point x="170" y="561"/>
      <point x="262" y="561" type="curve" smooth="yes"/>
      <point x="351" y="561"/>
      <point x="379" y="544"/>
      <point x="390" y="479" type="curve" smooth="yes"/>
      <point x="399" y="428"/>
      <point x="399" y="360"/>
      <point x="399" y="306" type="curve" smooth="yes"/>
      <point x="399" y="97"/>
      <point x="379" y="83"/>
      <point x="357" y="68" type="curve"/>
      <point x="309" y="155" type="line" smooth="yes"/>
      <point x="300" y="170"/>
      <point x="299" y="171"/>
      <point x="279" y="171" type="curve" smooth="yes"/>
      <point x="268" y="171" type="line" smooth="yes"/>
      <point x="254" y="171"/>
      <point x="236" y="171"/>
      <point x="236" y="152" type="curve" smooth="yes"/>
      <point x="236" y="147"/>
      <point x="237" y="144"/>
      <point x="240" y="139" type="curve"/>
    </contour>
  </outline>
</glyph>
<glyph name="R" format="2">
  <advance width="1050"/>
  <unicode hex="0052"/>
  <outline>
    <contour>
      <point x="696" y="608" type="curve"/>
      <point x="828" y="682"/>
      <point x="866" y="804"/>
      <point x="866" y="886" type="curve" smooth="yes"/>
      <point x="866" y="1058"/>
      <point x="714" y="1222"/>
      <point x="478" y="1222" type="curve" smooth="yes"/>
      <point x="124" y="1222" type="line" smooth="yes"/>
      <point x="92" y="1222"/>
      <point x="44" y="1222"/>
      <point x="44" y="1160" type="curve" smooth="yes"/>
      <point x="44" y="1100"/>
      <point x="94" y="1100"/>
      <point x="124" y="1100" type="curve" smooth="yes"/>
      <point x="174" y="1100" type="line"/>
      <point x="174" y="122" type="line"/>
      <point x="124" y="122" type="line" smooth="yes"/>
      <point x="92" y="122"/>
      <point x="44" y="122"/>
      <point x="44" y="60" type="curve" smooth="yes"/>
      <point x="44" y="0"/>
      <point x="94" y="0"/>
      <point x="124" y="0" type="curve" smooth="yes"/>
      <point x="362" y="0" type="line" smooth="yes"/>
      <point x="392" y="0"/>
      <point x="442" y="0"/>
      <point x="442" y="60" type="curve" smooth="yes"/>
      <point x="442" y="122"/>
      <point x="394" y="122"/>
      <point x="362" y="122" type="curve" smooth="yes"/>
      <point x="312" y="122" type="line"/>
      <point x="312" y="550" type="line"/>
      <point x="468" y="550" type="line" smooth="yes"/>
      <point x="506" y="550"/>
      <point x="566" y="550"/>
      <point x="630" y="494" type="curve" smooth="yes"/>
      <point x="674" y="452"/>
      <point x="674" y="408"/>
      <point x="674" y="324" type="curve" smooth="yes"/>
      <point x="674" y="194"/>
      <point x="674" y="134"/>
      <point x="712" y="70" type="curve" smooth="yes"/>
      <point x="746" y="10"/>
      <point x="802" y="-22"/>
      <point x="870" y="-22" type="curve" smooth="yes"/>
      <point x="996" y="-22"/>
      <point x="1044" y="110"/>
      <point x="1044" y="186" type="curve" smooth="yes"/>
      <point x="1044" y="250"/>
      <point x="996" y="250"/>
      <point x="974" y="250" type="curve" smooth="yes"/>
      <point x="954" y="250"/>
      <point x="908" y="250"/>
      <point x="906" y="190" type="curve" smooth="yes"/>
      <point x="906" y="174"/>
      <point x="902" y="100"/>
      <point x="868" y="100" type="curve" smooth="yes"/>
      <point x="812" y="100"/>
      <point x="812" y="192"/>
      <point x="812" y="298" type="curve" smooth="yes"/>
      <point x="812" y="424"/>
      <point x="812" y="440"/>
      <point x="794" y="486" type="curve" smooth="yes"/>
      <point x="770" y="544"/>
      <point x="724" y="586"/>
    </contour>
    <contour>
      <point x="456" y="672" type="curve" smooth="yes"/>
      <point x="312" y="672" type="line"/>
      <point x="312" y="1100" type="line"/>
      <point x="456" y="1100" type="line" smooth="yes"/>
      <point x="640" y="1100"/>
      <point x="728" y="982"/>
      <point x="728" y="886" type="curve" smooth="yes"/>
      <point x="728" y="788"/>
      <point x="638" y="672"/>
    </contour>
  </outline>
</glyph>
<glyph name="S" format="2">
	<unicode hex="0053"/>
	<advance width="525"/>
	<outline>
		<contour>
			<point x="52" y="458" type="curve" smooth="yes"/>
			<point x="52" y="417"/>
			<point x="70" y="376"/>
			<point x="102" y="345" type="curve" smooth="yes"/>
			<point x="123" y="326"/>
			<point x="148" y="310"/>
			<point x="181" y="301" type="curve" smooth="yes"/>
			<point x="211" y="293"/>
			<point x="281" y="278"/>
			<point x="296" y="274" type="curve" smooth="yes"/>
			<point x="324" y="268"/>
			<point x="407" y="248"/>
			<point x="407" y="161" type="curve" smooth="yes"/>
			<point x="407" y="109"/>
			<point x="364" y="50"/>
			<point x="285" y="50" type="curve" smooth="yes"/>
			<point x="257" y="50"/>
			<point x="208" y="54"/>
			<point x="168" y="81" type="curve" smooth="yes"/>
			<point x="126" y="108"/>
			<point x="122" y="150"/>
			<point x="121" y="168" type="curve" smooth="yes"/>
			<point x="120" y="185"/>
			<point x="119" y="203"/>
			<point x="87" y="203" type="curve" smooth="yes"/>
			<point x="52" y="203"/>
			<point x="52" y="182"/>
			<point x="52" y="162" type="curve" smooth="yes"/>
			<point x="52" y="30" type="line" smooth="yes"/>
			<point x="52" y="14"/>
			<point x="52" y="-11"/>
			<point x="82" y="-11" type="curve" smooth="yes"/>
			<point x="104" y="-11"/>
			<point x="110" y="3"/>
			<point x="119" y="35" type="curve"/>
			<point x="159" y="5"/>
			<point x="220" y="-11"/>
			<point x="284" y="-11" type="curve" smooth="yes"/>
			<point x="400" y="-11"/>
			<point x="472" y="77"/>
			<point x="472" y="166" type="curve" smooth="yes"/>
			<point x="472" y="230"/>
			<point x="437" y="272"/>
			<point x="424" y="285" type="curve" smooth="yes"/>
			<point x="383" y="325"/>
			<point x="356" y="333"/>
			<point x="278" y="350" type="curve" smooth="yes"/>
			<point x="253.691" y="355.328"/>
			<point x="229.382" y="360.656"/>
			<point x="205" y="366" type="curve" smooth="yes"/>
			<point x="156" y="377"/>
			<point x="117" y="415"/>
			<point x="117" y="462" type="curve" smooth="yes"/>
			<point x="117" y="513"/>
			<point x="166" y="561"/>
			<point x="237" y="561" type="curve" smooth="yes"/>
			<point x="355" y="561"/>
			<point x="371" y="467"/>
			<point x="376" y="436" type="curve" smooth="yes"/>
			<point x="380" y="414"/>
			<point x="390" y="408"/>
			<point x="410" y="408" type="curve" smooth="yes"/>
			<point x="445" y="408"/>
			<point x="445" y="429"/>
			<point x="445" y="449" type="curve" smooth="yes"/>
			<point x="445" y="581" type="line" smooth="yes"/>
			<point x="445" y="597"/>
			<point x="445" y="622"/>
			<point x="415" y="622" type="curve" smooth="yes"/>
			<point x="391" y="622"/>
			<point x="386" y="605"/>
			<point x="378" y="575" type="curve"/>
			<point x="337" y="610"/>
			<point x="283" y="622"/>
			<point x="238" y="622" type="curve" smooth="yes"/>
			<point x="127" y="622"/>
			<point x="52" y="543"/>
		</contour>
	</outline>
</glyph>
<glyph name="T" format="2">
	<unicode hex="0054"/>
	<advance width="525"/>
	<outline>
		<contour>
			<point x="297" y="550" type="line"/>
			<point x="429" y="550" type="line"/>
			<point x="429" y="497" type="line" smooth="yes"/>
			<point x="429" y="478"/>
			<point x="429" y="456"/>
			<point x="463" y="456" type="curve" smooth="yes"/>
			<point x="498" y="456"/>
			<point x="498" y="477"/>
			<point x="498" y="497" type="curve" smooth="yes"/>
			<point x="498" y="570" type="line" smooth="yes"/>
			<point x="498" y="601"/>
			<point x="492" y="611"/>
			<point x="458" y="611" type="curve" smooth="yes"/>
			<point x="67" y="611" type="line" smooth="yes"/>
			<point x="34" y="611"/>
			<point x="26" y="603"/>
			<point x="26" y="570" type="curve" smooth="yes"/>
			<point x="26" y="497" type="line" smooth="yes"/>
			<point x="26" y="478"/>
			<point x="26" y="456"/>
			<point x="60" y="456" type="curve" smooth="yes"/>
			<point x="95" y="456"/>
			<point x="95" y="477"/>
			<point x="95" y="497" type="curve" smooth="yes"/>
			<point x="95" y="550" type="line"/>
			<point x="228" y="550" type="line"/>
			<point x="228" y="61" type="line"/>
			<point x="176" y="61" type="line" smooth="yes"/>
			<point x="161" y="61"/>
			<point x="136" y="61"/>
			<point x="136" y="31" type="curve" smooth="yes"/>
			<point x="136" y="0"/>
			<point x="160" y="0"/>
			<point x="176" y="0" type="curve" smooth="yes"/>
			<point x="349" y="0" type="line" smooth="yes"/>
			<point x="364" y="0"/>
			<point x="389" y="0"/>
			<point x="389" y="30" type="curve" smooth="yes"/>
			<point x="389" y="61"/>
			<point x="365" y="61"/>
			<point x="349" y="61" type="curve" smooth="yes"/>
			<point x="297" y="61" type="line"/>
		</contour>
	</outline>
</glyph>
<glyph name="U" format="2">
  <advance width="1050"/>
  <unicode hex="0055"/>
  <outline>
    <contour>
      <point x="898" y="1100" type="line"/>
      <point x="958" y="1100" type="line" smooth="yes"/>
      <point x="990" y="1100"/>
      <point x="1040" y="1100"/>
      <point x="1040" y="1162" type="curve" smooth="yes"/>
      <point x="1040" y="1222"/>
      <point x="988" y="1222"/>
      <point x="958" y="1222" type="curve" smooth="yes"/>
      <point x="700" y="1222" type="line" smooth="yes"/>
      <point x="670" y="1222"/>
      <point x="618" y="1222"/>
      <point x="618" y="1162" type="curve" smooth="yes"/>
      <point x="618" y="1100"/>
      <point x="670" y="1100"/>
      <point x="700" y="1100" type="curve" smooth="yes"/>
      <point x="760" y="1100" type="line"/>
      <point x="760" y="418" type="line" smooth="yes"/>
      <point x="760" y="204"/>
      <point x="628" y="100"/>
      <point x="524" y="100" type="curve" smooth="yes"/>
      <point x="418" y="100"/>
      <point x="288" y="204"/>
      <point x="288" y="418" type="curve" smooth="yes"/>
      <point x="288" y="1100" type="line"/>
      <point x="348" y="1100" type="line" smooth="yes"/>
      <point x="378" y="1100"/>
      <point x="430" y="1100"/>
      <point x="430" y="1162" type="curve" smooth="yes"/>
      <point x="430" y="1222"/>
      <point x="378" y="1222"/>
      <point x="348" y="1222" type="curve" smooth="yes"/>
      <point x="90" y="1222" type="line" smooth="yes"/>
      <point x="60" y="1222"/>
      <point x="8" y="1222"/>
      <point x="8" y="1162" type="curve" smooth="yes"/>
      <point x="8" y="1100"/>
      <point x="60" y="1100"/>
      <point x="90" y="1100" type="curve" smooth="yes"/>
      <point x="150" y="1100" type="line"/>
      <point x="150" y="408" type="line" smooth="yes"/>
      <point x="150" y="162"/>
      <point x="324" y="-22"/>
      <point x="524" y="-22" type="curve" smooth="yes"/>
      <point x="724" y="-22"/>
      <point x="898" y="162"/>
      <point x="898" y="408" type="curve" smooth="yes"/>
    </contour>
  </outline>
</glyph>
<glyph name="V" format="2">
  <advance width="1050"/>
  <unicode hex="0056"/>
  <outline>
    <contour>
      <point x="898" y="1100" type="line"/>
      <point x="970" y="1100"/>
      <point x="1012" y="1100"/>
      <point x="1012" y="1162" type="curve" smooth="yes"/>
      <point x="1012" y="1222"/>
      <point x="960" y="1222"/>
      <point x="930" y="1222" type="curve" smooth="yes"/>
      <point x="726" y="1222" type="line" smooth="yes"/>
      <point x="696" y="1222"/>
      <point x="644" y="1222"/>
      <point x="644" y="1162" type="curve" smooth="yes"/>
      <point x="644" y="1100"/>
      <point x="686" y="1100"/>
      <point x="756" y="1100" type="curve"/>
      <point x="602" y="488" type="line" smooth="yes"/>
      <point x="576" y="382"/>
      <point x="538" y="230"/>
      <point x="524" y="144" type="curve"/>
      <point x="522" y="144" type="line"/>
      <point x="512" y="214"/>
      <point x="504" y="248"/>
      <point x="486" y="322" type="curve" smooth="yes"/>
      <point x="292" y="1100" type="line"/>
      <point x="362" y="1100"/>
      <point x="404" y="1100"/>
      <point x="404" y="1162" type="curve" smooth="yes"/>
      <point x="404" y="1222"/>
      <point x="352" y="1222"/>
      <point x="322" y="1222" type="curve" smooth="yes"/>
      <point x="118" y="1222" type="line" smooth="yes"/>
      <point x="88" y="1222"/>
      <point x="36" y="1222"/>
      <point x="36" y="1162" type="curve" smooth="yes"/>
      <point x="36" y="1100"/>
      <point x="78" y="1100"/>
      <point x="150" y="1100" type="curve"/>
      <point x="414" y="60" type="line" smooth="yes"/>
      <point x="434" y="-16"/>
      <point x="466" y="-16"/>
      <point x="524" y="-16" type="curve" smooth="yes"/>
      <point x="578" y="-16"/>
      <point x="616" y="-16"/>
      <point x="634" y="58" type="curve" smooth="yes"/>
    </contour>
  </outline>
</glyph>
<glyph name="W" format="2">
  <advance width="1050"/>
  <unicode hex="0057"/>
  <outline>
    <contour>
      <point x="950" y="1100" type="line"/>
      <point x="972" y="1100"/>
      <point x="1026" y="1100"/>
      <point x="1026" y="1160" type="curve" smooth="yes"/>
      <point x="1026" y="1222"/>
      <point x="974" y="1222"/>
      <point x="944" y="1222" type="curve" smooth="yes"/>
      <point x="786" y="1222" type="line" smooth="yes"/>
      <point x="754" y="1222"/>
      <point x="706" y="1222"/>
      <point x="706" y="1160" type="curve" smooth="yes"/>
      <point x="706" y="1100"/>
      <point x="756" y="1100"/>
      <point x="786" y="1100" type="curve" smooth="yes"/>
      <point x="836" y="1100" type="line"/>
      <point x="748" y="434" type="line" smooth="yes"/>
      <point x="732" y="312"/>
      <point x="718" y="208"/>
      <point x="716" y="152" type="curve"/>
      <point x="714" y="152" type="line"/>
      <point x="702" y="280"/>
      <point x="608" y="676"/>
      <point x="606" y="688" type="curve"/>
      <point x="588" y="734"/>
      <point x="542" y="734"/>
      <point x="524" y="734" type="curve" smooth="yes"/>
      <point x="504" y="734"/>
      <point x="464" y="734"/>
      <point x="444" y="690" type="curve" smooth="yes"/>
      <point x="438" y="676"/>
      <point x="344" y="276"/>
      <point x="334" y="152" type="curve"/>
      <point x="332" y="152" type="line"/>
      <point x="332" y="162"/>
      <point x="330" y="200"/>
      <point x="316" y="308" type="curve" smooth="yes"/>
      <point x="212" y="1100" type="line"/>
      <point x="262" y="1100" type="line" smooth="yes"/>
      <point x="292" y="1100"/>
      <point x="342" y="1100"/>
      <point x="342" y="1160" type="curve" smooth="yes"/>
      <point x="342" y="1222"/>
      <point x="294" y="1222"/>
      <point x="262" y="1222" type="curve" smooth="yes"/>
      <point x="104" y="1222" type="line" smooth="yes"/>
      <point x="74" y="1222"/>
      <point x="22" y="1222"/>
      <point x="22" y="1160" type="curve" smooth="yes"/>
      <point x="22" y="1100"/>
      <point x="78" y="1100"/>
      <point x="98" y="1100" type="curve"/>
      <point x="242" y="54" type="line" smooth="yes"/>
      <point x="252" y="-16"/>
      <point x="300" y="-16"/>
      <point x="324" y="-16" type="curve" smooth="yes"/>
      <point x="342" y="-16"/>
      <point x="386" y="-14"/>
      <point x="402" y="26" type="curve" smooth="yes"/>
      <point x="410" y="46"/>
      <point x="516" y="506"/>
      <point x="524" y="586" type="curve"/>
      <point x="526" y="586" type="line"/>
      <point x="534" y="496"/>
      <point x="642" y="42"/>
      <point x="644" y="34" type="curve" smooth="yes"/>
      <point x="656" y="-16"/>
      <point x="710" y="-16"/>
      <point x="724" y="-16" type="curve" smooth="yes"/>
      <point x="748" y="-16"/>
      <point x="796" y="-16"/>
      <point x="806" y="54" type="curve" smooth="yes"/>
    </contour>
  </outline>
</glyph>
<glyph name="X" format="2">
  <advance width="1050"/>
  <unicode hex="0058"/>
  <outline>
    <contour>
      <point x="582" y="652" type="line"/>
      <point x="808" y="1100" type="line"/>
      <point x="852" y="1100" type="line" smooth="yes"/>
      <point x="882" y="1100"/>
      <point x="934" y="1100"/>
      <point x="934" y="1160" type="curve" smooth="yes"/>
      <point x="934" y="1222"/>
      <point x="882" y="1222"/>
      <point x="852" y="1222" type="curve" smooth="yes"/>
      <point x="644" y="1222" type="line" smooth="yes"/>
      <point x="614" y="1222"/>
      <point x="564" y="1222"/>
      <point x="564" y="1162" type="curve" smooth="yes"/>
      <point x="564" y="1100"/>
      <point x="610" y="1100"/>
      <point x="656" y="1100" type="curve"/>
      <point x="514" y="808" type="line"/>
      <point x="360" y="1100" type="line"/>
      <point x="400" y="1100"/>
      <point x="446" y="1100"/>
      <point x="446" y="1162" type="curve" smooth="yes"/>
      <point x="446" y="1222"/>
      <point x="396" y="1222"/>
      <point x="366" y="1222" type="curve" smooth="yes"/>
      <point x="158" y="1222" type="line" smooth="yes"/>
      <point x="128" y="1222"/>
      <point x="76" y="1222"/>
      <point x="76" y="1162" type="curve" smooth="yes"/>
      <point x="76" y="1100"/>
      <point x="128" y="1100"/>
      <point x="158" y="1100" type="curve" smooth="yes"/>
      <point x="204" y="1100" type="line"/>
      <point x="444" y="650" type="line"/>
      <point x="178" y="122" type="line"/>
      <point x="134" y="122" type="line" smooth="yes"/>
      <point x="102" y="122"/>
      <point x="54" y="122"/>
      <point x="54" y="60" type="curve" smooth="yes"/>
      <point x="54" y="0"/>
      <point x="104" y="0"/>
      <point x="134" y="0" type="curve" smooth="yes"/>
      <point x="342" y="0" type="line" smooth="yes"/>
      <point x="372" y="0"/>
      <point x="424" y="0"/>
      <point x="424" y="60" type="curve" smooth="yes"/>
      <point x="424" y="122"/>
      <point x="376" y="122"/>
      <point x="330" y="122" type="curve"/>
      <point x="514" y="510" type="line"/>
      <point x="712" y="122" type="line"/>
      <point x="666" y="122"/>
      <point x="622" y="122"/>
      <point x="622" y="60" type="curve" smooth="yes"/>
      <point x="622" y="0"/>
      <point x="672" y="0"/>
      <point x="702" y="0" type="curve" smooth="yes"/>
      <point x="910" y="0" type="line" smooth="yes"/>
      <point x="940" y="0"/>
      <point x="992" y="0"/>
      <point x="992" y="60" type="curve" smooth="yes"/>
      <point x="992" y="122"/>
      <point x="940" y="122"/>
      <point x="910" y="122" type="curve" smooth="yes"/>
      <point x="864" y="122" type="line"/>
    </contour>
  </outline>
</glyph>
<glyph name="Y" format="2">
	<unicode hex="0059"/>
	<advance width="525"/>
	<outline>
		<contour>
			<point x="444" y="550" type="line"/>
			<point x="465" y="550" type="line" smooth="yes"/>
			<point x="480" y="550"/>
			<point x="505" y="550"/>
			<point x="505" y="580" type="curve" smooth="yes"/>
			<point x="505" y="611"/>
			<point x="481" y="611"/>
			<point x="465" y="611" type="curve" smooth="yes"/>
			<point x="361" y="611" type="line" smooth="yes"/>
			<point x="346" y="611"/>
			<point x="321" y="611"/>
			<point x="321" y="581" type="curve" smooth="yes"/>
			<point x="321" y="550"/>
			<point x="343" y="550"/>
			<point x="367" y="550" type="curve"/>
			<point x="354.679" y="522.694"/>
			<point x="342.358" y="495.388"/>
			<point x="330" y="468" type="curve" smooth="yes"/>
			<point x="307" y="417"/>
			<point x="287" y="365"/>
			<point x="264" y="314" type="curve"/>
			<point x="264" y="314" type="line"/>
			<point x="253" y="344"/>
			<point x="224" y="413"/>
			<point x="197" y="468" type="curve" smooth="yes"/>
			<point x="157" y="550" type="line"/>
			<point x="181" y="550"/>
			<point x="203" y="550"/>
			<point x="203" y="581" type="curve" smooth="yes"/>
			<point x="203" y="611"/>
			<point x="178" y="611"/>
			<point x="163" y="611" type="curve" smooth="yes"/>
			<point x="59" y="611" type="line" smooth="yes"/>
			<point x="44" y="611"/>
			<point x="19" y="611"/>
			<point x="19" y="581" type="curve" smooth="yes"/>
			<point x="19" y="550"/>
			<point x="43" y="550"/>
			<point x="59" y="550" type="curve" smooth="yes"/>
			<point x="80" y="550" type="line"/>
			<point x="228" y="244" type="line"/>
			<point x="228" y="61" type="line"/>
			<point x="203" y="61" type="line" smooth="yes"/>
			<point x="188" y="61"/>
			<point x="163" y="61"/>
			<point x="163" y="31" type="curve" smooth="yes"/>
			<point x="163" y="0"/>
			<point x="187" y="0"/>
			<point x="203" y="0" type="curve" smooth="yes"/>
			<point x="322" y="0" type="line" smooth="yes"/>
			<point x="337" y="0"/>
			<point x="362" y="0"/>
			<point x="362" y="30" type="curve" smooth="yes"/>
			<point x="362" y="61"/>
			<point x="338" y="61"/>
			<point x="322" y="61" type="curve" smooth="yes"/>
			<point x="297" y="61" type="line"/>
			<point x="297" y="244" type="line"/>
		</contour>
	</outline>
</glyph>
<glyph name="Z" format="2">
  <advance width="1050"/>
  <unicode hex="005A"/>
  <outline>
    <contour>
      <point x="932" y="1092" type="line" smooth="yes"/>
      <point x="952" y="1122"/>
      <point x="952" y="1134"/>
      <point x="952" y="1154" type="curve" smooth="yes"/>
      <point x="952" y="1222"/>
      <point x="908" y="1222"/>
      <point x="870" y="1222" type="curve" smooth="yes"/>
      <point x="202" y="1222" type="line" smooth="yes"/>
      <point x="136" y="1222"/>
      <point x="120" y="1206"/>
      <point x="120" y="1140" type="curve" smooth="yes"/>
      <point x="120" y="994" type="line" smooth="yes"/>
      <point x="120" y="956"/>
      <point x="120" y="912"/>
      <point x="188" y="912" type="curve" smooth="yes"/>
      <point x="258" y="912"/>
      <point x="258" y="954"/>
      <point x="258" y="994" type="curve" smooth="yes"/>
      <point x="258" y="1100" type="line"/>
      <point x="774" y="1100" type="line"/>
      <point x="116" y="130" type="line" smooth="yes"/>
      <point x="96" y="100"/>
      <point x="96" y="88"/>
      <point x="96" y="68" type="curve" smooth="yes"/>
      <point x="96" y="0"/>
      <point x="140" y="0"/>
      <point x="178" y="0" type="curve" smooth="yes"/>
      <point x="882" y="0" type="line" smooth="yes"/>
      <point x="948" y="0"/>
      <point x="962" y="18"/>
      <point x="962" y="82" type="curve" smooth="yes"/>
      <point x="962" y="266" type="line" smooth="yes"/>
      <point x="962" y="304"/>
      <point x="962" y="348"/>
      <point x="894" y="348" type="curve" smooth="yes"/>
      <point x="824" y="348"/>
      <point x="824" y="306"/>
      <point x="824" y="266" type="curve" smooth="yes"/>
      <point x="824" y="122" type="line"/>
      <point x="274" y="122" type="line"/>
    </contour>
  </outline>
</glyph>
<glyph name="bracketleft" format="2">
	<unicode hex="005B"/>
	<advance width="525"/>
	<outline>
		<contour>
			<point x="443" y="633" type="line" smooth="yes"/>
			<point x="458" y="633"/>
			<point x="483" y="633"/>
			<point x="483" y="663" type="curve" smooth="yes"/>
			<point x="483" y="694"/>
			<point x="459" y="694"/>
			<point x="443" y="694" type="curve" smooth="yes"/>
			<point x="262" y="694" type="line" smooth="yes"/>
			<point x="229" y="694"/>
			<point x="222" y="685"/>
			<point x="222" y="653" type="curve" smooth="yes"/>
			<point x="222" y="-42" type="line" smooth="yes"/>
			<point x="222" y="-73"/>
			<point x="228" y="-83"/>
			<point x="262" y="-83" type="curve" smooth="yes"/>
			<point x="443" y="-83" type="line" smooth="yes"/>
			<point x="458" y="-83"/>
			<point x="483" y="-83"/>
			<point x="483" y="-53" type="curve" smooth="yes"/>
			<point x="483" y="-22"/>
			<point x="459" y="-22"/>
			<point x="443" y="-22" type="curve" smooth="yes"/>
			<point x="291" y="-22" type="line"/>
			<point x="291" y="633" type="line"/>
		</contour>
	</outline>
</glyph>
<glyph name="backslash" format="2">
  <advance width="1050"/>
  <unicode hex="005C"/>
  <outline>
    <contour>
      <point x="256" y="1334" type="line" smooth="yes"/>
      <point x="246" y="1354"/>
      <point x="230" y="1388"/>
      <point x="186" y="1388" type="curve" smooth="yes"/>
      <point x="146" y="1388"/>
      <point x="116" y="1354"/>
      <point x="116" y="1318" type="curve" smooth="yes"/>
      <point x="116" y="1302"/>
      <point x="124" y="1282"/>
      <point x="130" y="1270" type="curve" smooth="yes"/>
      <point x="792" y="-112" type="line" smooth="yes"/>
      <point x="802" y="-132"/>
      <point x="818" y="-166"/>
      <point x="862" y="-166" type="curve" smooth="yes"/>
      <point x="902" y="-166"/>
      <point x="932" y="-132"/>
      <point x="932" y="-96" type="curve" smooth="yes"/>
      <point x="932" y="-80"/>
      <point x="924" y="-60"/>
      <point x="918" y="-48" type="curve" smooth="yes"/>
    </contour>
  </outline>
</glyph>
<glyph name="bracketright" format="2">
  <advance width="1050"/>
  <unicode hex="005D"/>
  <outline>
    <contour>
      <point x="604" y="1306" type="line" smooth="yes"/>
      <point x="604" y="1368"/>
      <point x="592" y="1388"/>
      <point x="524" y="1388" type="curve" smooth="yes"/>
      <point x="162" y="1388" type="line" smooth="yes"/>
      <point x="132" y="1388"/>
      <point x="82" y="1388"/>
      <point x="82" y="1328" type="curve" smooth="yes"/>
      <point x="82" y="1266"/>
      <point x="130" y="1266"/>
      <point x="162" y="1266" type="curve" smooth="yes"/>
      <point x="466" y="1266" type="line"/>
      <point x="466" y="-44" type="line"/>
      <point x="162" y="-44" type="line" smooth="yes"/>
      <point x="132" y="-44"/>
      <point x="82" y="-44"/>
      <point x="82" y="-104" type="curve" smooth="yes"/>
      <point x="82" y="-166"/>
      <point x="130" y="-166"/>
      <point x="162" y="-166" type="curve" smooth="yes"/>
      <point x="524" y="-166" type="line" smooth="yes"/>
      <point x="590" y="-166"/>
      <point x="604" y="-148"/>
      <point x="604" y="-84" type="curve" smooth="yes"/>
    </contour>
  </outline>
</glyph>
<glyph name="asciicircum" format="2">
  <advance width="1050"/>
  <unicode hex="005E"/>
  <outline>
    <contour>
      <point x="566" y="1208" type="line" smooth="yes"/>
      <point x="542" y="1222"/>
      <point x="530" y="1222"/>
      <point x="524" y="1222" type="curve" smooth="yes"/>
      <point x="512" y="1222"/>
      <point x="508" y="1220"/>
      <point x="490" y="1210" type="curve" smooth="yes"/>
      <point x="246" y="1078" type="line" smooth="yes"/>
      <point x="216" y="1062"/>
      <point x="200" y="1054"/>
      <point x="200" y="1020" type="curve" smooth="yes"/>
      <point x="200" y="1006"/>
      <point x="220" y="942"/>
      <point x="268" y="942" type="curve" smooth="yes"/>
      <point x="276" y="942"/>
      <point x="288" y="944"/>
      <point x="312" y="958" type="curve" smooth="yes"/>
      <point x="524" y="1082" type="line"/>
      <point x="736" y="960" type="line" smooth="yes"/>
      <point x="764" y="942"/>
      <point x="768" y="942"/>
      <point x="780" y="942" type="curve" smooth="yes"/>
      <point x="828" y="942"/>
      <point x="848" y="1006"/>
      <point x="848" y="1020" type="curve" smooth="yes"/>
      <point x="848" y="1054"/>
      <point x="830" y="1062"/>
      <point x="806" y="1076" type="curve" smooth="yes"/>
    </contour>
  </outline>
</glyph>
<glyph name="underscore" format="2">
	<unicode hex="005F"/>
	<advance width="525"/>
	<outline>
		<contour>
			<point x="421" y="-95" type="line" smooth="yes"/>
			<point x="433" y="-95"/>
			<point x="468" y="-95"/>
			<point x="468" y="-60" type="curve" smooth="yes"/>
			<point x="468" y="-25"/>
			<point x="433" y="-25"/>
			<point x="421" y="-25" type="curve" smooth="yes"/>
			<point x="103" y="-25" type="line" smooth="yes"/>
			<point x="91" y="-25"/>
			<point x="56" y="-25"/>
			<point x="56" y="-60" type="curve" smooth="yes"/>
			<point x="56" y="-95"/>
			<point x="91" y="-95"/>
			<point x="103" y="-95" type="curve" smooth="yes"/>
		</contour>
	</outline>
</glyph>
<glyph name="grave" format="2">
  <advance width="1050"/>
  <unicode hex="0060"/>
  <outline>
    <contour>
      <point x="552" y="968" type="line" smooth="yes"/>
      <point x="582" y="954"/>
      <point x="586" y="954"/>
      <point x="592" y="954" type="curve" smooth="yes"/>
      <point x="644" y="954"/>
      <point x="658" y="1020"/>
      <point x="658" y="1034" type="curve" smooth="yes"/>
      <point x="658" y="1062"/>
      <point x="642" y="1078"/>
      <point x="612" y="1092" type="curve" smooth="yes"/>
      <point x="348" y="1210" type="line" smooth="yes"/>
      <point x="322" y="1222"/>
      <point x="306" y="1222"/>
      <point x="304" y="1222" type="curve" smooth="yes"/>
      <point x="264" y="1222"/>
      <point x="234" y="1192"/>
      <point x="234" y="1152" type="curve" smooth="yes"/>
      <point x="234" y="1116"/>
      <point x="258" y="1096"/>
      <point x="290" y="1082" type="curve" smooth="yes"/>
    </contour>
  </outline>
</glyph>
<glyph name="a" format="2">
  <advance width="1050"/>
  <unicode hex="0061"/>
  <outline>
    <contour>
      <point x="848" y="570" type="line" smooth="yes"/>
      <point x="848" y="712"/>
      <point x="740" y="880"/>
      <point x="452" y="880" type="curve" smooth="yes"/>
      <point x="366" y="880"/>
      <point x="162" y="880"/>
      <point x="162" y="734" type="curve" smooth="yes"/>
      <point x="162" y="674"/>
      <point x="204" y="642"/>
      <point x="252" y="642" type="curve" smooth="yes"/>
      <point x="282" y="642"/>
      <point x="338" y="660"/>
      <point x="340" y="734" type="curve" smooth="yes"/>
      <point x="340" y="750"/>
      <point x="342" y="752"/>
      <point x="382" y="756" type="curve" smooth="yes"/>
      <point x="410" y="758"/>
      <point x="436" y="758"/>
      <point x="454" y="758" type="curve" smooth="yes"/>
      <point x="542" y="758"/>
      <point x="614" y="737"/>
      <point x="659" y="692" type="curve" smooth="yes"/>
      <point x="691" y="660"/>
      <point x="710" y="614"/>
      <point x="710" y="554" type="curve"/>
      <point x="356" y="548"/>
      <point x="110" y="448"/>
      <point x="110" y="256" type="curve" smooth="yes"/>
      <point x="110" y="118"/>
      <point x="236" y="-12"/>
      <point x="440" y="-12" type="curve" smooth="yes"/>
      <point x="514" y="-12"/>
      <point x="638" y="2"/>
      <point x="732" y="64" type="curve"/>
      <point x="776" y="2"/>
      <point x="872" y="0"/>
      <point x="948" y="0" type="curve" smooth="yes"/>
      <point x="1004" y="0"/>
      <point x="1048" y="0"/>
      <point x="1048" y="62" type="curve" smooth="yes"/>
      <point x="1048" y="122"/>
      <point x="998" y="122"/>
      <point x="968" y="122" type="curve" smooth="yes"/>
      <point x="884" y="122"/>
      <point x="864" y="132"/>
      <point x="848" y="138" type="curve"/>
    </contour>
    <contour>
      <point x="710" y="436" type="curve"/>
      <point x="710" y="268" type="line" smooth="yes"/>
      <point x="710" y="222"/>
      <point x="710" y="180"/>
      <point x="632" y="144" type="curve" smooth="yes"/>
      <point x="560" y="110"/>
      <point x="470" y="110"/>
      <point x="454" y="110" type="curve" smooth="yes"/>
      <point x="330" y="110"/>
      <point x="248" y="178"/>
      <point x="248" y="256" type="curve" smooth="yes"/>
      <point x="248" y="354"/>
      <point x="420" y="428"/>
    </contour>
  </outline>
</glyph>
<glyph name="b" format="2">
  <advance width="1050"/>
  <unicode hex="0062"/>
  <outline>
    <contour>
      <point x="194" y="1100" type="line"/>
      <point x="194" y="82" type="line" smooth="yes"/>
      <point x="194" y="42"/>
      <point x="194" y="0"/>
      <point x="264" y="0" type="curve" smooth="yes"/>
      <point x="332" y="0"/>
      <point x="332" y="40"/>
      <point x="332" y="90" type="curve"/>
      <point x="414" y="6"/>
      <point x="500" y="-12"/>
      <point x="564" y="-12" type="curve" smooth="yes"/>
      <point x="782" y="-12"/>
      <point x="976" y="178"/>
      <point x="976" y="432" type="curve" smooth="yes"/>
      <point x="976" y="678"/>
      <point x="798" y="874"/>
      <point x="586" y="874" type="curve" smooth="yes"/>
      <point x="490" y="874"/>
      <point x="400" y="838"/>
      <point x="332" y="776" type="curve"/>
      <point x="332" y="1140" type="line" smooth="yes"/>
      <point x="332" y="1202"/>
      <point x="320" y="1222"/>
      <point x="252" y="1222" type="curve" smooth="yes"/>
      <point x="106" y="1222" type="line" smooth="yes"/>
      <point x="74" y="1222"/>
      <point x="24" y="1222"/>
      <point x="24" y="1160" type="curve" smooth="yes"/>
      <point x="24" y="1100"/>
      <point x="76" y="1100"/>
      <point x="104" y="1100" type="curve" smooth="yes"/>
    </contour>
    <contour>
      <point x="558" y="110" type="curve" smooth="yes"/>
      <point x="402" y="110"/>
      <point x="332" y="286"/>
      <point x="332" y="382" type="curve" smooth="yes"/>
      <point x="332" y="528" type="line" smooth="yes"/>
      <point x="332" y="646"/>
      <point x="448" y="752"/>
      <point x="574" y="752" type="curve" smooth="yes"/>
      <point x="722" y="752"/>
      <point x="838" y="606"/>
      <point x="838" y="432" type="curve" smooth="yes"/>
      <point x="838" y="240"/>
      <point x="698" y="110"/>
    </contour>
  </outline>
</glyph>
<glyph name="c" format="2">
  <advance width="1050"/>
  <unicode hex="0063"/>
  <outline>
    <contour>
      <point x="586" y="-12" type="curve" smooth="yes"/>
      <point x="864" y="-12"/>
      <point x="932" y="184"/>
      <point x="932" y="218" type="curve" smooth="yes"/>
      <point x="932" y="274"/>
      <point x="874" y="274"/>
      <point x="862" y="274" type="curve" smooth="yes"/>
      <point x="830" y="274"/>
      <point x="812" y="270"/>
      <point x="796" y="230" type="curve" smooth="yes"/>
      <point x="786" y="204"/>
      <point x="746" y="110"/>
      <point x="598" y="110" type="curve" smooth="yes"/>
      <point x="428" y="110"/>
      <point x="284" y="250"/>
      <point x="284" y="432" type="curve" smooth="yes"/>
      <point x="284" y="528"/>
      <point x="340" y="758"/>
      <point x="610" y="758" type="curve" smooth="yes"/>
      <point x="652" y="758"/>
      <point x="730" y="758"/>
      <point x="730" y="740" type="curve"/>
      <point x="730" y="740"/>
      <point x="730" y="740"/>
      <point x="730" y="740" type="curve"/>
      <point x="732" y="670"/>
      <point x="770" y="642"/>
      <point x="818" y="642" type="curve" smooth="yes"/>
      <point x="866" y="642"/>
      <point x="908" y="676"/>
      <point x="908" y="734" type="curve" smooth="yes"/>
      <point x="908" y="880"/>
      <point x="700" y="880"/>
      <point x="610" y="880" type="curve" smooth="yes"/>
      <point x="266" y="880"/>
      <point x="146" y="608"/>
      <point x="146" y="432" type="curve" smooth="yes"/>
      <point x="146" y="192"/>
      <point x="334" y="-12"/>
    </contour>
  </outline>
</glyph>
<glyph name="d" format="2">
	<unicode hex="0064"/>
	<advance width="525"/>
	<outline>
		<contour>
			<point x="232" y="-6" type="curve" smooth="yes"/>
			<point x="288" y="-6"/>
			<point x="330" y="21"/>
			<point x="358" y="50" type="curve"/>
			<point x="358" y="14"/>
			<point x="358" y="0"/>
			<point x="398" y="0" type="curve" smooth="yes"/>
			<point x="471" y="0" type="line" smooth="yes"/>
			<point x="487" y="0"/>
			<point x="512" y="0"/>
			<point x="512" y="31" type="curve" smooth="yes"/>
			<point x="512" y="61"/>
			<point x="486" y="61"/>
			<point x="472" y="61" type="curve" smooth="yes"/>
			<point x="427" y="61" type="line"/>
			<point x="427" y="570" type="line" smooth="yes"/>
			<point x="427" y="601"/>
			<point x="421" y="611"/>
			<point x="387" y="611" type="curve" smooth="yes"/>
			<point x="314" y="611" type="line" smooth="yes"/>
			<point x="298" y="611"/>
			<point x="273" y="611"/>
			<point x="273" y="580" type="curve" smooth="yes"/>
			<point x="273" y="550"/>
			<point x="299" y="550"/>
			<point x="313" y="550" type="curve" smooth="yes"/>
			<point x="358" y="550" type="line"/>
			<point x="358" y="392" type="line"/>
			<point x="325" y="421"/>
			<point x="284" y="437"/>
			<point x="241" y="437" type="curve" smooth="yes"/>
			<point x="132" y="437"/>
			<point x="36" y="342"/>
			<point x="36" y="215" type="curve" smooth="yes"/>
			<point x="36" y="91"/>
			<point x="126" y="-6"/>
		</contour>
		<contour>
			<point x="358" y="194" type="line" smooth="yes"/>
			<point x="358" y="138"/>
			<point x="313" y="55"/>
			<point x="236" y="55" type="curve" smooth="yes"/>
			<point x="165" y="55"/>
			<point x="105" y="126"/>
			<point x="105" y="215" type="curve" smooth="yes"/>
			<point x="105" y="311"/>
			<point x="175" y="376"/>
			<point x="245" y="376" type="curve" smooth="yes"/>
			<point x="309" y="376"/>
			<point x="358" y="320"/>
			<point x="358" y="265" type="curve" smooth="yes"/>
		</contour>
	</outline>
</glyph>
<glyph name="e" format="2">
  <advance width="1050"/>
  <unicode hex="0065"/>
  <outline>
    <contour>
      <point x="848" y="382" type="line" smooth="yes"/>
      <point x="890" y="382"/>
      <point x="928" y="382"/>
      <point x="928" y="456" type="curve" smooth="yes"/>
      <point x="928" y="684"/>
      <point x="800" y="880"/>
      <point x="540" y="880" type="curve" smooth="yes"/>
      <point x="302" y="880"/>
      <point x="110" y="680"/>
      <point x="110" y="434" type="curve" smooth="yes"/>
      <point x="110" y="190"/>
      <point x="312" y="-12"/>
      <point x="570" y="-12" type="curve" smooth="yes"/>
      <point x="834" y="-12"/>
      <point x="928" y="168"/>
      <point x="928" y="218" type="curve" smooth="yes"/>
      <point x="928" y="274"/>
      <point x="870" y="274"/>
      <point x="858" y="274" type="curve" smooth="yes"/>
      <point x="822" y="274"/>
      <point x="806" y="268"/>
      <point x="792" y="230" type="curve"/>
      <point x="748" y="128"/>
      <point x="640" y="110"/>
      <point x="584" y="110" type="curve" smooth="yes"/>
      <point x="434" y="110"/>
      <point x="284" y="210"/>
      <point x="252" y="382" type="curve"/>
    </contour>
    <contour>
      <point x="254" y="502" type="line"/>
      <point x="282" y="648"/>
      <point x="400" y="758"/>
      <point x="540" y="758" type="curve" smooth="yes"/>
      <point x="644" y="758"/>
      <point x="768" y="708"/>
      <point x="786" y="502" type="curve"/>
    </contour>
  </outline>
</glyph>
<glyph name="f" format="2">
  <advance width="1050"/>
  <unicode hex="0066"/>
  <outline>
    <contour>
      <point x="506" y="740" type="line"/>
      <point x="750" y="740" type="line" smooth="yes"/>
      <point x="780" y="740"/>
      <point x="830" y="740"/>
      <point x="830" y="800" type="curve" smooth="yes"/>
      <point x="830" y="862"/>
      <point x="782" y="862"/>
      <point x="750" y="862" type="curve" smooth="yes"/>
      <point x="506" y="862" type="line"/>
      <point x="506" y="956" type="line" smooth="yes"/>
      <point x="506" y="1112"/>
      <point x="640" y="1112"/>
      <point x="700" y="1112" type="curve"/>
      <point x="700" y="1104"/>
      <point x="718" y="1026"/>
      <point x="788" y="1026" type="curve" smooth="yes"/>
      <point x="828" y="1026"/>
      <point x="874" y="1058"/>
      <point x="874" y="1114" type="curve" smooth="yes"/>
      <point x="874" y="1234"/>
      <point x="714" y="1234"/>
      <point x="682" y="1234" type="curve" smooth="yes"/>
      <point x="522" y="1234"/>
      <point x="368" y="1142"/>
      <point x="368" y="968" type="curve" smooth="yes"/>
      <point x="368" y="862" type="line"/>
      <point x="168" y="862" type="line" smooth="yes"/>
      <point x="136" y="862"/>
      <point x="86" y="862"/>
      <point x="86" y="800" type="curve" smooth="yes"/>
      <point x="86" y="740"/>
      <point x="136" y="740"/>
      <point x="166" y="740" type="curve" smooth="yes"/>
      <point x="368" y="740" type="line"/>
      <point x="368" y="122" type="line"/>
      <point x="166" y="122" type="line" smooth="yes"/>
      <point x="136" y="122"/>
      <point x="84" y="122"/>
      <point x="84" y="62" type="curve" smooth="yes"/>
      <point x="84" y="0"/>
      <point x="136" y="0"/>
      <point x="166" y="0" type="curve" smooth="yes"/>
      <point x="708" y="0" type="line" smooth="yes"/>
      <point x="738" y="0"/>
      <point x="790" y="0"/>
      <point x="790" y="60" type="curve" smooth="yes"/>
      <point x="790" y="122"/>
      <point x="738" y="122"/>
      <point x="708" y="122" type="curve" smooth="yes"/>
      <point x="506" y="122" type="line"/>
    </contour>
  </outline>
</glyph>
<glyph name="g" format="2">
  <advance width="1050"/>
  <unicode hex="0067"/>
  <outline>
    <contour>
      <point x="58" y="-164" type="curve" smooth="yes"/>
      <point x="58" y="-336"/>
      <point x="268" y="-458"/>
      <point x="524" y="-458" type="curve" smooth="yes"/>
      <point x="780" y="-458"/>
      <point x="990" y="-334"/>
      <point x="990" y="-164" type="curve" smooth="yes"/>
      <point x="990" y="-72"/>
      <point x="944" y="122"/>
      <point x="562" y="122" type="curve" smooth="yes"/>
      <point x="466" y="122"/>
      <point x="420" y="122"/>
      <point x="376" y="122" type="curve" smooth="yes"/>
      <point x="274" y="122"/>
      <point x="274" y="218"/>
      <point x="274" y="226" type="curve" smooth="yes"/>
      <point x="274" y="234"/>
      <point x="278" y="262"/>
      <point x="286" y="282" type="curve"/>
      <point x="292" y="278"/>
      <point x="368" y="232"/>
      <point x="466" y="232" type="curve" smooth="yes"/>
      <point x="650" y="232"/>
      <point x="796" y="376"/>
      <point x="796" y="554" type="curve" smooth="yes"/>
      <point x="796" y="614"/>
      <point x="778" y="672"/>
      <point x="744" y="728" type="curve"/>
      <point x="786" y="752"/>
      <point x="834" y="760"/>
      <point x="860" y="762" type="curve"/>
      <point x="872" y="708"/>
      <point x="918" y="694"/>
      <point x="938" y="694" type="curve" smooth="yes"/>
      <point x="972" y="694"/>
      <point x="1018" y="718"/>
      <point x="1018" y="776" type="curve" smooth="yes"/>
      <point x="1018" y="822"/>
      <point x="980" y="884"/>
      <point x="872" y="884" type="curve" smooth="yes"/>
      <point x="850" y="884"/>
      <point x="752" y="882"/>
      <point x="660" y="814" type="curve"/>
      <point x="628" y="836"/>
      <point x="558" y="874"/>
      <point x="466" y="874" type="curve" smooth="yes"/>
      <point x="278" y="874"/>
      <point x="136" y="724"/>
      <point x="136" y="554" type="curve" smooth="yes"/>
      <point x="136" y="468"/>
      <point x="170" y="402"/>
      <point x="200" y="364" type="curve"/>
      <point x="178" y="332"/>
      <point x="160" y="288"/>
      <point x="160" y="228" type="curve" smooth="yes"/>
      <point x="160" y="158"/>
      <point x="188" y="108"/>
      <point x="206" y="84" type="curve"/>
      <point x="58" y="-6"/>
      <point x="58" y="-142"/>
    </contour>
    <contour>
      <point x="466" y="352" type="curve" smooth="yes"/>
      <point x="358" y="352"/>
      <point x="274" y="446"/>
      <point x="274" y="552" type="curve" smooth="yes"/>
      <point x="274" y="666"/>
      <point x="362" y="754"/>
      <point x="466" y="754" type="curve" smooth="yes"/>
      <point x="574" y="754"/>
      <point x="658" y="660"/>
      <point x="658" y="554" type="curve" smooth="yes"/>
      <point x="658" y="440"/>
      <point x="570" y="352"/>
    </contour>
    <contour>
      <point x="524" y="-338" type="curve" smooth="yes"/>
      <point x="324" y="-338"/>
      <point x="174" y="-252"/>
      <point x="174" y="-164" type="curve" smooth="yes"/>
      <point x="174" y="-128"/>
      <point x="192" y="-64"/>
      <point x="256" y="-24" type="curve" smooth="yes"/>
      <point x="306" y="8"/>
      <point x="324" y="8"/>
      <point x="470" y="8" type="curve" smooth="yes"/>
      <point x="648" y="8"/>
      <point x="874" y="8"/>
      <point x="874" y="-164" type="curve" smooth="yes"/>
      <point x="874" y="-252"/>
      <point x="724" y="-338"/>
    </contour>
  </outline>
</glyph>
<glyph name="i" format="2">
  <advance width="1050"/>
  <unicode hex="0069"/>
  <outline>
    <contour>
      <point x="618" y="1124" type="curve" smooth="yes"/>
      <point x="618" y="1180"/>
      <point x="574" y="1224"/>
      <point x="518" y="1224" type="curve" smooth="yes"/>
      <point x="462" y="1224"/>
      <point x="418" y="1180"/>
      <point x="418" y="1124" type="curve" smooth="yes"/>
      <point x="418" y="1068"/>
      <point x="462" y="1024"/>
      <point x="518" y="1024" type="curve" smooth="yes"/>
      <point x="574" y="1024"/>
      <point x="618" y="1068"/>
    </contour>
    <contour>
      <point x="480" y="740" type="line"/>
      <point x="480" y="122" type="line"/>
      <point x="238" y="122" type="line" smooth="yes"/>
      <point x="206" y="122"/>
      <point x="156" y="122"/>
      <point x="156" y="60" type="curve" smooth="yes"/>
      <point x="156" y="0"/>
      <point x="208" y="0"/>
      <point x="238" y="0" type="curve" smooth="yes"/>
      <point x="828" y="0" type="line" smooth="yes"/>
      <point x="858" y="0"/>
      <point x="910" y="0"/>
      <point x="910" y="60" type="curve" smooth="yes"/>
      <point x="910" y="122"/>
      <point x="858" y="122"/>
      <point x="828" y="122" type="curve" smooth="yes"/>
      <point x="618" y="122" type="line"/>
      <point x="618" y="780" type="line" smooth="yes"/>
      <point x="618" y="842"/>
      <point x="606" y="862"/>
      <point x="538" y="862" type="curve" smooth="yes"/>
      <point x="254" y="862" type="line" smooth="yes"/>
      <point x="224" y="862"/>
      <point x="172" y="862"/>
      <point x="172" y="802" type="curve" smooth="yes"/>
      <point x="172" y="740"/>
      <point x="224" y="740"/>
      <point x="254" y="740" type="curve" smooth="yes"/>
    </contour>
  </outline>
</glyph>
<glyph name="j" format="2">
  <advance width="1050"/>
  <unicode hex="006A"/>
  <outline>
    <contour>
      <point x="736" y="1124" type="curve" smooth="yes"/>
      <point x="736" y="1180"/>
      <point x="692" y="1224"/>
      <point x="636" y="1224" type="curve" smooth="yes"/>
      <point x="580" y="1224"/>
      <point x="536" y="1180"/>
      <point x="536" y="1124" type="curve" smooth="yes"/>
      <point x="536" y="1068"/>
      <point x="580" y="1024"/>
      <point x="636" y="1024" type="curve" smooth="yes"/>
      <point x="692" y="1024"/>
      <point x="736" y="1068"/>
    </contour>
    <contour>
      <point x="598" y="740" type="line"/>
      <point x="598" y="-78" type="line" smooth="yes"/>
      <point x="598" y="-112"/>
      <point x="598" y="-188"/>
      <point x="546" y="-258" type="curve" smooth="yes"/>
      <point x="492" y="-334"/>
      <point x="430" y="-334"/>
      <point x="384" y="-334" type="curve" smooth="yes"/>
      <point x="326" y="-334"/>
      <point x="302" y="-330"/>
      <point x="272" y="-326" type="curve"/>
      <point x="274" y="-320"/>
      <point x="274" y="-316"/>
      <point x="274" y="-302" type="curve" smooth="yes"/>
      <point x="274" y="-246"/>
      <point x="228" y="-212"/>
      <point x="186" y="-212" type="curve" smooth="yes"/>
      <point x="140" y="-212"/>
      <point x="96" y="-246"/>
      <point x="96" y="-304" type="curve" smooth="yes"/>
      <point x="96" y="-456"/>
      <point x="292" y="-456"/>
      <point x="374" y="-456" type="curve" smooth="yes"/>
      <point x="664" y="-456"/>
      <point x="736" y="-216"/>
      <point x="736" y="-88" type="curve" smooth="yes"/>
      <point x="736" y="780" type="line" smooth="yes"/>
      <point x="736" y="842"/>
      <point x="724" y="862"/>
      <point x="656" y="862" type="curve" smooth="yes"/>
      <point x="340" y="862" type="line" smooth="yes"/>
      <point x="308" y="862"/>
      <point x="258" y="862"/>
      <point x="258" y="800" type="curve" smooth="yes"/>
      <point x="258" y="740"/>
      <point x="308" y="740"/>
      <point x="338" y="740" type="curve" smooth="yes"/>
    </contour>
  </outline>
</glyph>
<glyph name="k" format="2">
  <advance width="1050"/>
  <unicode hex="006B"/>
  <outline>
    <contour>
      <point x="574" y="510" type="line"/>
      <point x="820" y="740" type="line"/>
      <point x="890" y="740" type="line" smooth="yes"/>
      <point x="920" y="740"/>
      <point x="972" y="740"/>
      <point x="972" y="800" type="curve" smooth="yes"/>
      <point x="972" y="862"/>
      <point x="920" y="862"/>
      <point x="890" y="862" type="curve" smooth="yes"/>
      <point x="582" y="862" type="line" smooth="yes"/>
      <point x="550" y="862"/>
      <point x="502" y="862"/>
      <point x="502" y="800" type="curve" smooth="yes"/>
      <point x="502" y="740"/>
      <point x="552" y="740"/>
      <point x="582" y="740" type="curve" smooth="yes"/>
      <point x="656" y="740" type="line"/>
      <point x="332" y="436" type="line"/>
      <point x="332" y="1140" type="line" smooth="yes"/>
      <point x="332" y="1202"/>
      <point x="320" y="1222"/>
      <point x="252" y="1222" type="curve" smooth="yes"/>
      <point x="122" y="1222" type="line" smooth="yes"/>
      <point x="92" y="1222"/>
      <point x="42" y="1222"/>
      <point x="42" y="1162" type="curve" smooth="yes"/>
      <point x="42" y="1100"/>
      <point x="90" y="1100"/>
      <point x="122" y="1100" type="curve" smooth="yes"/>
      <point x="220" y="1100" type="line"/>
      <point x="220" y="122" type="line"/>
      <point x="122" y="122" type="line" smooth="yes"/>
      <point x="92" y="122"/>
      <point x="42" y="122"/>
      <point x="42" y="62" type="curve" smooth="yes"/>
      <point x="42" y="0"/>
      <point x="90" y="0"/>
      <point x="122" y="0" type="curve" smooth="yes"/>
      <point x="430" y="0" type="line" smooth="yes"/>
      <point x="460" y="0"/>
      <point x="510" y="0"/>
      <point x="510" y="60" type="curve" smooth="yes"/>
      <point x="510" y="122"/>
      <point x="462" y="122"/>
      <point x="430" y="122" type="curve" smooth="yes"/>
      <point x="332" y="122" type="line"/>
      <point x="332" y="284" type="line"/>
      <point x="492" y="432" type="line"/>
      <point x="730" y="122" type="line"/>
      <point x="658" y="122"/>
      <point x="618" y="122"/>
      <point x="618" y="60" type="curve" smooth="yes"/>
      <point x="618" y="0"/>
      <point x="668" y="0"/>
      <point x="698" y="0" type="curve" smooth="yes"/>
      <point x="934" y="0" type="line" smooth="yes"/>
      <point x="964" y="0"/>
      <point x="1016" y="0"/>
      <point x="1016" y="60" type="curve" smooth="yes"/>
      <point x="1016" y="122"/>
      <point x="964" y="122"/>
      <point x="934" y="122" type="curve" smooth="yes"/>
      <point x="872" y="122" type="line"/>
    </contour>
  </outline>
</glyph>
<glyph name="l" format="2">
  <advance width="1050"/>
  <unicode hex="006C"/>
  <outline>
    <contour>
      <point x="594" y="1140" type="line" smooth="yes"/>
      <point x="594" y="1202"/>
      <point x="582" y="1222"/>
      <point x="514" y="1222" type="curve" smooth="yes"/>
      <point x="198" y="1222" type="line" smooth="yes"/>
      <point x="166" y="1222"/>
      <point x="116" y="1222"/>
      <point x="116" y="1160" type="curve" smooth="yes"/>
      <point x="116" y="1100"/>
      <point x="168" y="1100"/>
      <point x="196" y="1100" type="curve" smooth="yes"/>
      <point x="456" y="1100" type="line"/>
      <point x="456" y="122" type="line"/>
      <point x="198" y="122" type="line" smooth="yes"/>
      <point x="166" y="122"/>
      <point x="116" y="122"/>
      <point x="116" y="60" type="curve" smooth="yes"/>
      <point x="116" y="0"/>
      <point x="168" y="0"/>
      <point x="196" y="0" type="curve" smooth="yes"/>
      <point x="854" y="0" type="line" smooth="yes"/>
      <point x="884" y="0"/>
      <point x="934" y="0"/>
      <point x="934" y="60" type="curve" smooth="yes"/>
      <point x="934" y="122"/>
      <point x="886" y="122"/>
      <point x="854" y="122" type="curve" smooth="yes"/>
      <point x="594" y="122" type="line"/>
    </contour>
  </outline>
</glyph>
<glyph name="m" format="2">
  <advance width="1050"/>
  <unicode hex="006D"/>
  <outline>
    <contour>
      <point x="918" y="606" type="line" smooth="yes"/>
      <point x="918" y="646"/>
      <point x="918" y="874"/>
      <point x="740" y="874" type="curve" smooth="yes"/>
      <point x="680" y="874"/>
      <point x="598" y="848"/>
      <point x="542" y="770" type="curve"/>
      <point x="512" y="838"/>
      <point x="456" y="874"/>
      <point x="390" y="874" type="curve" smooth="yes"/>
      <point x="326" y="874"/>
      <point x="266" y="846"/>
      <point x="218" y="802" type="curve"/>
      <point x="214" y="862"/>
      <point x="174" y="862"/>
      <point x="138" y="862" type="curve" smooth="yes"/>
      <point x="74" y="862" type="line" smooth="yes"/>
      <point x="44" y="862"/>
      <point x="-8" y="862"/>
      <point x="-8" y="802" type="curve" smooth="yes"/>
      <point x="-8" y="740"/>
      <point x="34" y="740"/>
      <point x="106" y="740" type="curve"/>
      <point x="106" y="122" type="line"/>
      <point x="34" y="122"/>
      <point x="-8" y="122"/>
      <point x="-8" y="60" type="curve" smooth="yes"/>
      <point x="-8" y="0"/>
      <point x="46" y="0"/>
      <point x="74" y="0" type="curve" smooth="yes"/>
      <point x="250" y="0" type="line" smooth="yes"/>
      <point x="280" y="0"/>
      <point x="332" y="0"/>
      <point x="332" y="60" type="curve" smooth="yes"/>
      <point x="332" y="122"/>
      <point x="290" y="122"/>
      <point x="218" y="122" type="curve"/>
      <point x="218" y="480" type="line" smooth="yes"/>
      <point x="218" y="658"/>
      <point x="300" y="752"/>
      <point x="382" y="752" type="curve" smooth="yes"/>
      <point x="428" y="752"/>
      <point x="456" y="718"/>
      <point x="456" y="588" type="curve" smooth="yes"/>
      <point x="456" y="122" type="line"/>
      <point x="418" y="122"/>
      <point x="368" y="122"/>
      <point x="368" y="60" type="curve" smooth="yes"/>
      <point x="368" y="0"/>
      <point x="422" y="0"/>
      <point x="450" y="0" type="curve" smooth="yes"/>
      <point x="600" y="0" type="line" smooth="yes"/>
      <point x="630" y="0"/>
      <point x="682" y="0"/>
      <point x="682" y="60" type="curve" smooth="yes"/>
      <point x="682" y="122"/>
      <point x="640" y="122"/>
      <point x="568" y="122" type="curve"/>
      <point x="568" y="480" type="line" smooth="yes"/>
      <point x="568" y="658"/>
      <point x="650" y="752"/>
      <point x="732" y="752" type="curve" smooth="yes"/>
      <point x="778" y="752"/>
      <point x="806" y="718"/>
      <point x="806" y="588" type="curve" smooth="yes"/>
      <point x="806" y="122" type="line"/>
      <point x="768" y="122"/>
      <point x="718" y="122"/>
      <point x="718" y="60" type="curve" smooth="yes"/>
      <point x="718" y="0"/>
      <point x="772" y="0"/>
      <point x="800" y="0" type="curve" smooth="yes"/>
      <point x="950" y="0" type="line" smooth="yes"/>
      <point x="980" y="0"/>
      <point x="1032" y="0"/>
      <point x="1032" y="60" type="curve" smooth="yes"/>
      <point x="1032" y="122"/>
      <point x="990" y="122"/>
      <point x="918" y="122" type="curve"/>
    </contour>
  </outline>
</glyph>
<glyph name="n" format="2">
  <advance width="1050"/>
  <unicode hex="006E"/>
  <outline>
    <contour>
      <point x="854" y="586" type="line" smooth="yes"/>
      <point x="854" y="788"/>
      <point x="752" y="874"/>
      <point x="594" y="874" type="curve" smooth="yes"/>
      <point x="460" y="874"/>
      <point x="370" y="806"/>
      <point x="332" y="768" type="curve"/>
      <point x="332" y="832"/>
      <point x="332" y="862"/>
      <point x="252" y="862" type="curve" smooth="yes"/>
      <point x="106" y="862" type="line" smooth="yes"/>
      <point x="74" y="862"/>
      <point x="24" y="862"/>
      <point x="24" y="800" type="curve" smooth="yes"/>
      <point x="24" y="740"/>
      <point x="76" y="740"/>
      <point x="104" y="740" type="curve" smooth="yes"/>
      <point x="194" y="740" type="line"/>
      <point x="194" y="122" type="line"/>
      <point x="106" y="122" type="line" smooth="yes"/>
      <point x="74" y="122"/>
      <point x="24" y="122"/>
      <point x="24" y="60" type="curve" smooth="yes"/>
      <point x="24" y="0"/>
      <point x="76" y="0"/>
      <point x="104" y="0" type="curve" smooth="yes"/>
      <point x="422" y="0" type="line" smooth="yes"/>
      <point x="450" y="0"/>
      <point x="502" y="0"/>
      <point x="502" y="60" type="curve" smooth="yes"/>
      <point x="502" y="122"/>
      <point x="452" y="122"/>
      <point x="420" y="122" type="curve" smooth="yes"/>
      <point x="332" y="122" type="line"/>
      <point x="332" y="476" type="line" smooth="yes"/>
      <point x="332" y="676"/>
      <point x="480" y="752"/>
      <point x="582" y="752" type="curve" smooth="yes"/>
      <point x="688" y="752"/>
      <point x="716" y="696"/>
      <point x="716" y="576" type="curve" smooth="yes"/>
      <point x="716" y="122" type="line"/>
      <point x="638" y="122" type="line" smooth="yes"/>
      <point x="606" y="122"/>
      <point x="556" y="122"/>
      <point x="556" y="60" type="curve" smooth="yes"/>
      <point x="556" y="0"/>
      <point x="610" y="0"/>
      <point x="638" y="0" type="curve" smooth="yes"/>
      <point x="944" y="0" type="line" smooth="yes"/>
      <point x="972" y="0"/>
      <point x="1024" y="0"/>
      <point x="1024" y="60" type="curve" smooth="yes"/>
      <point x="1024" y="122"/>
      <point x="974" y="122"/>
      <point x="942" y="122" type="curve" smooth="yes"/>
      <point x="854" y="122" type="line"/>
    </contour>
  </outline>
</glyph>
<glyph name="o" format="2">
  <advance width="1050"/>
  <unicode hex="006F"/>
  <outline>
    <contour>
      <point x="934" y="432" type="curve" smooth="yes"/>
      <point x="934" y="682"/>
      <point x="748" y="880"/>
      <point x="524" y="880" type="curve" smooth="yes"/>
      <point x="300" y="880"/>
      <point x="114" y="682"/>
      <point x="114" y="432" type="curve" smooth="yes"/>
      <point x="114" y="178"/>
      <point x="304" y="-12"/>
      <point x="524" y="-12" type="curve" smooth="yes"/>
      <point x="744" y="-12"/>
      <point x="934" y="180"/>
    </contour>
    <contour>
      <point x="524" y="110" type="curve" smooth="yes"/>
      <point x="376" y="110"/>
      <point x="252" y="260"/>
      <point x="252" y="446" type="curve" smooth="yes"/>
      <point x="252" y="628"/>
      <point x="382" y="758"/>
      <point x="524" y="758" type="curve" smooth="yes"/>
      <point x="668" y="758"/>
      <point x="796" y="628"/>
      <point x="796" y="446" type="curve" smooth="yes"/>
      <point x="796" y="260"/>
      <point x="672" y="110"/>
    </contour>
  </outline>
</glyph>
<glyph name="p" format="2">
  <advance width="1050"/>
  <unicode hex="0070"/>
  <outline>
    <contour>
      <point x="422" y="-444" type="line" smooth="yes"/>
      <point x="450" y="-444"/>
      <point x="502" y="-444"/>
      <point x="502" y="-384" type="curve" smooth="yes"/>
      <point x="502" y="-322"/>
      <point x="452" y="-322"/>
      <point x="420" y="-322" type="curve" smooth="yes"/>
      <point x="332" y="-322" type="line"/>
      <point x="332" y="90" type="line"/>
      <point x="414" y="6"/>
      <point x="500" y="-12"/>
      <point x="564" y="-12" type="curve" smooth="yes"/>
      <point x="782" y="-12"/>
      <point x="976" y="178"/>
      <point x="976" y="432" type="curve" smooth="yes"/>
      <point x="976" y="678"/>
      <point x="798" y="874"/>
      <point x="586" y="874" type="curve" smooth="yes"/>
      <point x="490" y="874"/>
      <point x="400" y="838"/>
      <point x="332" y="776" type="curve"/>
      <point x="332" y="834"/>
      <point x="328" y="862"/>
      <point x="252" y="862" type="curve" smooth="yes"/>
      <point x="106" y="862" type="line" smooth="yes"/>
      <point x="74" y="862"/>
      <point x="24" y="862"/>
      <point x="24" y="800" type="curve" smooth="yes"/>
      <point x="24" y="740"/>
      <point x="76" y="740"/>
      <point x="104" y="740" type="curve" smooth="yes"/>
      <point x="194" y="740" type="line"/>
      <point x="194" y="-322" type="line"/>
      <point x="106" y="-322" type="line" smooth="yes"/>
      <point x="74" y="-322"/>
      <point x="24" y="-322"/>
      <point x="24" y="-384" type="curve" smooth="yes"/>
      <point x="24" y="-444"/>
      <point x="76" y="-444"/>
      <point x="104" y="-444" type="curve" smooth="yes"/>
    </contour>
    <contour>
      <point x="332" y="528" type="line" smooth="yes"/>
      <point x="332" y="646"/>
      <point x="448" y="752"/>
      <point x="574" y="752" type="curve" smooth="yes"/>
      <point x="722" y="752"/>
      <point x="838" y="606"/>
      <point x="838" y="432" type="curve" smooth="yes"/>
      <point x="838" y="240"/>
      <point x="698" y="110"/>
      <point x="558" y="110" type="curve" smooth="yes"/>
      <point x="402" y="110"/>
      <point x="332" y="286"/>
      <point x="332" y="382" type="curve" smooth="yes"/>
    </contour>
  </outline>
</glyph>
<glyph name="q" format="2">
  <advance width="1050"/>
  <unicode hex="0071"/>
  <outline>
    <contour>
      <point x="80" y="430" type="curve" smooth="yes"/>
      <point x="80" y="182"/>
      <point x="268" y="-12"/>
      <point x="488" y="-12" type="curve" smooth="yes"/>
      <point x="624" y="-12"/>
      <point x="716" y="62"/>
      <point x="758" y="108" type="curve"/>
      <point x="758" y="-322" type="line"/>
      <point x="660" y="-322" type="line" smooth="yes"/>
      <point x="630" y="-322"/>
      <point x="580" y="-322"/>
      <point x="580" y="-382" type="curve" smooth="yes"/>
      <point x="580" y="-444"/>
      <point x="628" y="-444"/>
      <point x="660" y="-444" type="curve" smooth="yes"/>
      <point x="994" y="-444" type="line" smooth="yes"/>
      <point x="1024" y="-444"/>
      <point x="1074" y="-444"/>
      <point x="1074" y="-384" type="curve" smooth="yes"/>
      <point x="1074" y="-322"/>
      <point x="1026" y="-322"/>
      <point x="994" y="-322" type="curve" smooth="yes"/>
      <point x="896" y="-322" type="line"/>
      <point x="896" y="792" type="line" smooth="yes"/>
      <point x="896" y="830"/>
      <point x="896" y="874"/>
      <point x="828" y="874" type="curve" smooth="yes"/>
      <point x="758" y="874"/>
      <point x="758" y="840"/>
      <point x="758" y="764" type="curve"/>
      <point x="758" y="764" type="line"/>
      <point x="704" y="822"/>
      <point x="622" y="874"/>
      <point x="508" y="874" type="curve" smooth="yes"/>
      <point x="284" y="874"/>
      <point x="80" y="684"/>
    </contour>
    <contour>
      <point x="496" y="110" type="curve" smooth="yes"/>
      <point x="348" y="110"/>
      <point x="218" y="250"/>
      <point x="218" y="430" type="curve" smooth="yes"/>
      <point x="218" y="614"/>
      <point x="358" y="752"/>
      <point x="518" y="752" type="curve" smooth="yes"/>
      <point x="668" y="752"/>
      <point x="758" y="598"/>
      <point x="758" y="466" type="curve" smooth="yes"/>
      <point x="758" y="388" type="line" smooth="yes"/>
      <point x="758" y="274"/>
      <point x="660" y="110"/>
    </contour>
  </outline>
</glyph>
<glyph name="r" format="2">
  <advance width="1050"/>
  <unicode hex="0072"/>
  <outline>
    <contour>
      <point x="444" y="372" type="line" smooth="yes"/>
      <point x="444" y="560"/>
      <point x="562" y="752"/>
      <point x="804" y="752" type="curve"/>
      <point x="804" y="752"/>
      <point x="804" y="752"/>
      <point x="804" y="752" type="curve"/>
      <point x="806" y="704"/>
      <point x="840" y="664"/>
      <point x="890" y="664" type="curve" smooth="yes"/>
      <point x="934" y="664"/>
      <point x="974" y="696"/>
      <point x="974" y="750" type="curve" smooth="yes"/>
      <point x="974" y="790"/>
      <point x="950" y="874"/>
      <point x="784" y="874" type="curve" smooth="yes"/>
      <point x="682" y="874"/>
      <point x="554" y="838"/>
      <point x="444" y="712" type="curve"/>
      <point x="444" y="780" type="line" smooth="yes"/>
      <point x="444" y="842"/>
      <point x="432" y="862"/>
      <point x="364" y="862" type="curve" smooth="yes"/>
      <point x="144" y="862" type="line" smooth="yes"/>
      <point x="114" y="862"/>
      <point x="64" y="862"/>
      <point x="64" y="802" type="curve" smooth="yes"/>
      <point x="64" y="740"/>
      <point x="112" y="740"/>
      <point x="144" y="740" type="curve" smooth="yes"/>
      <point x="306" y="740" type="line"/>
      <point x="306" y="122" type="line"/>
      <point x="144" y="122" type="line" smooth="yes"/>
      <point x="114" y="122"/>
      <point x="64" y="122"/>
      <point x="64" y="62" type="curve" smooth="yes"/>
      <point x="64" y="0"/>
      <point x="112" y="0"/>
      <point x="144" y="0" type="curve" smooth="yes"/>
      <point x="666" y="0" type="line" smooth="yes"/>
      <point x="696" y="0"/>
      <point x="748" y="0"/>
      <point x="748" y="60" type="curve" smooth="yes"/>
      <point x="748" y="122"/>
      <point x="696" y="122"/>
      <point x="666" y="122" type="curve" smooth="yes"/>
      <point x="444" y="122" type="line"/>
    </contour>
  </outline>
</glyph>
<glyph name="s" format="2">
  <advance width="1050"/>
  <unicode hex="0073"/>
  <outline>
    <contour>
      <point x="144" y="644" type="curve" smooth="yes"/>
      <point x="144" y="504"/>
      <point x="264" y="452"/>
      <point x="402" y="422" type="curve" smooth="yes"/>
      <point x="446" y="412"/>
      <point x="494" y="404"/>
      <point x="538" y="398" type="curve" smooth="yes"/>
      <point x="636" y="382"/>
      <point x="796" y="356"/>
      <point x="796" y="250" type="curve" smooth="yes"/>
      <point x="796" y="176"/>
      <point x="722" y="110"/>
      <point x="540" y="110" type="curve" smooth="yes"/>
      <point x="446" y="110"/>
      <point x="334" y="132"/>
      <point x="284" y="288" type="curve" smooth="yes"/>
      <point x="274" y="324"/>
      <point x="266" y="346"/>
      <point x="214" y="346" type="curve" smooth="yes"/>
      <point x="144" y="346"/>
      <point x="144" y="304"/>
      <point x="144" y="264" type="curve" smooth="yes"/>
      <point x="144" y="70" type="line" smooth="yes"/>
      <point x="144" y="38"/>
      <point x="144" y="-12"/>
      <point x="204" y="-12" type="curve" smooth="yes"/>
      <point x="222" y="-12"/>
      <point x="254" y="-10"/>
      <point x="278" y="64" type="curve"/>
      <point x="376" y="-8"/>
      <point x="482" y="-12"/>
      <point x="538" y="-12" type="curve" smooth="yes"/>
      <point x="854" y="-12"/>
      <point x="918" y="154"/>
      <point x="918" y="250" type="curve" smooth="yes"/>
      <point x="918" y="458"/>
      <point x="660" y="500"/>
      <point x="596" y="510" type="curve" smooth="yes"/>
      <point x="550" y="518"/>
      <point x="510" y="524"/>
      <point x="460" y="534" type="curve" smooth="yes"/>
      <point x="402" y="546"/>
      <point x="266" y="566"/>
      <point x="266" y="644" type="curve" smooth="yes"/>
      <point x="266" y="696"/>
      <point x="330" y="758"/>
      <point x="520" y="758" type="curve" smooth="yes"/>
      <point x="686" y="758"/>
      <point x="716" y="698"/>
      <point x="720" y="646" type="curve" smooth="yes"/>
      <point x="724" y="612"/>
      <point x="726" y="578"/>
      <point x="788" y="578" type="curve" smooth="yes"/>
      <point x="858" y="578"/>
      <point x="858" y="620"/>
      <point x="858" y="660" type="curve" smooth="yes"/>
      <point x="858" y="798" type="line" smooth="yes"/>
      <point x="858" y="830"/>
      <point x="858" y="880"/>
      <point x="798" y="880" type="curve" smooth="yes"/>
      <point x="750" y="880"/>
      <point x="742" y="852"/>
      <point x="738" y="838" type="curve"/>
      <point x="650" y="880"/>
      <point x="562" y="880"/>
      <point x="524" y="880" type="curve" smooth="yes"/>
      <point x="190" y="880"/>
      <point x="144" y="716"/>
    </contour>
  </outline>
</glyph>
<glyph name="t" format="2">
  <advance width="1050"/>
  <unicode hex="0074"/>
  <outline>
    <contour>
      <point x="444" y="740" type="line"/>
      <point x="772" y="740" type="line" smooth="yes"/>
      <point x="802" y="740"/>
      <point x="852" y="740"/>
      <point x="852" y="800" type="curve" smooth="yes"/>
      <point x="852" y="862"/>
      <point x="804" y="862"/>
      <point x="772" y="862" type="curve" smooth="yes"/>
      <point x="444" y="862" type="line"/>
      <point x="444" y="1026" type="line" smooth="yes"/>
      <point x="444" y="1064"/>
      <point x="444" y="1108"/>
      <point x="376" y="1108" type="curve" smooth="yes"/>
      <point x="306" y="1108"/>
      <point x="306" y="1066"/>
      <point x="306" y="1026" type="curve" smooth="yes"/>
      <point x="306" y="862" type="line"/>
      <point x="132" y="862" type="line" smooth="yes"/>
      <point x="100" y="862"/>
      <point x="50" y="862"/>
      <point x="50" y="800" type="curve" smooth="yes"/>
      <point x="50" y="740"/>
      <point x="100" y="740"/>
      <point x="130" y="740" type="curve" smooth="yes"/>
      <point x="306" y="740" type="line"/>
      <point x="306" y="252" type="line" smooth="yes"/>
      <point x="306" y="60"/>
      <point x="442" y="-12"/>
      <point x="588" y="-12" type="curve" smooth="yes"/>
      <point x="736" y="-12"/>
      <point x="898" y="74"/>
      <point x="898" y="252" type="curve" smooth="yes"/>
      <point x="898" y="288"/>
      <point x="898" y="330"/>
      <point x="828" y="330" type="curve" smooth="yes"/>
      <point x="762" y="330"/>
      <point x="760" y="288"/>
      <point x="760" y="254" type="curve" smooth="yes"/>
      <point x="758" y="130"/>
      <point x="644" y="110"/>
      <point x="598" y="110" type="curve" smooth="yes"/>
      <point x="444" y="110"/>
      <point x="444" y="214"/>
      <point x="444" y="264" type="curve" smooth="yes"/>
    </contour>
  </outline>
</glyph>
<glyph name="u" format="2">
  <advance width="1050"/>
  <unicode hex="0075"/>
  <outline>
    <contour>
      <point x="716" y="64" type="curve"/>
      <point x="718" y="0"/>
      <point x="760" y="0"/>
      <point x="796" y="0" type="curve" smooth="yes"/>
      <point x="942" y="0" type="line" smooth="yes"/>
      <point x="974" y="0"/>
      <point x="1024" y="0"/>
      <point x="1024" y="62" type="curve" smooth="yes"/>
      <point x="1024" y="122"/>
      <point x="972" y="122"/>
      <point x="944" y="122" type="curve" smooth="yes"/>
      <point x="854" y="122" type="line"/>
      <point x="854" y="780" type="line" smooth="yes"/>
      <point x="854" y="842"/>
      <point x="842" y="862"/>
      <point x="774" y="862" type="curve" smooth="yes"/>
      <point x="628" y="862" type="line" smooth="yes"/>
      <point x="596" y="862"/>
      <point x="546" y="862"/>
      <point x="546" y="800" type="curve" smooth="yes"/>
      <point x="546" y="740"/>
      <point x="598" y="740"/>
      <point x="626" y="740" type="curve" smooth="yes"/>
      <point x="716" y="740" type="line"/>
      <point x="716" y="314" type="line" smooth="yes"/>
      <point x="716" y="134"/>
      <point x="554" y="110"/>
      <point x="490" y="110" type="curve" smooth="yes"/>
      <point x="332" y="110"/>
      <point x="332" y="176"/>
      <point x="332" y="240" type="curve" smooth="yes"/>
      <point x="332" y="780" type="line" smooth="yes"/>
      <point x="332" y="842"/>
      <point x="320" y="862"/>
      <point x="252" y="862" type="curve" smooth="yes"/>
      <point x="106" y="862" type="line" smooth="yes"/>
      <point x="74" y="862"/>
      <point x="24" y="862"/>
      <point x="24" y="800" type="curve" smooth="yes"/>
      <point x="24" y="740"/>
      <point x="76" y="740"/>
      <point x="104" y="740" type="curve" smooth="yes"/>
      <point x="194" y="740" type="line"/>
      <point x="194" y="228" type="line" smooth="yes"/>
      <point x="194" y="36"/>
      <point x="332" y="-12"/>
      <point x="478" y="-12" type="curve" smooth="yes"/>
      <point x="560" y="-12"/>
      <point x="642" y="8"/>
    </contour>
  </outline>
</glyph>
<glyph name="v" format="2">
  <advance width="1050"/>
  <unicode hex="0076"/>
  <outline>
    <contour>
      <point x="860" y="740" type="line"/>
      <point x="920" y="740" type="line" smooth="yes"/>
      <point x="950" y="740"/>
      <point x="1000" y="740"/>
      <point x="1000" y="800" type="curve" smooth="yes"/>
      <point x="1000" y="862"/>
      <point x="952" y="862"/>
      <point x="920" y="862" type="curve" smooth="yes"/>
      <point x="686" y="862" type="line" smooth="yes"/>
      <point x="656" y="862"/>
      <point x="606" y="862"/>
      <point x="606" y="802" type="curve" smooth="yes"/>
      <point x="606" y="740"/>
      <point x="654" y="740"/>
      <point x="686" y="740" type="curve" smooth="yes"/>
      <point x="742" y="740" type="line"/>
      <point x="524" y="96" type="line"/>
      <point x="306" y="740" type="line"/>
      <point x="362" y="740" type="line" smooth="yes"/>
      <point x="392" y="740"/>
      <point x="442" y="740"/>
      <point x="442" y="800" type="curve" smooth="yes"/>
      <point x="442" y="862"/>
      <point x="394" y="862"/>
      <point x="362" y="862" type="curve" smooth="yes"/>
      <point x="128" y="862" type="line" smooth="yes"/>
      <point x="96" y="862"/>
      <point x="48" y="862"/>
      <point x="48" y="800" type="curve" smooth="yes"/>
      <point x="48" y="740"/>
      <point x="98" y="740"/>
      <point x="128" y="740" type="curve" smooth="yes"/>
      <point x="188" y="740" type="line"/>
      <point x="418" y="60" type="line" smooth="yes"/>
      <point x="442" y="-8"/>
      <point x="482" y="-8"/>
      <point x="524" y="-8" type="curve" smooth="yes"/>
      <point x="562" y="-8"/>
      <point x="608" y="-8"/>
      <point x="630" y="58" type="curve" smooth="yes"/>
    </contour>
  </outline>
</glyph>
<glyph name="w" format="2">
  <advance width="1050"/>
  <unicode hex="0077"/>
  <outline>
    <contour>
      <point x="914" y="740" type="line"/>
      <point x="974" y="740"/>
      <point x="1016" y="740"/>
      <point x="1016" y="802" type="curve" smooth="yes"/>
      <point x="1016" y="862"/>
      <point x="968" y="862"/>
      <point x="932" y="862" type="curve" smooth="yes"/>
      <point x="702" y="862" type="line" smooth="yes"/>
      <point x="666" y="862"/>
      <point x="618" y="862"/>
      <point x="618" y="802" type="curve" smooth="yes"/>
      <point x="618" y="740"/>
      <point x="664" y="740"/>
      <point x="702" y="740" type="curve" smooth="yes"/>
      <point x="800" y="740" type="line"/>
      <point x="700" y="144" type="line"/>
      <point x="698" y="144" type="line"/>
      <point x="690" y="196"/>
      <point x="664" y="288"/>
      <point x="640" y="370" type="curve" smooth="yes"/>
      <point x="604" y="496"/>
      <point x="598" y="518"/>
      <point x="528" y="518" type="curve" smooth="yes"/>
      <point x="508" y="518"/>
      <point x="470" y="518"/>
      <point x="448" y="474" type="curve"/>
      <point x="442" y="460"/>
      <point x="362" y="184"/>
      <point x="354" y="144" type="curve"/>
      <point x="352" y="144" type="line"/>
      <point x="248" y="740" type="line"/>
      <point x="346" y="740" type="line" smooth="yes"/>
      <point x="382" y="740"/>
      <point x="430" y="740"/>
      <point x="430" y="800" type="curve" smooth="yes"/>
      <point x="430" y="862"/>
      <point x="384" y="862"/>
      <point x="346" y="862" type="curve" smooth="yes"/>
      <point x="116" y="862" type="line" smooth="yes"/>
      <point x="80" y="862"/>
      <point x="32" y="862"/>
      <point x="32" y="802" type="curve" smooth="yes"/>
      <point x="32" y="740"/>
      <point x="74" y="740"/>
      <point x="134" y="740" type="curve"/>
      <point x="254" y="68" type="line" smooth="yes"/>
      <point x="262" y="22"/>
      <point x="268" y="-8"/>
      <point x="348" y="-8" type="curve" smooth="yes"/>
      <point x="428" y="-8"/>
      <point x="434" y="10"/>
      <point x="470" y="132" type="curve" smooth="yes"/>
      <point x="520" y="308"/>
      <point x="522" y="336"/>
      <point x="528" y="380" type="curve"/>
      <point x="530" y="380" type="line"/>
      <point x="540" y="276"/>
      <point x="614" y="42"/>
      <point x="622" y="26" type="curve"/>
      <point x="646" y="-8"/>
      <point x="682" y="-8"/>
      <point x="706" y="-8" type="curve" smooth="yes"/>
      <point x="780" y="-8"/>
      <point x="786" y="24"/>
      <point x="794" y="68" type="curve" smooth="yes"/>
    </contour>
  </outline>
</glyph>
<glyph name="x" format="2">
  <advance width="1050"/>
  <unicode hex="0078"/>
  <outline>
    <contour>
      <point x="574" y="444" type="line"/>
      <point x="802" y="740" type="line"/>
      <point x="882" y="740" type="line" smooth="yes"/>
      <point x="910" y="740"/>
      <point x="964" y="740"/>
      <point x="964" y="800" type="curve" smooth="yes"/>
      <point x="964" y="862"/>
      <point x="912" y="862"/>
      <point x="882" y="862" type="curve" smooth="yes"/>
      <point x="648" y="862" type="line" smooth="yes"/>
      <point x="618" y="862"/>
      <point x="568" y="862"/>
      <point x="568" y="802" type="curve" smooth="yes"/>
      <point x="568" y="740"/>
      <point x="612" y="740"/>
      <point x="666" y="740" type="curve"/>
      <point x="518" y="538" type="line"/>
      <point x="366" y="740" type="line"/>
      <point x="418" y="740"/>
      <point x="462" y="740"/>
      <point x="462" y="802" type="curve" smooth="yes"/>
      <point x="462" y="862"/>
      <point x="412" y="862"/>
      <point x="382" y="862" type="curve" smooth="yes"/>
      <point x="148" y="862" type="line" smooth="yes"/>
      <point x="118" y="862"/>
      <point x="66" y="862"/>
      <point x="66" y="800" type="curve" smooth="yes"/>
      <point x="66" y="740"/>
      <point x="120" y="740"/>
      <point x="148" y="740" type="curve" smooth="yes"/>
      <point x="228" y="740" type="line"/>
      <point x="464" y="444" type="line"/>
      <point x="216" y="122" type="line"/>
      <point x="136" y="122" type="line" smooth="yes"/>
      <point x="106" y="122"/>
      <point x="54" y="122"/>
      <point x="54" y="60" type="curve" smooth="yes"/>
      <point x="54" y="0"/>
      <point x="108" y="0"/>
      <point x="136" y="0" type="curve" smooth="yes"/>
      <point x="370" y="0" type="line" smooth="yes"/>
      <point x="400" y="0"/>
      <point x="450" y="0"/>
      <point x="450" y="60" type="curve" smooth="yes"/>
      <point x="450" y="122"/>
      <point x="408" y="122"/>
      <point x="346" y="122" type="curve"/>
      <point x="518" y="368" type="line"/>
      <point x="696" y="122" type="line"/>
      <point x="640" y="122"/>
      <point x="596" y="122"/>
      <point x="596" y="60" type="curve" smooth="yes"/>
      <point x="596" y="0"/>
      <point x="646" y="0"/>
      <point x="676" y="0" type="curve" smooth="yes"/>
      <point x="910" y="0" type="line" smooth="yes"/>
      <point x="938" y="0"/>
      <point x="992" y="0"/>
      <point x="992" y="60" type="curve" smooth="yes"/>
      <point x="992" y="122"/>
      <point x="940" y="122"/>
      <point x="910" y="122" type="curve" smooth="yes"/>
      <point x="830" y="122" type="line"/>
    </contour>
  </outline>
</glyph>
<glyph name="y" format="2">
	<unicode hex="0079"/>
	<advance width="525"/>
	<outline>
		<contour>
			<point x="430" y="370" type="line"/>
			<point x="439.99" y="370"/>
			<point x="449.98" y="370"/>
			<point x="460" y="370" type="curve" smooth="yes"/>
			<point x="475" y="370"/>
			<point x="500" y="370"/>
			<point x="500" y="400" type="curve" smooth="yes"/>
			<point x="500" y="431"/>
			<point x="476" y="431"/>
			<point x="460" y="431" type="curve" smooth="yes"/>
			<point x="343" y="431" type="line" smooth="yes"/>
			<point x="328" y="431"/>
			<point x="303" y="431"/>
			<point x="303" y="401" type="curve" smooth="yes"/>
			<point x="303" y="370"/>
			<point x="327" y="370"/>
			<point x="343" y="370" type="curve" smooth="yes"/>
			<point x="352.324" y="370"/>
			<point x="361.648" y="370"/>
			<point x="371" y="370" type="curve"/>
			<point x="347.024" y="299.071"/>
			<point x="323.048" y="228.142"/>
			<point x="299" y="157" type="curve" smooth="yes"/>
			<point x="286" y="120"/>
			<point x="280" y="102"/>
			<point x="273" y="71" type="curve"/>
			<point x="272" y="71" type="line"/>
			<point x="267" y="90"/>
			<point x="258" y="111"/>
			<point x="251" y="130" type="curve" smooth="yes"/>
			<point x="158" y="370" type="line"/>
			<point x="166.325" y="370"/>
			<point x="174.65" y="370"/>
			<point x="183" y="370" type="curve" smooth="yes"/>
			<point x="198" y="370"/>
			<point x="223" y="370"/>
			<point x="223" y="400" type="curve" smooth="yes"/>
			<point x="223" y="431"/>
			<point x="199" y="431"/>
			<point x="183" y="431" type="curve" smooth="yes"/>
			<point x="66" y="431" type="line" smooth="yes"/>
			<point x="50" y="431"/>
			<point x="26" y="431"/>
			<point x="26" y="400" type="curve" smooth="yes"/>
			<point x="26" y="370"/>
			<point x="51" y="370"/>
			<point x="66" y="370" type="curve" smooth="yes"/>
			<point x="76.323" y="370"/>
			<point x="86.646" y="370"/>
			<point x="97" y="370" type="curve"/>
			<point x="145.618" y="247.123"/>
			<point x="194.236" y="124.246"/>
			<point x="243" y="1" type="curve"/>
			<point x="243" y="-1"/>
			<point x="218" y="-84"/>
			<point x="205" y="-109" type="curve" smooth="yes"/>
			<point x="176" y="-164"/>
			<point x="140" y="-166"/>
			<point x="125" y="-167" type="curve"/>
			<point x="126" y="-165"/>
			<point x="130" y="-158"/>
			<point x="130" y="-145" type="curve" smooth="yes"/>
			<point x="130" y="-120"/>
			<point x="112" y="-102"/>
			<point x="87" y="-102" type="curve" smooth="yes"/>
			<point x="60" y="-102"/>
			<point x="43" y="-120"/>
			<point x="43" y="-146" type="curve" smooth="yes"/>
			<point x="43" y="-188"/>
			<point x="77" y="-228"/>
			<point x="126" y="-228" type="curve" smooth="yes"/>
			<point x="226" y="-228"/>
			<point x="271" y="-96"/>
			<point x="275" y="-85" type="curve" smooth="yes"/>
		</contour>
	</outline>
</glyph>
<glyph name="z" format="2">
  <advance width="1050"/>
  <unicode hex="007A"/>
  <outline>
    <contour>
      <point x="734" y="740" type="line"/>
      <point x="110" y="148" type="line" smooth="yes"/>
      <point x="68" y="108"/>
      <point x="66" y="102"/>
      <point x="66" y="68" type="curve" smooth="yes"/>
      <point x="66" y="0"/>
      <point x="110" y="0"/>
      <point x="148" y="0" type="curve" smooth="yes"/>
      <point x="906" y="0" type="line"/>
      <point x="950" y="12"/>
      <point x="950" y="52"/>
      <point x="950" y="82" type="curve" smooth="yes"/>
      <point x="950" y="198" type="line" smooth="yes"/>
      <point x="950" y="236"/>
      <point x="950" y="280"/>
      <point x="882" y="280" type="curve" smooth="yes"/>
      <point x="812" y="280"/>
      <point x="812" y="238"/>
      <point x="812" y="198" type="curve" smooth="yes"/>
      <point x="812" y="122" type="line"/>
      <point x="274" y="122" type="line"/>
      <point x="898" y="714" type="line" smooth="yes"/>
      <point x="940" y="754"/>
      <point x="942" y="760"/>
      <point x="942" y="794" type="curve" smooth="yes"/>
      <point x="942" y="862"/>
      <point x="898" y="862"/>
      <point x="860" y="862" type="curve" smooth="yes"/>
      <point x="180" y="862" type="line" smooth="yes"/>
      <point x="114" y="862"/>
      <point x="98" y="846"/>
      <point x="98" y="780" type="curve" smooth="yes"/>
      <point x="98" y="688" type="line" smooth="yes"/>
      <point x="98" y="650"/>
      <point x="98" y="606"/>
      <point x="166" y="606" type="curve" smooth="yes"/>
      <point x="236" y="606"/>
      <point x="236" y="648"/>
      <point x="236" y="688" type="curve" smooth="yes"/>
      <point x="236" y="740" type="line"/>
    </contour>
  </outline>
</glyph>
<glyph name="braceleft" format="2">
	<unicode hex="007B"/>
	<advance width="525"/>
	<outline>
		<contour>
			<point x="297" y="209" type="line" smooth="yes"/>
			<point x="297" y="234"/>
			<point x="294" y="275"/>
			<point x="239" y="305" type="curve"/>
			<point x="281" y="330"/>
			<point x="297" y="363"/>
			<point x="297" y="388" type="curve" smooth="yes"/>
			<point x="297" y="575" type="line" smooth="yes"/>
			<point x="297" y="631"/>
			<point x="388" y="631"/>
			<point x="441" y="633" type="curve" smooth="yes"/>
			<point x="447" y="633"/>
			<point x="467" y="639"/>
			<point x="467" y="663" type="curve" smooth="yes"/>
			<point x="467" y="694"/>
			<point x="443" y="694"/>
			<point x="425" y="694" type="curve" smooth="yes"/>
			<point x="379.6856" y="694"/>
			<point x="321.53953856" y="688.73572864"/>
			<point x="280.1915038162" y="663.8641521725" type="curve" smooth="yes"/>
			<point x="249.45440128" y="645.37523968"/>
			<point x="228" y="616"/>
			<point x="228" y="570" type="curve" smooth="yes"/>
			<point x="228" y="403" type="line" smooth="yes"/>
			<point x="228" y="346"/>
			<point x="157" y="336"/>
			<point x="83" y="336" type="curve" smooth="yes"/>
			<point x="77" y="336"/>
			<point x="57" y="330"/>
			<point x="57" y="306" type="curve" smooth="yes"/>
			<point x="57" y="276"/>
			<point x="81" y="275"/>
			<point x="91" y="275" type="curve" smooth="yes"/>
			<point x="117" y="274"/>
			<point x="226" y="271"/>
			<point x="228" y="217" type="curve" smooth="yes"/>
			<point x="228" y="51" type="line" smooth="yes"/>
			<point x="228" y="21"/>
			<point x="228" y="-24"/>
			<point x="280" y="-53" type="curve" smooth="yes"/>
			<point x="322" y="-76"/>
			<point x="377" y="-83"/>
			<point x="425" y="-83" type="curve" smooth="yes"/>
			<point x="443" y="-83"/>
			<point x="467" y="-83"/>
			<point x="467" y="-52" type="curve" smooth="yes"/>
			<point x="467" y="-23"/>
			<point x="442" y="-22"/>
			<point x="433" y="-22" type="curve" smooth="yes"/>
			<point x="297" y="-19"/>
			<point x="297" y="17"/>
			<point x="297" y="48" type="curve" smooth="yes"/>
		</contour>
	</outline>
</glyph>
<glyph name="bar" format="2">
  <advance width="1050"/>
  <unicode hex="007C"/>
  <outline>
    <contour>
      <point x="594" y="1294" type="line" smooth="yes"/>
      <point x="594" y="1318"/>
      <point x="594" y="1388"/>
      <point x="524" y="1388" type="curve" smooth="yes"/>
      <point x="454" y="1388"/>
      <point x="454" y="1318"/>
      <point x="454" y="1294" type="curve" smooth="yes"/>
      <point x="454" y="-72" type="line" smooth="yes"/>
      <point x="454" y="-96"/>
      <point x="454" y="-166"/>
      <point x="524" y="-166" type="curve" smooth="yes"/>
      <point x="594" y="-166"/>
      <point x="594" y="-96"/>
      <point x="594" y="-72" type="curve" smooth="yes"/>
    </contour>
  </outline>
</glyph>
<glyph name="asciitilde" format="2">
  <advance width="525"/>
  <unicode hex="007E"/>
  <outline>
    <contour>
      <point x="437" y="579" type="curve" smooth="yes"/>
      <point x="437" y="595"/>
      <point x="422" y="611"/>
      <point x="406" y="611" type="curve" smooth="yes"/>
      <point x="395" y="611"/>
      <point x="389" y="606"/>
      <point x="382" y="600" type="curve" smooth="yes"/>
      <point x="352" y="572"/>
      <point x="326" y="556"/>
      <point x="312" y="556" type="curve" smooth="yes"/>
      <point x="302" y="556"/>
      <point x="294" y="565"/>
      <point x="281" y="577" type="curve" smooth="yes"/>
      <point x="268" y="590"/>
      <point x="248" y="611"/>
      <point x="214" y="611" type="curve" smooth="yes"/>
      <point x="187" y="611"/>
      <point x="159" y="595"/>
      <point x="136" y="578" type="curve" smooth="yes"/>
      <point x="116" y="563"/>
      <point x="87" y="541"/>
      <point x="87" y="523" type="curve" smooth="yes"/>
      <point x="87" y="507"/>
      <point x="102" y="491"/>
      <point x="118" y="491" type="curve" smooth="yes"/>
      <point x="129" y="491"/>
      <point x="135" y="496"/>
      <point x="142" y="502" type="curve" smooth="yes"/>
      <point x="172" y="530"/>
      <point x="198" y="546"/>
      <point x="212" y="546" type="curve" smooth="yes"/>
      <point x="222" y="546"/>
      <point x="230" y="537"/>
      <point x="243" y="525" type="curve" smooth="yes"/>
      <point x="256" y="512"/>
      <point x="276" y="491"/>
      <point x="310" y="491" type="curve" smooth="yes"/>
      <point x="337" y="491"/>
      <point x="365" y="507"/>
      <point x="388" y="524" type="curve" smooth="yes"/>
      <point x="408" y="539"/>
      <point x="437" y="561"/>
    </contour>
  </outline>
</glyph>
<glyph name="exclamdown" format="2">
	<unicode hex="00A1"/>
	<advance width="525"/>
	<outline>
		<contour>
			<point x="312" y="339" type="curve" smooth="yes"/>
			<point x="312" y="367"/>
			<point x="290" y="389"/>
			<point x="262" y="389" type="curve" smooth="yes"/>
			<point x="234" y="389"/>
			<point x="212" y="367"/>
			<point x="212" y="339" type="curve" smooth="yes"/>
			<point x="212" y="311"/>
			<point x="234" y="289"/>
			<point x="262" y="289" type="curve" smooth="yes"/>
			<point x="290" y="289"/>
			<point x="312" y="311"/>
		</contour>
		<contour>
			<point x="312" y="-176" type="curve" smooth="yes"/>
			<point x="309" y="-68"/>
			<point x="306" y="51"/>
			<point x="303" y="157" type="curve" smooth="yes"/>
			<point x="302" y="197"/>
			<point x="297" y="205"/>
			<point x="262" y="205" type="curve" smooth="yes"/>
			<point x="227" y="205"/>
			<point x="222" y="197"/>
			<point x="221" y="157" type="curve" smooth="yes"/>
			<point x="218" y="51"/>
			<point x="215" y="-68"/>
			<point x="212" y="-176" type="curve" smooth="yes"/>
			<point x="211" y="-229"/>
			<point x="253" y="-233"/>
			<point x="262" y="-233" type="curve" smooth="yes"/>
			<point x="271" y="-233"/>
			<point x="313" y="-229"/>
		</contour>
	</outline>
</glyph>
<glyph name="dieresis" format="2">
  <advance width="1050"/>
  <unicode hex="00A8"/>
  <outline>
    <contour>
      <point x="420" y="1124" type="curve" smooth="yes"/>
      <point x="420" y="1188"/>
      <point x="370" y="1224"/>
      <point x="320" y="1224" type="curve" smooth="yes"/>
      <point x="260" y="1224"/>
      <point x="220" y="1172"/>
      <point x="220" y="1124" type="curve" smooth="yes"/>
      <point x="220" y="1076"/>
      <point x="260" y="1024"/>
      <point x="320" y="1024" type="curve" smooth="yes"/>
      <point x="370" y="1024"/>
      <point x="420" y="1060"/>
    </contour>
    <contour>
      <point x="828" y="1124" type="curve" smooth="yes"/>
      <point x="828" y="1172"/>
      <point x="788" y="1224"/>
      <point x="728" y="1224" type="curve" smooth="yes"/>
      <point x="678" y="1224"/>
      <point x="628" y="1188"/>
      <point x="628" y="1124" type="curve" smooth="yes"/>
      <point x="628" y="1060"/>
      <point x="678" y="1024"/>
      <point x="728" y="1024" type="curve" smooth="yes"/>
      <point x="788" y="1024"/>
      <point x="828" y="1076"/>
    </contour>
  </outline>
</glyph>
<glyph name="macron" format="2">
  <advance width="1050"/>
  <unicode hex="00AF"/>
  <outline>
    <contour>
      <point x="822" y="1028" type="line" smooth="yes"/>
      <point x="854" y="1028"/>
      <point x="902" y="1028"/>
      <point x="902" y="1090" type="curve" smooth="yes"/>
      <point x="902" y="1154"/>
      <point x="856" y="1154"/>
      <point x="822" y="1154" type="curve" smooth="yes"/>
      <point x="226" y="1154" type="line" smooth="yes"/>
      <point x="194" y="1154"/>
      <point x="146" y="1154"/>
      <point x="146" y="1092" type="curve" smooth="yes"/>
      <point x="146" y="1028"/>
      <point x="194" y="1028"/>
      <point x="228" y="1028" type="curve" smooth="yes"/>
    </contour>
  </outline>
</glyph>
<glyph name="acute" format="2">
	<unicode hex="00B4"/>
	<advance width="525"/>
	<outline>
		<contour>
			<point x="379" y="541" type="line" smooth="yes"/>
			<point x="403" y="552"/>
			<point x="407" y="565"/>
			<point x="407" y="576" type="curve" smooth="yes"/>
			<point x="407" y="596"/>
			<point x="392" y="611"/>
			<point x="372" y="611" type="curve" smooth="yes"/>
			<point x="370" y="611"/>
			<point x="364" y="611"/>
			<point x="353" y="606" type="curve" smooth="yes"/>
			<point x="220" y="546" type="line" smooth="yes"/>
			<point x="206" y="540"/>
			<point x="195" y="535"/>
			<point x="195" y="517" type="curve" smooth="yes"/>
			<point x="195" y="509"/>
			<point x="202" y="477"/>
			<point x="228" y="477" type="curve" smooth="yes"/>
			<point x="235" y="477"/>
			<point x="240" y="479"/>
			<point x="246" y="482" type="curve" smooth="yes"/>
		</contour>
	</outline>
</glyph>
<glyph name="cedilla" format="2">
  <advance width="1050"/>
  <unicode hex="00B8"/>
  <outline>
    <contour>
      <point x="718" y="-212" type="curve" smooth="yes"/>
      <point x="718" y="-292"/>
      <point x="520" y="-292"/>
      <point x="444" y="-292" type="curve" smooth="yes"/>
      <point x="414" y="-292" type="line" smooth="yes"/>
      <point x="356" y="-292"/>
      <point x="324" y="-300"/>
      <point x="324" y="-354" type="curve" smooth="yes"/>
      <point x="324" y="-400"/>
      <point x="356" y="-416"/>
      <point x="386" y="-416" type="curve" smooth="yes"/>
      <point x="576" y="-416"/>
      <point x="856" y="-416"/>
      <point x="856" y="-212" type="curve" smooth="yes"/>
      <point x="856" y="-134"/>
      <point x="800" y="-46"/>
      <point x="658" y="-18" type="curve"/>
      <point x="658" y="56"/>
      <point x="658" y="90"/>
      <point x="590" y="90" type="curve" smooth="yes"/>
      <point x="520" y="90"/>
      <point x="520" y="46"/>
      <point x="520" y="6" type="curve" smooth="yes"/>
      <point x="520" y="-48" type="line" smooth="yes"/>
      <point x="520" y="-88"/>
      <point x="520" y="-128"/>
      <point x="584" y="-132" type="curve" smooth="yes"/>
      <point x="672" y="-136"/>
      <point x="718" y="-172"/>
    </contour>
  </outline>
</glyph>
<glyph name="questiondown" format="2">
  <advance width="1050"/>
  <unicode hex="00BF"/>
  <outline>
    <contour>
      <point x="594" y="678" type="curve" smooth="yes"/>
      <point x="594" y="734"/>
      <point x="550" y="778"/>
      <point x="494" y="778" type="curve" smooth="yes"/>
      <point x="438" y="778"/>
      <point x="394" y="734"/>
      <point x="394" y="678" type="curve" smooth="yes"/>
      <point x="394" y="622"/>
      <point x="438" y="578"/>
      <point x="494" y="578" type="curve" smooth="yes"/>
      <point x="550" y="578"/>
      <point x="594" y="622"/>
    </contour>
    <contour>
      <point x="414" y="294" type="line" smooth="yes"/>
      <point x="414" y="230"/>
      <point x="406" y="98"/>
      <point x="242" y="-12" type="curve" smooth="yes"/>
      <point x="208" y="-36"/>
      <point x="124" y="-92"/>
      <point x="124" y="-208" type="curve" smooth="yes"/>
      <point x="124" y="-256"/>
      <point x="140" y="-456"/>
      <point x="496" y="-456" type="curve" smooth="yes"/>
      <point x="560" y="-456"/>
      <point x="924" y="-456"/>
      <point x="924" y="-212" type="curve" smooth="yes"/>
      <point x="924" y="-148"/>
      <point x="876" y="-118"/>
      <point x="834" y="-118" type="curve" smooth="yes"/>
      <point x="792" y="-118"/>
      <point x="746" y="-152"/>
      <point x="746" y="-208" type="curve" smooth="yes"/>
      <point x="746" y="-228"/>
      <point x="750" y="-250"/>
      <point x="764" y="-266" type="curve"/>
      <point x="696" y="-334"/>
      <point x="530" y="-334"/>
      <point x="498" y="-334" type="curve" smooth="yes"/>
      <point x="458" y="-334"/>
      <point x="262" y="-334"/>
      <point x="262" y="-208" type="curve" smooth="yes"/>
      <point x="262" y="-154"/>
      <point x="300" y="-128"/>
      <point x="324" y="-112" type="curve" smooth="yes"/>
      <point x="574" y="56"/>
      <point x="574" y="226"/>
      <point x="574" y="306" type="curve" smooth="yes"/>
      <point x="574" y="384"/>
      <point x="574" y="410"/>
      <point x="494" y="410" type="curve" smooth="yes"/>
      <point x="434" y="410"/>
      <point x="414" y="400"/>
      <point x="414" y="328" type="curve" smooth="yes"/>
    </contour>
  </outline>
</glyph>
<glyph name="AE" format="2">
  <advance width="1050"/>
  <unicode hex="00C6"/>
  <outline>
    <contour>
      <point x="306" y="366" type="line"/>
      <point x="528" y="366" type="line"/>
      <point x="528" y="122" type="line"/>
      <point x="500" y="122"/>
      <point x="448" y="122"/>
      <point x="448" y="62" type="curve" smooth="yes"/>
      <point x="448" y="0"/>
      <point x="498" y="0"/>
      <point x="530" y="0" type="curve" smooth="yes"/>
      <point x="918" y="0" type="line" smooth="yes"/>
      <point x="984" y="0"/>
      <point x="998" y="18"/>
      <point x="998" y="82" type="curve" smooth="yes"/>
      <point x="998" y="260" type="line" smooth="yes"/>
      <point x="998" y="288"/>
      <point x="998" y="342"/>
      <point x="942" y="342" type="curve" smooth="yes"/>
      <point x="886" y="342"/>
      <point x="886" y="288"/>
      <point x="886" y="260" type="curve" smooth="yes"/>
      <point x="886" y="122" type="line"/>
      <point x="640" y="122" type="line"/>
      <point x="640" y="572" type="line"/>
      <point x="870" y="572" type="line" smooth="yes"/>
      <point x="900" y="572"/>
      <point x="950" y="572"/>
      <point x="950" y="632" type="curve" smooth="yes"/>
      <point x="950" y="694"/>
      <point x="902" y="694"/>
      <point x="870" y="694" type="curve" smooth="yes"/>
      <point x="640" y="694" type="line"/>
      <point x="640" y="1100" type="line"/>
      <point x="870" y="1100" type="line"/>
      <point x="870" y="994" type="line" smooth="yes"/>
      <point x="870" y="966"/>
      <point x="870" y="912"/>
      <point x="926" y="912" type="curve" smooth="yes"/>
      <point x="982" y="912"/>
      <point x="982" y="966"/>
      <point x="982" y="994" type="curve" smooth="yes"/>
      <point x="982" y="1140" type="line" smooth="yes"/>
      <point x="982" y="1202"/>
      <point x="970" y="1222"/>
      <point x="902" y="1222" type="curve" smooth="yes"/>
      <point x="340" y="1222" type="line" smooth="yes"/>
      <point x="310" y="1222"/>
      <point x="260" y="1222"/>
      <point x="260" y="1162" type="curve" smooth="yes"/>
      <point x="260" y="1100"/>
      <point x="308" y="1100"/>
      <point x="340" y="1100" type="curve"/>
      <point x="142" y="122" type="line"/>
      <point x="90" y="122"/>
      <point x="46" y="122"/>
      <point x="46" y="60" type="curve" smooth="yes"/>
      <point x="46" y="0"/>
      <point x="96" y="0"/>
      <point x="126" y="0" type="curve" smooth="yes"/>
      <point x="268" y="0" type="line" smooth="yes"/>
      <point x="298" y="0"/>
      <point x="348" y="0"/>
      <point x="348" y="60" type="curve" smooth="yes"/>
      <point x="348" y="122"/>
      <point x="302" y="122"/>
      <point x="256" y="122" type="curve"/>
    </contour>
    <contour>
      <point x="454" y="1100" type="line"/>
      <point x="528" y="1100" type="line"/>
      <point x="528" y="488" type="line"/>
      <point x="330" y="488" type="line"/>
    </contour>
  </outline>
</glyph>
<glyph name="germandbls" format="2">
	<unicode hex="00DF"/>
	<advance width="525"/>
	<outline>
		<contour>
			<point x="383" y="395" type="curve"/>
			<point x="452" y="432"/>
			<point x="466" y="478"/>
			<point x="466" y="508" type="curve" smooth="yes"/>
			<point x="466" y="573"/>
			<point x="385" y="617"/>
			<point x="289" y="617" type="curve" smooth="yes"/>
			<point x="225" y="617"/>
			<point x="111" y="594"/>
			<point x="111" y="501" type="curve" smooth="yes"/>
			<point x="111" y="431" type="line"/>
			<point x="57" y="431" type="line" smooth="yes"/>
			<point x="41" y="431"/>
			<point x="17" y="431"/>
			<point x="17" y="400" type="curve" smooth="yes"/>
			<point x="17" y="370"/>
			<point x="42" y="370"/>
			<point x="57" y="370" type="curve" smooth="yes"/>
			<point x="111" y="370" type="line"/>
			<point x="111" y="61" type="line"/>
			<point x="57" y="61" type="line" smooth="yes"/>
			<point x="41" y="61"/>
			<point x="17" y="61"/>
			<point x="17" y="30" type="curve" smooth="yes"/>
			<point x="17" y="0"/>
			<point x="42" y="0"/>
			<point x="57" y="0" type="curve" smooth="yes"/>
			<point x="140" y="0" type="line" smooth="yes"/>
			<point x="173" y="0"/>
			<point x="180" y="9"/>
			<point x="180" y="41" type="curve" smooth="yes"/>
			<point x="180" y="494" type="line" smooth="yes"/>
			<point x="180" y="514"/>
			<point x="180" y="527"/>
			<point x="214" y="542" type="curve" smooth="yes"/>
			<point x="237" y="552"/>
			<point x="262" y="556"/>
			<point x="288" y="556" type="curve" smooth="yes"/>
			<point x="350" y="556"/>
			<point x="397" y="531"/>
			<point x="397" y="507" type="curve" smooth="yes"/>
			<point x="397" y="485"/>
			<point x="368" y="434"/>
			<point x="266" y="431" type="curve"/>
			<point x="254" y="430"/>
			<point x="238" y="423"/>
			<point x="238" y="400" type="curve" smooth="yes"/>
			<point x="238" y="375"/>
			<point x="260" y="370"/>
			<point x="262" y="370" type="curve"/>
			<point x="397" y="362"/>
			<point x="426" y="230"/>
			<point x="426" y="175" type="curve" smooth="yes"/>
			<point x="426" y="98"/>
			<point x="365" y="55"/>
			<point x="312" y="55" type="curve" smooth="yes"/>
			<point x="305" y="55"/>
			<point x="296" y="56"/>
			<point x="290" y="59" type="curve"/>
			<point x="290" y="83"/>
			<point x="290" y="85"/>
			<point x="283" y="95" type="curve"/>
			<point x="276" y="104"/>
			<point x="264" y="111"/>
			<point x="251" y="111" type="curve" smooth="yes"/>
			<point x="230" y="111"/>
			<point x="210" y="96"/>
			<point x="210" y="69" type="curve" smooth="yes"/>
			<point x="210" y="32"/>
			<point x="244" y="-6"/>
			<point x="312" y="-6" type="curve" smooth="yes"/>
			<point x="404" y="-6"/>
			<point x="495" y="65"/>
			<point x="495" y="175" type="curve" smooth="yes"/>
			<point x="495" y="224"/>
			<point x="480" y="327"/>
		</contour>
	</outline>
</glyph>
<glyph name="ae" format="2">
  <advance width="1050"/>
  <unicode hex="00E6"/>
  <outline>
    <contour>
      <point x="468" y="496" type="line"/>
      <point x="244" y="494"/>
      <point x="66" y="402"/>
      <point x="66" y="236" type="curve" smooth="yes"/>
      <point x="66" y="118"/>
      <point x="150" y="-12"/>
      <point x="294" y="-12" type="curve" smooth="yes"/>
      <point x="394" y="-12"/>
      <point x="500" y="38"/>
      <point x="552" y="126" type="curve"/>
      <point x="566" y="106"/>
      <point x="648" y="-12"/>
      <point x="778" y="-12" type="curve" smooth="yes"/>
      <point x="948" y="-12"/>
      <point x="1008" y="178"/>
      <point x="1008" y="218" type="curve" smooth="yes"/>
      <point x="1008" y="248"/>
      <point x="984" y="274"/>
      <point x="952" y="274" type="curve" smooth="yes"/>
      <point x="908" y="274"/>
      <point x="900" y="236"/>
      <point x="896" y="224" type="curve"/>
      <point x="876" y="146"/>
      <point x="832" y="110"/>
      <point x="788" y="110" type="curve" smooth="yes"/>
      <point x="700" y="110"/>
      <point x="600" y="212"/>
      <point x="584" y="382" type="curve"/>
      <point x="928" y="382" type="line" smooth="yes"/>
      <point x="1000" y="382"/>
      <point x="1008" y="404"/>
      <point x="1008" y="466" type="curve" smooth="yes"/>
      <point x="1008" y="732"/>
      <point x="902" y="880"/>
      <point x="758" y="880" type="curve" smooth="yes"/>
      <point x="688" y="880"/>
      <point x="604" y="840"/>
      <point x="544" y="736" type="curve"/>
      <point x="496" y="822"/>
      <point x="422" y="880"/>
      <point x="314" y="880" type="curve" smooth="yes"/>
      <point x="130" y="880"/>
      <point x="80" y="800"/>
      <point x="80" y="734" type="curve" smooth="yes"/>
      <point x="80" y="674"/>
      <point x="122" y="642"/>
      <point x="170" y="642" type="curve" smooth="yes"/>
      <point x="186" y="642"/>
      <point x="252" y="648"/>
      <point x="258" y="732" type="curve"/>
      <point x="258" y="738"/>
      <point x="256" y="744"/>
      <point x="256" y="750" type="curve" smooth="yes"/>
      <point x="256" y="758"/>
      <point x="284" y="758"/>
      <point x="308" y="758" type="curve" smooth="yes"/>
      <point x="406" y="758"/>
      <point x="468" y="688"/>
      <point x="468" y="562" type="curve" smooth="yes"/>
    </contour>
    <contour>
      <point x="584" y="502" type="line"/>
      <point x="596" y="630"/>
      <point x="672" y="758"/>
      <point x="758" y="758" type="curve" smooth="yes"/>
      <point x="818" y="758"/>
      <point x="884" y="694"/>
      <point x="894" y="502" type="curve"/>
    </contour>
    <contour>
      <point x="468" y="378" type="curve"/>
      <point x="466" y="356"/>
      <point x="466" y="326"/>
      <point x="466" y="268" type="curve" smooth="yes"/>
      <point x="466" y="230"/>
      <point x="466" y="188"/>
      <point x="422" y="152" type="curve" smooth="yes"/>
      <point x="376" y="114"/>
      <point x="320" y="110"/>
      <point x="306" y="110" type="curve" smooth="yes"/>
      <point x="224" y="110"/>
      <point x="178" y="178"/>
      <point x="178" y="238" type="curve" smooth="yes"/>
      <point x="178" y="324"/>
      <point x="310" y="372"/>
    </contour>
  </outline>
</glyph>
